<svg xmlns="http://www.w3.org/2000/svg" viewBox="0 0 2087.18 950"><defs><style>.a{isolation:isolate;}.b{fill:#0d561e;}.c{fill:#0d7da0;}.d{fill:#ffab2e;stroke-miterlimit:10;}.d,.f{stroke:#ffab2e;}.e,.f{fill:none;stroke-linecap:round;stroke-linejoin:round;stroke-width:200px;mix-blend-mode:multiply;}.e{stroke:#0d7da0;}</style></defs><title>atlas-tb-logo</title><g class="a"><path class="b" d="M1649.76,140.05a15,15,0,0,0-15,15v80a15,15,0,0,0,30,0v-80A15,15,0,0,0,1649.76,140.05Z"/><path class="b" d="M1724.76,212.55a27.5,27.5,0,0,0-27.5-27.5h-37.5a10,10,0,0,0,0,20h27.5a7.5,7.5,0,0,1,0,15h-37.5a15,15,0,0,0,0,30h37.5a37.5,37.5,0,0,0,37.5-37.5"/><path class="b" d="M1679.76,205.05a10,10,0,0,1,0-20h2.5a7.5,7.5,0,0,0,0-15h-32.5a15,15,0,0,1,0-30h32.5a32.5,32.5,0,0,1,0,65h-2.5"/><path class="b" d="M1329.76,250a15,15,0,0,1-15-15V155a15,15,0,0,1,30,0v80A15,15,0,0,1,1329.76,250Z"/><path class="b" d="M1084.75,250a15,15,0,0,1-14-20.27l30-80a15,15,0,1,1,28.09,10.53l-30,80A15,15,0,0,1,1084.75,250Z"/><path class="b" d="M1204.76,250a15,15,0,0,1-14-9.74l-30-80a15,15,0,1,1,28.09-10.53l30,80a15,15,0,0,1-14,20.27Z"/><path class="b" d="M1144.75,250a15,15,0,0,1-14-20.27l30-80a15,15,0,1,1,28.09,10.53l-30,80A15,15,0,0,1,1144.75,250Z"/><path class="b" d="M1144.76,250a15,15,0,0,1-14-9.74l-30-80a15,15,0,1,1,28.09-10.53l30,80a15,15,0,0,1-14,20.27Z"/><path class="b" d="M1254.76,250a15,15,0,0,1-15-15V200.05a15,15,0,0,1,3.15-9.2l35-45a15,15,0,1,1,23.69,18.41l-31.84,41V235A15,15,0,0,1,1254.76,250Z"/><path class="b" d="M1334.15,225.66a15,15,0,0,1-10.61-25.61l55.61-55.65a15,15,0,1,1,21.21,21.21l-55.6,55.65A15,15,0,0,1,1334.15,225.66Z"/><path class="b" d="M1389.77,250a15,15,0,0,1-12.88-7.29l-24-40a15,15,0,1,1,25.72-15.43l24,40A15,15,0,0,1,1389.77,250Z"/><path class="b" d="M1429.76,250a15,15,0,0,1-15-15V155a15,15,0,0,1,30,0v80A15,15,0,0,1,1429.76,250Z"/><path class="b" d="M1569.73,250a55,55,0,0,1-38.89-93.87,15,15,0,0,1,21.21,21.22,25,25,0,0,0,35.36,35.35,15,15,0,0,1,21.21,21.21A54.8,54.8,0,0,1,1569.73,250Z"/><path class="b" d="M1598,238.29a15,15,0,0,1-10.6-25.61,25,25,0,1,0-35.36-35.35,15,15,0,1,1-21.21-21.22,55,55,0,1,1,77.78,77.78A15,15,0,0,1,1598,238.29Z"/><path class="b" d="M1809.76,170.05h-60a15,15,0,0,1,0-30h60a15,15,0,0,1,0,30Z"/><path class="b" d="M1809.76,250.05h-60a15,15,0,0,1,0-30h60a15,15,0,0,1,0,30Z"/><path class="b" d="M1749.76,250a15,15,0,0,1-15-15V155a15,15,0,0,1,30,0v80A15,15,0,0,1,1749.76,250Z"/><path class="b" d="M1464.76,220h-20a15,15,0,0,1,0-30h20a10,10,0,0,0,0-20h-35a15,15,0,0,1,0-30h35a40,40,0,0,1,0,80Z"/><path class="b" d="M1489.77,250a15,15,0,0,1-12.88-7.29L1463.26,220A15,15,0,1,1,1489,204.57l13.63,22.72A15,15,0,0,1,1489.77,250Z"/><path class="b" d="M1254.77,215.05a15,15,0,0,1-11.86-5.8l-35-45a15,15,0,0,1,23.69-18.41l35,45a15,15,0,0,1-11.83,24.2Z"/><path class="b" d="M1789.76,210h-25a15,15,0,0,1,0-30h25a15,15,0,0,1,0,30Z"/><path class="c" d="M1240.38,474.88h-111L1108,520.62c-4.13,7.5-9.38,12.38-19.13,12.38a21.2,21.2,0,0,1-21.75-21.38,20,20,0,0,1,2.25-9l96-213.37c3.38-7.5,9.75-12,19.5-12s16.13,4.13,19.5,12l96,213.37a20,20,0,0,1,2.25,9A21.2,21.2,0,0,1,1280.88,533c-9.75,0-15-4.5-19.12-12.38Zm-55.5-135.38-39,95.25h78Z"/><path class="c" d="M1432.75,323.38h-64.13V509.75A23.36,23.36,0,0,1,1345.38,533c-12.76,0-22.5-10.5-22.5-23.25V323.38h-64.5a21.57,21.57,0,1,1,0-43.13h174.37A21.77,21.77,0,0,1,1454.5,302,21.46,21.46,0,0,1,1432.75,323.38Z"/><path class="c" d="M1487.42,530a23.37,23.37,0,0,1-23.25-23.25V300.5a23.37,23.37,0,0,1,23.25-23.25c12.75,0,22.5,10.5,22.5,23.25V486.88h109.5a21.36,21.36,0,0,1,21.37,21.37A21.94,21.94,0,0,1,1619.42,530Z"/><path class="c" d="M1823.42,474.88h-111L1691,520.62c-4.12,7.5-9.37,12.38-19.12,12.38a21.2,21.2,0,0,1-21.75-21.38,20,20,0,0,1,2.25-9l96-213.37c3.37-7.5,9.75-12,19.5-12s16.12,4.13,19.5,12l96,213.37a20,20,0,0,1,2.25,9A21.2,21.2,0,0,1,1863.92,533c-9.75,0-15-4.5-19.13-12.38Zm-55.5-135.38-39,95.25h78Z"/><path class="c" d="M1990.44,534.5c-30.38,0-64.88-9.38-86.63-26.25-7.5-6-12.75-13.5-12.75-21.75,0-11.62,7.5-19.5,19.13-19.5a21.89,21.89,0,0,1,11.62,3.38c20.25,12.74,34.13,24,69.38,24,36,0,50.25-14.63,50.25-31.5,0-18.38-14.63-27.76-59.63-39.76-67.87-18-88.12-39.74-88.12-77.24,0-45.76,39.37-70.13,99-70.13a191.78,191.78,0,0,1,48,6.75c17.25,4.88,39,15.75,39,30.75,0,10.13-6,20.63-18.75,20.63a19.45,19.45,0,0,1-9-1.88c-17.25-7.88-35.25-15.75-58.88-15.75-33.37,0-53.62,9-53.62,28.5,0,18.37,15,24.75,60,37.87,51.37,15,87.75,29.63,87.75,77.63C2087.19,503.75,2054.19,534.5,1990.44,534.5Z"/><path class="d" d="M1265.88,603.38h-64.12V789.75A23.37,23.37,0,0,1,1178.51,813c-12.75,0-22.5-10.5-22.5-23.25V603.38h-64.5a21.57,21.57,0,1,1,0-43.13h174.37A21.77,21.77,0,0,1,1287.63,582,21.45,21.45,0,0,1,1265.88,603.38Z"/><path class="d" d="M1410.55,810h-90.37a23.05,23.05,0,0,1-22.88-23.25V583.12a22.73,22.73,0,0,1,22.88-22.87h86.62c49.88,0,78.75,25.87,78.75,61.87,0,25.13-15.75,42.76-39.75,53.63,32.63,7.5,53.25,31.13,53.25,62.63C1499.05,775.5,1468.68,810,1410.55,810Zm-1.87-208.88h-65.63v56.63h65.63c21,0,30.75-14.25,30.75-28.87C1439.43,612.38,1428.18,601.12,1408.68,601.12Zm5.25,97.5h-70.88v70.5h71.25c23.63,0,39-13.87,39-36C1453.3,714.38,1439.05,698.62,1413.93,698.62Z"/><line class="e" x1="749.51" y1="662.5" x2="424.76" y2="850"/><line class="f" x1="749.51" y1="287.5" x2="749.51" y2="662.5"/><line class="e" x1="424.76" y1="100" x2="749.51" y2="287.5"/><line class="f" x1="100" y1="287.5" x2="424.76" y2="100"/><line class="e" x1="100" y1="662.5" x2="100" y2="287.5"/><line class="f" x1="424.76" y1="850" x2="100" y2="662.5"/></g></svg>