<svg xmlns="http://www.w3.org/2000/svg" viewBox="0 0 2087.42 950"><defs><style>.a{isolation:isolate;}.b{fill:#750019;}.c{fill:#8f0030;}.d{fill:#d16293;}.e,.f{fill:none;stroke-linecap:round;stroke-linejoin:round;stroke-width:200px;mix-blend-mode:multiply;}.e{stroke:#8f0030;}.f{stroke:#d16293;}</style></defs><title>atlas-ecoli-logo</title><g class="a"><path class="b" d="M1647.52,140.05a15,15,0,0,0-15,15v80a15,15,0,0,0,30,0v-80A15,15,0,0,0,1647.52,140.05Z"/><path class="b" d="M1722.52,212.55a27.5,27.5,0,0,0-27.5-27.5h-37.5a10,10,0,0,0,0,20H1685a7.5,7.5,0,0,1,0,15h-37.5a15,15,0,0,0,0,30H1685a37.5,37.5,0,0,0,37.5-37.5"/><path class="b" d="M1677.52,205.05a10,10,0,0,1,0-20h2.5a7.5,7.5,0,0,0,0-15h-32.5a15,15,0,0,1,0-30H1680a32.5,32.5,0,0,1,0,65h-2.5"/><path class="b" d="M1330,250a15,15,0,0,1-15-15V155a15,15,0,0,1,30,0v80A15,15,0,0,1,1330,250Z"/><path class="b" d="M1085,250a15,15,0,0,1-14-20.27l30-80A15,15,0,1,1,1129,160.27l-30,80A15,15,0,0,1,1085,250Z"/><path class="b" d="M1205,250a15,15,0,0,1-14-9.74l-30-80A15,15,0,1,1,1189,149.74l30,80A15,15,0,0,1,1205,250Z"/><path class="b" d="M1145,250a15,15,0,0,1-14-20.27l30-80A15,15,0,1,1,1189,160.27l-30,80A15,15,0,0,1,1145,250Z"/><path class="b" d="M1145,250a15,15,0,0,1-14-9.74l-30-80A15,15,0,1,1,1129,149.74l30,80A15,15,0,0,1,1145,250Z"/><path class="b" d="M1255,250a15,15,0,0,1-15-15V200.05a15,15,0,0,1,3.16-9.2l35-45a15,15,0,1,1,23.68,18.41l-31.84,41V235A15,15,0,0,1,1255,250Z"/><path class="b" d="M1334.39,225.66a15,15,0,0,1-10.6-25.61l55.6-55.65a15,15,0,1,1,21.22,21.21L1345,221.26A15,15,0,0,1,1334.39,225.66Z"/><path class="b" d="M1390,250a15,15,0,0,1-12.87-7.29l-24-40a15,15,0,0,1,25.73-15.43l24,40A15,15,0,0,1,1390,250Z"/><path class="b" d="M1430,250a15,15,0,0,1-15-15V155a15,15,0,0,1,30,0v80A15,15,0,0,1,1430,250Z"/><path class="b" d="M1567.5,250a55,55,0,0,1-38.9-93.87,15,15,0,1,1,21.22,21.22,25,25,0,1,0,35.35,35.35,15,15,0,1,1,21.22,21.21A54.82,54.82,0,0,1,1567.5,250Z"/><path class="b" d="M1595.78,238.29a15,15,0,0,1-10.61-25.61,25,25,0,0,0-35.35-35.35,15,15,0,0,1-21.22-21.22,55,55,0,0,1,77.79,77.78A15,15,0,0,1,1595.78,238.29Z"/><path class="b" d="M1807.52,170.05h-60a15,15,0,0,1,0-30h60a15,15,0,0,1,0,30Z"/><path class="b" d="M1807.52,250.05h-60a15,15,0,0,1,0-30h60a15,15,0,0,1,0,30Z"/><path class="b" d="M1747.52,250a15,15,0,0,1-15-15V155a15,15,0,0,1,30,0v80A15,15,0,0,1,1747.52,250Z"/><path class="b" d="M1465,220h-20a15,15,0,0,1,0-30h20a10,10,0,0,0,0-20h-35a15,15,0,0,1,0-30h35a40,40,0,0,1,0,80Z"/><path class="b" d="M1490,250a15,15,0,0,1-12.87-7.29L1463.51,220a15,15,0,1,1,25.72-15.43l13.63,22.72A15,15,0,0,1,1490,250Z"/><path class="b" d="M1255,215.05a15,15,0,0,1-11.85-5.8l-35-45a15,15,0,1,1,23.68-18.41l35,45a15,15,0,0,1-11.83,24.2Z"/><path class="b" d="M1787.52,210h-25a15,15,0,0,1,0-30h25a15,15,0,0,1,0,30Z"/><path class="c" d="M1240.62,474.88h-111l-21.37,45.74c-4.13,7.5-9.38,12.38-19.13,12.38a21.2,21.2,0,0,1-21.75-21.38,20,20,0,0,1,2.25-9l96-213.37c3.38-7.5,9.75-12,19.5-12s16.13,4.13,19.5,12l96,213.37a20,20,0,0,1,2.25,9A21.2,21.2,0,0,1,1281.12,533c-9.75,0-15-4.5-19.12-12.38Zm-55.5-135.38-39,95.25h78Z"/><path class="c" d="M1433,323.38h-64.12V509.75A23.37,23.37,0,0,1,1345.62,533c-12.75,0-22.5-10.5-22.5-23.25V323.38h-64.5a21.57,21.57,0,1,1,0-43.13H1433A21.77,21.77,0,0,1,1454.74,302,21.45,21.45,0,0,1,1433,323.38Z"/><path class="c" d="M1487.66,530a23.37,23.37,0,0,1-23.25-23.25V300.5a23.37,23.37,0,0,1,23.25-23.25c12.75,0,22.5,10.5,22.5,23.25V486.88h109.5A21.36,21.36,0,0,1,1641,508.25,21.94,21.94,0,0,1,1619.66,530Z"/><path class="c" d="M1823.66,474.88h-111l-21.37,45.74c-4.13,7.5-9.38,12.38-19.13,12.38a21.2,21.2,0,0,1-21.75-21.38,20,20,0,0,1,2.25-9l96-213.37c3.38-7.5,9.75-12,19.5-12s16.13,4.13,19.5,12l96,213.37a20,20,0,0,1,2.25,9A21.2,21.2,0,0,1,1864.16,533c-9.75,0-15-4.5-19.12-12.38Zm-55.5-135.38-39,95.25h78Z"/><path class="c" d="M1990.68,534.5c-30.38,0-64.88-9.38-86.63-26.25-7.5-6-12.75-13.5-12.75-21.75,0-11.62,7.5-19.5,19.13-19.5a21.89,21.89,0,0,1,11.62,3.38c20.25,12.74,34.13,24,69.38,24,36,0,50.25-14.63,50.25-31.5,0-18.38-14.63-27.76-59.63-39.76-67.87-18-88.12-39.74-88.12-77.24,0-45.76,39.37-70.13,99-70.13a191.78,191.78,0,0,1,48,6.75c17.25,4.88,39,15.75,39,30.75,0,10.13-6,20.63-18.75,20.63a19.45,19.45,0,0,1-9-1.88c-17.25-7.88-35.25-15.75-58.88-15.75-33.37,0-53.62,9-53.62,28.5,0,18.37,15,24.75,60,37.87,51.37,15,87.75,29.63,87.75,77.63C2087.43,503.75,2054.43,534.5,1990.68,534.5Z"/><path class="d" d="M1234.75,823H1093.49a23.15,23.15,0,0,1-23.35-23V595.08a23.15,23.15,0,0,1,23.35-23H1229.1c12.05,0,21.85,9,21.85,21.1a21.55,21.55,0,0,1-21.85,21.47h-113v59.9h62.16A21.46,21.46,0,0,1,1199.72,696a21.14,21.14,0,0,1-21.47,21.09h-62.16v63.29h118.66a21.54,21.54,0,0,1,21.85,21.47C1256.6,813.94,1246.8,823,1234.75,823Z"/><path class="d" d="M1294.64,825.62a25.72,25.72,0,0,1-25.61-26A25.4,25.4,0,0,1,1294.64,774a25.72,25.72,0,0,1,26,25.62A26,26,0,0,1,1294.64,825.62Z"/><path class="d" d="M1487.88,764.22c4.9-3.39,9.8-5.28,15.07-5.28,12.81,0,20.72,9.8,20.72,21.1,0,6-2.64,10.92-7.16,15.44-21.47,22.23-54.62,32-84,32-73.83,0-128.08-51.23-128.08-130s54.25-130,128.08-130c29.38,0,62.53,9.8,84,32,4.52,4.52,7.16,9.42,7.16,15.45,0,11.3-7.91,21.09-20.72,21.09-5.27,0-10.17-1.88-15.07-5.27-14.31-10.93-29.76-20.72-55.37-20.72-49.35,0-81.74,37.29-81.74,87.39s32.39,87.4,81.74,87.4C1458.12,784.94,1473.57,775.14,1487.88,764.22Z"/><path class="d" d="M1648,827.5c-73.83,0-128.83-57.25-128.83-130s55-130,128.83-130,128.83,57.26,128.83,130S1721.8,827.5,1648,827.5ZM1648,609c-51.23,0-82.49,40.68-82.49,88.52s31.26,88.53,82.49,88.53,82.5-40.69,82.5-88.53S1699.2,609,1648,609Z"/><path class="d" d="M1815.22,823a23.48,23.48,0,0,1-23.36-23.35V592.45a23.48,23.48,0,0,1,23.36-23.36c12.81,0,22.6,10.55,22.6,23.36V779.66h110a21.47,21.47,0,0,1,21.47,21.47A22,22,0,0,1,1947.82,823Z"/><path class="d" d="M2007.33,826A23.48,23.48,0,0,1,1984,802.64V592.45a23.48,23.48,0,0,1,23.36-23.36c12.81,0,22.6,10.55,22.6,23.36V802.64C2029.93,815.45,2020.14,826,2007.33,826Z"/><line class="e" x1="424.76" y1="100" x2="424.76" y2="850"/><line class="f" x1="100" y1="287.51" x2="749.52" y2="662.49"/><line class="f" x1="100.01" y1="662.51" x2="749.52" y2="287.48"/></g></svg>