<?xml version="1.0" encoding="utf-8"?>
<!-- Generator: Adobe Illustrator 16.0.4, SVG Export Plug-In . SVG Version: 6.00 Build 0)  -->
<!DOCTYPE svg PUBLIC "-//W3C//DTD SVG 1.1//EN" "http://www.w3.org/Graphics/SVG/1.1/DTD/svg11.dtd">
<svg version="1.1" id="Layer_2" xmlns="http://www.w3.org/2000/svg" xmlns:xlink="http://www.w3.org/1999/xlink" x="0px" y="0px"
	 width="567px" height="256px" viewBox="0 0 567 256" enable-background="new 0 0 567 256" xml:space="preserve">
<g>
	<path fill="#0D561E" d="M464.374,50.796c0.717-1.27,1.131-2.733,1.131-4.295c0-4.837-3.921-8.757-8.758-8.757h-0.673h-8.084
		c-2.232,0-4.042,1.81-4.042,4.042v21.557c0,2.232,1.81,4.042,4.042,4.042h10.104c5.581,0,10.104-4.524,10.104-10.105
		C468.199,54.488,466.654,52.059,464.374,50.796z M456.747,45.827c1.115,0,2.021,0.906,2.021,2.021c0,1.114-0.906,2.021-2.021,2.021
		h-0.673h-4.042v-4.042H456.747z M458.094,59.3h-6.062v-4.042h4.042h0.673h1.348c1.116,0,2.021,0.905,2.021,2.021
		S459.21,59.3,458.094,59.3z"/>
	<path fill="#0D561E" d="M323.778,40.353c-0.016-0.042-0.042-0.077-0.059-0.118c-0.055-0.133-0.122-0.26-0.191-0.387
		c-0.06-0.109-0.117-0.219-0.185-0.322c-0.074-0.11-0.16-0.211-0.244-0.314c-0.083-0.1-0.163-0.201-0.253-0.292
		c-0.092-0.092-0.194-0.173-0.295-0.256c-0.102-0.083-0.201-0.168-0.311-0.241c-0.104-0.069-0.216-0.127-0.327-0.188
		c-0.125-0.068-0.249-0.134-0.38-0.188c-0.042-0.018-0.078-0.043-0.121-0.06c-0.075-0.028-0.152-0.037-0.228-0.06
		c-0.137-0.042-0.273-0.082-0.414-0.109c-0.126-0.025-0.251-0.04-0.377-0.053c-0.133-0.013-0.266-0.023-0.4-0.023
		c-0.134,0-0.266,0.01-0.398,0.023c-0.127,0.013-0.252,0.028-0.379,0.053c-0.141,0.028-0.277,0.067-0.414,0.109
		c-0.076,0.023-0.152,0.032-0.227,0.06c-0.042,0.016-0.078,0.042-0.12,0.059c-0.132,0.055-0.258,0.121-0.383,0.189
		c-0.11,0.06-0.221,0.118-0.324,0.187c-0.11,0.074-0.211,0.159-0.314,0.244c-0.1,0.082-0.201,0.162-0.291,0.252
		c-0.092,0.092-0.173,0.194-0.256,0.295s-0.168,0.202-0.241,0.311c-0.069,0.104-0.127,0.215-0.188,0.326
		c-0.068,0.125-0.134,0.25-0.189,0.382c-0.017,0.042-0.043,0.077-0.059,0.12l-4.299,11.465l-4.299-11.465
		c-0.016-0.042-0.041-0.076-0.058-0.117c-0.055-0.135-0.123-0.262-0.192-0.39c-0.059-0.108-0.116-0.217-0.184-0.319
		c-0.074-0.111-0.16-0.213-0.246-0.317c-0.082-0.099-0.162-0.2-0.252-0.29c-0.091-0.092-0.194-0.173-0.295-0.256
		c-0.102-0.083-0.202-0.168-0.311-0.241c-0.103-0.069-0.214-0.127-0.325-0.187c-0.126-0.068-0.251-0.135-0.384-0.189
		c-0.042-0.018-0.077-0.043-0.119-0.059c-0.074-0.028-0.15-0.036-0.225-0.059c-0.139-0.043-0.276-0.083-0.419-0.111
		c-0.125-0.024-0.248-0.04-0.373-0.052c-0.134-0.013-0.268-0.023-0.404-0.023c-0.133,0-0.264,0.009-0.396,0.023
		c-0.127,0.013-0.253,0.028-0.38,0.053c-0.141,0.028-0.277,0.067-0.415,0.109c-0.075,0.023-0.152,0.032-0.227,0.06
		c-0.042,0.016-0.078,0.042-0.12,0.059c-0.132,0.055-0.257,0.121-0.383,0.189c-0.111,0.06-0.222,0.118-0.325,0.187
		c-0.109,0.073-0.209,0.158-0.311,0.241c-0.101,0.083-0.204,0.164-0.295,0.256c-0.091,0.09-0.17,0.19-0.252,0.29
		c-0.085,0.104-0.171,0.205-0.246,0.316c-0.068,0.102-0.125,0.21-0.183,0.319c-0.07,0.128-0.138,0.255-0.193,0.39
		c-0.017,0.041-0.042,0.075-0.058,0.117l-8.084,21.557c-0.784,2.09,0.275,4.42,2.365,5.204c0.468,0.175,0.947,0.258,1.418,0.258
		c1.637,0,3.177-1.001,3.786-2.624l4.299-11.465l4.299,11.465c0.019,0.05,0.046,0.094,0.066,0.143
		c0.034,0.081,0.072,0.158,0.111,0.237c0.073,0.146,0.153,0.286,0.241,0.419c0.042,0.064,0.083,0.129,0.129,0.191
		c0.121,0.163,0.252,0.314,0.395,0.455c0.026,0.027,0.049,0.057,0.076,0.083c0.174,0.164,0.363,0.307,0.562,0.436
		c0.057,0.037,0.118,0.068,0.176,0.102c0.16,0.093,0.325,0.175,0.496,0.245c0.04,0.016,0.073,0.041,0.114,0.056
		c0.032,0.012,0.065,0.016,0.097,0.027c0.15,0.052,0.304,0.092,0.459,0.126c0.067,0.015,0.133,0.035,0.2,0.046
		c0.215,0.036,0.433,0.058,0.654,0.059c0.003,0,0.005,0,0.008,0h0c0,0,0.001,0,0.001,0c0.003,0,0.006,0,0.008,0
		c0.221-0.001,0.439-0.022,0.654-0.059c0.067-0.011,0.134-0.031,0.201-0.046c0.156-0.034,0.309-0.074,0.458-0.126
		c0.032-0.011,0.065-0.015,0.097-0.027c0.041-0.015,0.074-0.04,0.114-0.056c0.171-0.07,0.335-0.152,0.496-0.245
		c0.059-0.034,0.12-0.065,0.176-0.102c0.198-0.129,0.387-0.272,0.562-0.436c0.027-0.026,0.05-0.056,0.076-0.083
		c0.142-0.141,0.273-0.292,0.395-0.455c0.046-0.062,0.086-0.126,0.129-0.191c0.088-0.134,0.168-0.273,0.241-0.419
		c0.039-0.079,0.077-0.156,0.111-0.237c0.021-0.049,0.048-0.093,0.066-0.143l4.299-11.465l4.299,11.465
		c0.608,1.623,2.149,2.624,3.785,2.624c0.472,0,0.952-0.083,1.419-0.258c2.09-0.784,3.149-3.114,2.365-5.204L323.778,40.353z"/>
	<path fill="#0D561E" d="M353.462,38.581c-1.762-1.369-4.301-1.051-5.671,0.712l-6.239,8.031l-6.24-8.031
		c-1.37-1.763-3.909-2.082-5.672-0.712c-1.763,1.37-2.082,3.909-0.712,5.672l8.581,11.043v8.034c0,2.232,1.81,4.042,4.042,4.042
		c2.232,0,4.042-1.81,4.042-4.042v-8.033l8.581-11.044C355.543,42.489,355.225,39.95,353.462,38.581z"/>
	<path fill="#0D561E" d="M380.787,38.915c-1.578-1.579-4.138-1.579-5.716,0l-9.268,9.275v-6.417c0-2.232-1.81-4.042-4.042-4.042
		s-4.042,1.81-4.042,4.042V63.33c0,2.232,1.81,4.042,4.042,4.042s4.042-1.81,4.042-4.042v-3.703l3.243-3.246l5.417,9.028
		c0.758,1.263,2.097,1.963,3.47,1.963c0.708,0,1.424-0.186,2.076-0.577c1.914-1.148,2.535-3.631,1.386-5.545l-6.458-10.764
		l5.851-5.855C382.365,43.052,382.365,40.493,380.787,38.915z"/>
	<path fill="#0D561E" d="M415.946,42.071c-5.778,5.778-5.778,15.181,0,20.959c2.889,2.889,6.685,4.333,10.479,4.333
		s7.59-1.444,10.479-4.333c5.778-5.779,5.778-15.181,0-20.959C431.126,36.292,421.724,36.292,415.946,42.071z M421.662,57.314
		c-2.627-2.627-2.627-6.9,0-9.527c2.627-2.627,6.9-2.627,9.527,0c2.626,2.626,2.626,6.9,0,9.527
		C428.562,59.941,424.289,59.941,421.662,57.314z"/>
	<path fill="#0D561E" d="M491.104,59.3h-12.126v-2.708h6.736c2.232,0,4.042-1.81,4.042-4.042c0-2.232-1.81-4.042-4.042-4.042h-6.736
		v-2.682h12.126c2.232,0,4.042-1.81,4.042-4.042s-1.81-4.042-4.042-4.042h-16.042c-0.043-0.001-0.083-0.013-0.126-0.013
		c-2.232,0-4.042,1.81-4.042,4.042V63.33c0,0.002,0.001,0.004,0.001,0.006s-0.001,0.004-0.001,0.006c0,2.232,1.81,4.042,4.042,4.042
		h16.168c2.232,0,4.042-1.81,4.042-4.042S493.336,59.3,491.104,59.3z"/>
	<path fill="#0D561E" d="M408.917,48.509c0-5.943-4.836-10.778-10.779-10.778h-9.431c-2.232,0-4.042,1.81-4.042,4.042V63.33
		c0,2.232,1.81,4.042,4.042,4.042c2.232,0,4.042-1.81,4.042-4.042v-4.042h4.988l3.673,6.121c0.758,1.264,2.096,1.963,3.47,1.963
		c0.707,0,1.425-0.186,2.075-0.577c1.914-1.148,2.535-3.631,1.387-5.545l-2.901-4.835C407.572,54.444,408.917,51.634,408.917,48.509
		z M392.749,45.814h5.389c1.486,0,2.695,1.209,2.695,2.694c0,1.486-1.209,2.695-2.695,2.695h-5.389V45.814z"/>
</g>
<g>
	<g>
		<path fill="#FFAB2E" stroke="#FFAB2E" stroke-width="0.2695" stroke-miterlimit="10" d="M344.546,162.596h-17.278v50.219
			c0,3.436-2.83,6.265-6.265,6.265c-3.436,0-6.063-2.829-6.063-6.265v-50.219h-17.379c-3.233,0-5.86-2.627-5.86-5.76
			c0-3.233,2.526-5.86,5.86-5.86h46.985c3.233,0,5.86,2.627,5.86,5.86C350.406,159.969,347.88,162.596,344.546,162.596z"/>
		<path fill="#FFAB2E" stroke="#FFAB2E" stroke-width="0.2695" stroke-miterlimit="10" d="M383.53,218.271h-24.352
			c-3.436,0-6.164-2.829-6.164-6.265v-54.867c0-3.436,2.728-6.163,6.164-6.163h23.341c13.438,0,21.22,6.972,21.22,16.672
			c0,6.771-4.244,11.52-10.711,14.449c8.792,2.021,14.348,8.387,14.348,16.874C407.376,208.975,399.192,218.271,383.53,218.271z
			 M383.025,161.989h-17.683v15.258h17.683c5.659,0,8.286-3.84,8.286-7.78C391.311,165.021,388.279,161.989,383.025,161.989z
			 M384.44,188.261h-19.098v18.996h19.198c6.366,0,10.509-3.738,10.509-9.7C395.049,192.504,391.209,188.261,384.44,188.261z"/>
	</g>
</g>
<path fill="#0D7DA0" d="M117.921,256c-9.313,0-18.37-4.833-23.361-13.478c-7.441-12.889-3.025-29.368,9.863-36.81l87.51-50.525
	c12.888-7.441,29.369-3.025,36.81,9.863c7.441,12.888,3.025,29.368-9.862,36.81l-87.51,50.524
	C127.126,254.835,122.492,256,117.921,256z"/>
<path fill="#FFAB2E" d="M205.406,205.471c-14.882,0-26.946-12.064-26.946-26.947V77.475c0-14.882,12.064-26.946,26.946-26.946
	c14.882,0,26.946,12.064,26.946,26.946v101.048C232.352,193.406,220.288,205.471,205.406,205.471z"/>
<path fill="#0D561E" d="M228.742,165.051c-7.441-12.889-23.921-17.305-36.81-9.863l-13.473,7.778v15.558
	c0,14.883,12.064,26.947,26.946,26.947c4.955,0,9.593-1.343,13.582-3.677c0.297-0.173,0.589-0.353,0.877-0.536
	c0.112-0.071,0.225-0.143,0.336-0.216c0.232-0.151,0.459-0.31,0.685-0.468c0.163-0.114,0.326-0.228,0.485-0.345
	c0.155-0.114,0.306-0.232,0.458-0.349c0.219-0.168,0.438-0.337,0.65-0.512c0.078-0.062,0.153-0.129,0.229-0.192
	c0.274-0.23,0.546-0.462,0.811-0.703c0.006-0.005,0.012-0.011,0.018-0.016c1.897-1.728,3.546-3.722,4.89-5.923
	c0.105-0.174,0.203-0.35,0.304-0.524c0.107-0.186,0.217-0.37,0.321-0.558c1.232-2.26,2.133-4.68,2.68-7.181
	c0.003-0.014,0.007-0.027,0.01-0.041c0.074-0.343,0.138-0.688,0.199-1.033c0.019-0.106,0.04-0.211,0.057-0.317
	c0.044-0.266,0.079-0.533,0.115-0.801c0.026-0.195,0.053-0.391,0.075-0.588c0.021-0.193,0.038-0.387,0.055-0.58
	c0.024-0.278,0.048-0.558,0.064-0.84c0.007-0.129,0.012-0.259,0.018-0.389c0.015-0.345,0.025-0.69,0.026-1.039
	C232.374,174.026,231.218,169.34,228.742,165.051z"/>
<path fill="#0D7DA0" d="M205.38,104.426c-4.572,0-9.204-1.165-13.448-3.615l-87.51-50.524c-12.888-7.441-17.304-23.921-9.863-36.81
	C102,0.589,118.481-3.827,131.369,3.615l87.51,50.524c12.888,7.441,17.304,23.921,9.863,36.81
	C223.751,99.593,214.693,104.426,205.38,104.426z"/>
<path fill="#0D561E" d="M228.742,90.949c2.476-4.288,3.631-8.972,3.607-13.59c-0.001-0.351-0.012-0.7-0.026-1.047
	c-0.006-0.128-0.01-0.256-0.018-0.384c-0.016-0.282-0.04-0.562-0.064-0.843c-0.018-0.192-0.033-0.385-0.055-0.577
	c-0.021-0.197-0.049-0.393-0.075-0.589c-0.036-0.268-0.071-0.536-0.115-0.802c-0.017-0.104-0.038-0.208-0.056-0.312
	c-0.062-0.347-0.125-0.693-0.2-1.037c-0.003-0.014-0.006-0.027-0.01-0.042c-0.547-2.501-1.448-4.922-2.681-7.182
	c-0.099-0.181-0.206-0.358-0.309-0.538c-0.104-0.181-0.207-0.364-0.315-0.543c-1.341-2.198-2.988-4.19-4.881-5.915
	c-0.009-0.009-0.019-0.018-0.028-0.026c-0.26-0.237-0.528-0.465-0.798-0.691c-0.082-0.069-0.162-0.139-0.245-0.207
	c-0.208-0.17-0.421-0.334-0.635-0.499c-0.158-0.121-0.314-0.244-0.475-0.362c-0.154-0.113-0.312-0.223-0.469-0.333
	c-0.231-0.162-0.464-0.324-0.702-0.48c-0.106-0.069-0.213-0.137-0.32-0.205c-0.294-0.187-0.592-0.371-0.896-0.547
	c-3.987-2.33-8.622-3.671-13.573-3.671c-14.882,0-26.946,12.064-26.946,26.946v15.558l13.473,7.778
	c4.244,2.45,8.876,3.615,13.448,3.615C214.693,104.426,223.751,99.593,228.742,90.949z"/>
<path fill="#FFAB2E" d="M30.411,104.426c-9.313,0-18.37-4.833-23.361-13.478c-7.441-12.888-3.025-29.369,9.863-36.81l87.51-50.524
	c12.888-7.441,29.368-3.026,36.81,9.863c7.441,12.888,3.025,29.369-9.863,36.81l-87.51,50.524
	C39.616,103.261,34.982,104.426,30.411,104.426z"/>
<path fill="#0D561E" d="M131.264,3.558c-0.303-0.173-0.608-0.338-0.915-0.498c-0.115-0.06-0.229-0.12-0.346-0.179
	c-0.251-0.126-0.505-0.246-0.759-0.364c-0.176-0.082-0.352-0.165-0.53-0.242c-0.181-0.08-0.363-0.153-0.544-0.229
	c-0.25-0.104-0.5-0.207-0.753-0.302c-0.099-0.038-0.199-0.072-0.298-0.108c-0.332-0.121-0.665-0.239-1-0.346
	c-0.011-0.003-0.021-0.006-0.031-0.01c-2.444-0.779-4.995-1.209-7.572-1.271c-0.184-0.004-0.367-0.001-0.55-0.001
	c-0.233-0.001-0.465-0.004-0.698,0.001c-0.404,0.01-0.807,0.028-1.209,0.057c-0.013,0-0.026,0.001-0.04,0.002
	c-2.138,0.151-4.248,0.557-6.283,1.204c-0.023,0.007-0.046,0.014-0.069,0.021c-0.327,0.105-0.651,0.22-0.974,0.337
	c-0.108,0.039-0.216,0.076-0.323,0.117c-0.246,0.093-0.488,0.193-0.731,0.293c-0.19,0.079-0.38,0.155-0.569,0.239
	c-0.17,0.075-0.339,0.154-0.508,0.232c-0.261,0.122-0.522,0.245-0.781,0.375c-0.109,0.055-0.217,0.112-0.326,0.168
	c-0.312,0.163-0.624,0.331-0.933,0.508c-4.009,2.288-7.486,5.63-9.96,9.916c-7.441,12.888-3.025,29.369,9.863,36.81l13.473,7.779
	l13.474-7.779c12.888-7.441,17.304-23.921,9.863-36.81C138.756,9.189,135.276,5.845,131.264,3.558z"/>
<path fill="#0D7DA0" d="M30.386,205.471c-14.882,0-26.947-12.064-26.947-26.947V77.475c0-14.882,12.064-26.946,26.947-26.946
	c14.882,0,26.946,12.064,26.946,26.946v101.048C57.332,193.406,45.268,205.471,30.386,205.471z"/>
<path fill="#0D561E" d="M57.332,77.475c0-14.882-12.064-26.946-26.946-26.946c-4.949,0-9.582,1.34-13.567,3.668
	c-0.308,0.179-0.609,0.365-0.908,0.555c-0.103,0.065-0.207,0.13-0.309,0.198c-0.242,0.158-0.478,0.322-0.713,0.487
	c-0.153,0.108-0.308,0.215-0.458,0.326c-0.165,0.121-0.325,0.246-0.487,0.37c-0.209,0.161-0.418,0.322-0.623,0.489
	c-0.088,0.072-0.173,0.146-0.26,0.219c-0.264,0.222-0.527,0.446-0.782,0.678c-0.015,0.014-0.03,0.028-0.045,0.042
	c-1.58,1.441-2.989,3.067-4.19,4.844c-0.01,0.015-0.019,0.03-0.028,0.044c-0.223,0.331-0.439,0.668-0.647,1.009
	c-0.121,0.2-0.235,0.403-0.351,0.605c-0.091,0.158-0.185,0.314-0.272,0.474c-1.24,2.271-2.145,4.704-2.691,7.218v0
	c-0.077,0.354-0.143,0.712-0.206,1.069c-0.016,0.094-0.035,0.187-0.05,0.281c-0.045,0.276-0.082,0.555-0.119,0.833
	c-0.024,0.185-0.05,0.37-0.071,0.556c-0.022,0.203-0.04,0.406-0.058,0.608c-0.023,0.27-0.046,0.539-0.062,0.811
	c-0.008,0.138-0.013,0.276-0.02,0.414c-0.014,0.337-0.024,0.675-0.025,1.016c-0.027,4.622,1.129,9.312,3.607,13.604
	c4.991,8.645,14.048,13.478,23.361,13.478c4.571,0,9.205-1.165,13.448-3.615l13.473-7.779V77.475z"/>
<path fill="#FFAB2E" d="M117.871,256c-4.572,0-9.205-1.165-13.448-3.615l-87.51-50.524c-12.888-7.441-17.304-23.922-9.863-36.81
	c7.441-12.889,23.921-17.305,36.81-9.863l87.51,50.525c12.888,7.441,17.304,23.921,9.863,36.81
	C136.241,251.167,127.183,256,117.871,256z"/>
<path fill="#0D561E" d="M141.232,242.522c7.441-12.889,3.025-29.368-9.863-36.81l-13.474-7.779l-13.473,7.779
	c-12.888,7.441-17.304,23.921-9.863,36.81c2.459,4.26,5.908,7.588,9.886,9.875c0.45,0.259,0.906,0.497,1.363,0.728
	c0.086,0.043,0.17,0.092,0.256,0.134c0.337,0.165,0.68,0.311,1.021,0.461c0.217,0.095,0.43,0.198,0.648,0.287
	c0.089,0.037,0.18,0.065,0.27,0.101c3.141,1.237,6.498,1.889,9.892,1.892c3.406-0.003,6.776-0.658,9.927-1.904
	c0.077-0.03,0.154-0.056,0.23-0.086c0.229-0.094,0.452-0.202,0.679-0.301c0.331-0.146,0.664-0.287,0.992-0.448
	c0.094-0.046,0.186-0.099,0.279-0.146c0.45-0.227,0.898-0.461,1.34-0.716C135.322,250.112,138.772,246.783,141.232,242.522z"/>
<path fill="#0D561E" d="M43.859,155.188c-12.888-7.441-29.368-3.025-36.81,9.863c-2.478,4.292-3.634,8.981-3.607,13.604
	c0.001,0.341,0.011,0.68,0.026,1.018c0.006,0.137,0.011,0.273,0.019,0.409c0.016,0.274,0.039,0.547,0.062,0.818
	c0.018,0.2,0.035,0.4,0.057,0.6c0.021,0.19,0.047,0.378,0.072,0.566c0.037,0.274,0.073,0.549,0.118,0.822
	c0.016,0.099,0.035,0.195,0.052,0.293c0.062,0.354,0.127,0.707,0.204,1.058c0.001,0.005,0.002,0.009,0.003,0.014
	c0.547,2.51,1.45,4.938,2.687,7.205c0.094,0.172,0.195,0.34,0.293,0.509c0.109,0.191,0.217,0.384,0.332,0.572
	c0.214,0.351,0.435,0.696,0.665,1.037c0.003,0.005,0.007,0.011,0.011,0.017c1.204,1.782,2.617,3.412,4.201,4.855
	c0.011,0.01,0.021,0.02,0.032,0.029c0.26,0.236,0.528,0.465,0.797,0.691c0.082,0.067,0.161,0.138,0.244,0.205
	c0.209,0.171,0.423,0.336,0.638,0.501c0.156,0.12,0.312,0.241,0.471,0.358c0.156,0.114,0.315,0.225,0.473,0.337
	c0.23,0.161,0.461,0.321,0.697,0.477c0.107,0.07,0.216,0.139,0.325,0.208c0.292,0.186,0.588,0.368,0.89,0.544
	c3.987,2.331,8.624,3.673,13.576,3.673c14.882,0,26.946-12.064,26.946-26.947v-15.557L43.859,155.188z"/>
<path fill="#0D7DA0" d="M-795.53-71.016c-9.313,0-18.37-4.833-23.361-13.478c-7.441-12.888-3.025-29.368,9.863-36.81l87.51-50.525
	c12.889-7.441,29.369-3.025,36.81,9.862c7.441,12.888,3.025,29.369-9.863,36.81l-87.51,50.525
	C-786.325-72.181-790.959-71.016-795.53-71.016z"/>
<path fill="#FFAB2E" d="M-708.045-121.545c-14.882,0-26.946-12.064-26.946-26.946v-101.049c0-14.882,12.064-26.946,26.946-26.946
	c14.882,0,26.946,12.064,26.946,26.946v101.049C-681.099-133.609-693.163-121.545-708.045-121.545z"/>
<path fill="#0D7DA0" d="M-708.07-222.589c-4.572,0-9.205-1.165-13.448-3.615l-87.51-50.524c-12.888-7.441-17.304-23.921-9.863-36.81
	c7.441-12.888,23.921-17.304,36.81-9.863l87.51,50.525c12.888,7.441,17.304,23.921,9.863,36.81
	C-689.7-227.423-698.758-222.589-708.07-222.589z"/>
<path fill="#FFAB2E" d="M-883.041-222.589c-9.313,0-18.37-4.833-23.361-13.478c-7.441-12.889-3.025-29.369,9.863-36.81l87.51-50.525
	c12.888-7.44,29.369-3.025,36.81,9.863s3.025,29.368-9.863,36.81l-87.51,50.524C-873.835-223.754-878.469-222.589-883.041-222.589z"
	/>
<path fill="#0D7DA0" d="M-883.066-121.545c-14.882,0-26.946-12.064-26.946-26.946v-101.049c0-14.882,12.064-26.946,26.946-26.946
	c14.882,0,26.947,12.064,26.947,26.946v101.049C-856.119-133.609-868.184-121.545-883.066-121.545z"/>
<path fill="#FFAB2E" d="M-795.581-71.016c-4.572,0-9.205-1.165-13.448-3.615l-87.51-50.525c-12.888-7.441-17.304-23.922-9.863-36.81
	c7.441-12.888,23.921-17.304,36.81-9.862l87.51,50.525c12.888,7.441,17.304,23.921,9.863,36.81
	C-777.21-75.849-786.269-71.016-795.581-71.016z"/>
<path fill="#0D7DA0" d="M337.904,127.906h-29.911l-5.76,12.328c-1.111,2.021-2.526,3.334-5.153,3.334
	c-3.638,0-5.861-2.83-5.861-5.76c0-0.809,0.202-1.616,0.606-2.425l25.869-57.497c0.91-2.021,2.627-3.233,5.254-3.233
	c2.627,0,4.345,1.111,5.255,3.233l25.869,57.497c0.404,0.809,0.606,1.616,0.606,2.425c0,2.93-2.223,5.76-5.861,5.76
	c-2.627,0-4.042-1.213-5.153-3.334L337.904,127.906z M322.949,91.427l-10.509,25.667h21.018L322.949,91.427z"/>
<path fill="#0D7DA0" d="M389.741,87.083h-17.279v50.22c0,3.436-2.83,6.266-6.266,6.266c-3.435,0-6.062-2.83-6.062-6.266v-50.22
	h-17.38c-3.233,0-5.861-2.627-5.861-5.76c0-3.233,2.526-5.861,5.861-5.861h46.988c3.234,0,5.861,2.627,5.861,5.861
	C395.602,84.455,393.075,87.083,389.741,87.083z"/>
<path fill="#0D7DA0" d="M404.473,142.76c-3.436,0-6.266-2.828-6.266-6.265V80.918c0-3.436,2.83-6.265,6.266-6.265
	s6.062,2.829,6.062,6.265v50.221h29.506c3.133,0,5.76,2.526,5.76,5.76s-2.627,5.759-5.76,5.86H404.473z"/>
<path fill="#0D7DA0" d="M495.012,127.906h-29.91l-5.762,12.328c-1.111,2.021-2.525,3.334-5.152,3.334
	c-3.639,0-5.861-2.83-5.861-5.76c0-0.809,0.203-1.616,0.607-2.425l25.867-57.497c0.91-2.021,2.627-3.233,5.256-3.233
	c2.627,0,4.344,1.111,5.254,3.233l25.869,57.497c0.404,0.809,0.605,1.616,0.605,2.425c0,2.93-2.223,5.76-5.861,5.76
	c-2.627,0-4.041-1.213-5.152-3.334L495.012,127.906z M480.057,91.427l-10.51,25.667h21.018L480.057,91.427z"/>
<path fill="#0D7DA0" d="M540.018,143.973c-8.186,0-17.482-2.525-23.344-7.073c-2.02-1.616-3.436-3.638-3.436-5.86
	c0-3.133,2.021-5.255,5.154-5.255c1.111,0,2.121,0.303,3.133,0.909c5.457,3.436,9.195,6.467,18.693,6.467
	c9.701,0,13.541-3.94,13.541-8.488c0-4.951-3.941-7.478-16.066-10.711c-18.291-4.851-23.746-10.711-23.746-20.816
	c0-12.328,10.609-18.896,26.676-18.896c3.639,0,8.59,0.606,12.934,1.819c4.648,1.313,10.51,4.244,10.51,8.286
	c0,2.729-1.617,5.558-5.053,5.558c-0.809,0-1.615-0.101-2.424-0.505c-4.648-2.122-9.5-4.244-15.865-4.244
	c-8.994,0-14.451,2.425-14.451,7.68c0,4.951,4.043,6.669,16.168,10.206c13.844,4.042,23.646,7.983,23.646,20.917
	C566.088,135.688,557.196,143.973,540.018,143.973z"/>
</svg>
