<svg xmlns="http://www.w3.org/2000/svg" viewBox="0 0 2692.36 950"><defs><style>.a{isolation:isolate;}.b,.p,.q{fill:none;}.b{stroke:#71c7e6;stroke-linecap:square;stroke-miterlimit:10;stroke-width:0.25px;}.c{fill:#622268;}.d{font-size:375px;fill:#7759b5;font-family:BryantPro-Bold, Bryant Pro;font-weight:700;letter-spacing:-0.23em;}.e{letter-spacing:-0.07em;}.f{letter-spacing:-0.03em;}.g{letter-spacing:-0.07em;}.h{letter-spacing:-0.05em;}.i{font-size:376.69px;fill:#d16293;letter-spacing:-0.07em;}.j{letter-spacing:-0.07em;}.k{letter-spacing:-0.07em;}.l{letter-spacing:-0.07em;}.m{letter-spacing:-0.08em;}.n{letter-spacing:-0.08em;}.o{letter-spacing:-0.05em;}.p{stroke:#d16293;}.p,.q{stroke-linecap:round;stroke-linejoin:round;stroke-width:200px;mix-blend-mode:multiply;}.q{stroke:#7759b5;}</style></defs><title>atlas-enterics-logo copy</title><g class="a"><circle class="b" cx="475.24" cy="475" r="225"/><circle class="b" cx="475.24" cy="475" r="85"/><circle class="b" cx="1105.24" cy="265" r="15"/><rect class="b" x="1120.24" y="140" width="110" height="110"/><circle class="b" cx="1245.24" cy="265" r="15"/><rect class="b" x="1260.24" y="140" width="110" height="110"/><circle class="b" cx="1385.24" cy="265" r="15"/><rect class="b" x="1400.24" y="140" width="110" height="110"/><circle class="b" cx="1525.24" cy="265" r="15"/><rect class="b" x="1540.24" y="140" width="110" height="110"/><circle class="b" cx="1105.24" cy="125" r="15"/><rect class="b" x="1120.24" width="110" height="110"/><circle class="b" cx="1245.24" cy="125" r="15"/><rect class="b" x="1260.24" width="110" height="110"/><circle class="b" cx="1385.24" cy="125" r="15"/><rect class="b" x="1400.24" width="110" height="110"/><circle class="b" cx="1525.24" cy="125" r="15"/><rect class="b" x="1540.24" width="110" height="110"/><circle class="b" cx="1105.24" cy="405" r="15"/><rect class="b" x="1120.24" y="280" width="110" height="110"/><circle class="b" cx="1245.24" cy="405" r="15"/><rect class="b" x="1260.24" y="280" width="110" height="110"/><circle class="b" cx="1385.24" cy="405" r="15"/><rect class="b" x="1400.24" y="280" width="110" height="110"/><circle class="b" cx="1525.24" cy="405" r="15"/><rect class="b" x="1540.24" y="280" width="110" height="110"/><circle class="b" cx="1105.24" cy="545" r="15"/><rect class="b" x="1120.24" y="420" width="110" height="110"/><circle class="b" cx="1245.24" cy="545" r="15"/><rect class="b" x="1260.24" y="420" width="110" height="110"/><circle class="b" cx="1385.24" cy="545" r="15"/><rect class="b" x="1400.24" y="420" width="110" height="110"/><circle class="b" cx="1525.24" cy="545" r="15"/><rect class="b" x="1540.24" y="420" width="110" height="110"/><circle class="b" cx="1105.24" cy="685" r="15"/><rect class="b" x="1120.24" y="560" width="110" height="110"/><circle class="b" cx="1245.24" cy="685" r="15"/><rect class="b" x="1260.24" y="560" width="110" height="110"/><circle class="b" cx="1385.24" cy="685" r="15"/><rect class="b" x="1400.24" y="560" width="110" height="110"/><circle class="b" cx="1525.24" cy="685" r="15"/><rect class="b" x="1540.24" y="560" width="110" height="110"/><circle class="b" cx="1105.24" cy="825" r="15"/><rect class="b" x="1120.24" y="700" width="110" height="110"/><circle class="b" cx="1245.24" cy="825" r="15"/><rect class="b" x="1260.24" y="700" width="110" height="110"/><circle class="b" cx="1385.24" cy="825" r="15"/><rect class="b" x="1400.24" y="700" width="110" height="110"/><circle class="b" cx="1525.24" cy="825" r="15"/><rect class="b" x="1540.24" y="700" width="110" height="110"/><rect class="b" x="1120.24" y="840" width="110" height="110"/><rect class="b" x="1260.24" y="840" width="110" height="110"/><rect class="b" x="1400.24" y="840" width="110" height="110"/><rect class="b" x="1540.24" y="840" width="110" height="110"/><circle class="b" cx="545.24" cy="265" r="15"/><rect class="b" x="560.24" y="140" width="110" height="110"/><circle class="b" cx="685.24" cy="265" r="15"/><rect class="b" x="700.24" y="140" width="110" height="110"/><circle class="b" cx="825.24" cy="265" r="15"/><rect class="b" x="840.24" y="140" width="110" height="110"/><circle class="b" cx="965.24" cy="265" r="15"/><rect class="b" x="980.24" y="140" width="110" height="110"/><circle class="b" cx="545.24" cy="125" r="15"/><rect class="b" x="560.24" width="110" height="110"/><circle class="b" cx="685.24" cy="125" r="15"/><rect class="b" x="700.24" width="110" height="110"/><circle class="b" cx="825.24" cy="125" r="15"/><rect class="b" x="840.24" width="110" height="110"/><circle class="b" cx="965.24" cy="125" r="15"/><rect class="b" x="980.24" width="110" height="110"/><circle class="b" cx="545.24" cy="405" r="15"/><rect class="b" x="560.24" y="280" width="110" height="110"/><circle class="b" cx="685.24" cy="405" r="15"/><rect class="b" x="700.24" y="280" width="110" height="110"/><circle class="b" cx="825.24" cy="405" r="15"/><rect class="b" x="840.24" y="280" width="110" height="110"/><circle class="b" cx="965.24" cy="405" r="15"/><rect class="b" x="980.24" y="280" width="110" height="110"/><circle class="b" cx="545.24" cy="545" r="15"/><rect class="b" x="560.24" y="420" width="110" height="110"/><circle class="b" cx="685.24" cy="545" r="15"/><rect class="b" x="700.24" y="420" width="110" height="110"/><circle class="b" cx="825.24" cy="545" r="15"/><rect class="b" x="840.24" y="420" width="110" height="110"/><circle class="b" cx="965.24" cy="545" r="15"/><rect class="b" x="980.24" y="420" width="110" height="110"/><circle class="b" cx="545.24" cy="685" r="15"/><rect class="b" x="560.24" y="560" width="110" height="110"/><circle class="b" cx="685.24" cy="685" r="15"/><rect class="b" x="700.24" y="560" width="110" height="110"/><circle class="b" cx="825.24" cy="685" r="15"/><rect class="b" x="840.24" y="560" width="110" height="110"/><circle class="b" cx="965.24" cy="685" r="15"/><rect class="b" x="980.24" y="560" width="110" height="110"/><circle class="b" cx="545.24" cy="825" r="15"/><rect class="b" x="560.24" y="700" width="110" height="110"/><circle class="b" cx="685.24" cy="825" r="15"/><rect class="b" x="700.24" y="700" width="110" height="110"/><circle class="b" cx="825.24" cy="825" r="15"/><rect class="b" x="840.24" y="700" width="110" height="110"/><circle class="b" cx="965.24" cy="825" r="15"/><rect class="b" x="980.24" y="700" width="110" height="110"/><rect class="b" x="560.24" y="840" width="110" height="110"/><rect class="b" x="700.24" y="840" width="110" height="110"/><rect class="b" x="840.24" y="840" width="110" height="110"/><rect class="b" x="980.24" y="840" width="110" height="110"/><rect class="b" x="0.24" y="140" width="110" height="110"/><circle class="b" cx="125.24" cy="265" r="15"/><rect class="b" x="140.24" y="140" width="110" height="110"/><circle class="b" cx="265.24" cy="265" r="15"/><rect class="b" x="280.24" y="140" width="110" height="110"/><circle class="b" cx="405.24" cy="265" r="15"/><rect class="b" x="420.24" y="140" width="110" height="110"/><rect class="b" x="0.24" width="110" height="110"/><circle class="b" cx="125.24" cy="125" r="15"/><rect class="b" x="140.24" width="110" height="110"/><circle class="b" cx="265.24" cy="125" r="15"/><rect class="b" x="280.24" width="110" height="110"/><circle class="b" cx="405.24" cy="125" r="15"/><rect class="b" x="420.24" width="110" height="110"/><rect class="b" x="0.24" y="280" width="110" height="110"/><circle class="b" cx="125.24" cy="405" r="15"/><rect class="b" x="140.24" y="280" width="110" height="110"/><circle class="b" cx="265.24" cy="405" r="15"/><rect class="b" x="280.24" y="280" width="110" height="110"/><circle class="b" cx="405.24" cy="405" r="15"/><rect class="b" x="420.24" y="280" width="110" height="110"/><rect class="b" x="0.24" y="420" width="110" height="110"/><circle class="b" cx="125.24" cy="545" r="15"/><rect class="b" x="140.24" y="420" width="110" height="110"/><circle class="b" cx="265.24" cy="545" r="15"/><rect class="b" x="280.24" y="420" width="110" height="110"/><circle class="b" cx="405.24" cy="545" r="15"/><rect class="b" x="420.24" y="420" width="110" height="110"/><rect class="b" x="0.24" y="560" width="110" height="110"/><circle class="b" cx="125.24" cy="685" r="15"/><rect class="b" x="140.24" y="560" width="110" height="110"/><circle class="b" cx="265.24" cy="685" r="15"/><rect class="b" x="280.24" y="560" width="110" height="110"/><circle class="b" cx="405.24" cy="685" r="15"/><rect class="b" x="420.24" y="560" width="110" height="110"/><rect class="b" x="0.24" y="700" width="110" height="110"/><circle class="b" cx="125.24" cy="825" r="15"/><rect class="b" x="140.24" y="700" width="110" height="110"/><circle class="b" cx="265.24" cy="825" r="15"/><rect class="b" x="280.24" y="700" width="110" height="110"/><circle class="b" cx="405.24" cy="825" r="15"/><rect class="b" x="420.24" y="700" width="110" height="110"/><rect class="b" x="0.24" y="840" width="110" height="110"/><rect class="b" x="140.24" y="840" width="110" height="110"/><rect class="b" x="280.24" y="840" width="110" height="110"/><rect class="b" x="420.24" y="840" width="110" height="110"/><circle class="b" cx="2645.24" cy="265" r="15"/><rect class="b" x="2660.24" y="140" width="110" height="110"/><circle class="b" cx="2645.24" cy="125" r="15"/><rect class="b" x="2660.24" width="110" height="110"/><circle class="b" cx="2645.24" cy="405" r="15"/><rect class="b" x="2660.24" y="280" width="110" height="110"/><circle class="b" cx="2645.24" cy="545" r="15"/><rect class="b" x="2660.24" y="420" width="110" height="110"/><circle class="b" cx="2645.24" cy="685" r="15"/><rect class="b" x="2660.24" y="560" width="110" height="110"/><circle class="b" cx="2645.24" cy="825" r="15"/><rect class="b" x="2660.24" y="700" width="110" height="110"/><rect class="b" x="2660.24" y="840" width="110" height="110"/><circle class="b" cx="2085.24" cy="265" r="15"/><rect class="b" x="2100.24" y="140" width="110" height="110"/><circle class="b" cx="2225.24" cy="265" r="15"/><rect class="b" x="2240.24" y="140" width="110" height="110"/><circle class="b" cx="2365.24" cy="265" r="15"/><rect class="b" x="2380.24" y="140" width="110" height="110"/><circle class="b" cx="2505.24" cy="265" r="15"/><rect class="b" x="2520.24" y="140" width="110" height="110"/><circle class="b" cx="2085.24" cy="125" r="15"/><rect class="b" x="2100.24" width="110" height="110"/><circle class="b" cx="2225.24" cy="125" r="15"/><rect class="b" x="2240.24" width="110" height="110"/><circle class="b" cx="2365.24" cy="125" r="15"/><rect class="b" x="2380.24" width="110" height="110"/><circle class="b" cx="2505.24" cy="125" r="15"/><rect class="b" x="2520.24" width="110" height="110"/><circle class="b" cx="2085.24" cy="405" r="15"/><rect class="b" x="2100.24" y="280" width="110" height="110"/><circle class="b" cx="2225.24" cy="405" r="15"/><rect class="b" x="2240.24" y="280" width="110" height="110"/><circle class="b" cx="2365.24" cy="405" r="15"/><rect class="b" x="2380.24" y="280" width="110" height="110"/><circle class="b" cx="2505.24" cy="405" r="15"/><rect class="b" x="2520.24" y="280" width="110" height="110"/><circle class="b" cx="2085.24" cy="545" r="15"/><rect class="b" x="2100.24" y="420" width="110" height="110"/><circle class="b" cx="2225.24" cy="545" r="15"/><rect class="b" x="2240.24" y="420" width="110" height="110"/><circle class="b" cx="2365.24" cy="545" r="15"/><rect class="b" x="2380.24" y="420" width="110" height="110"/><circle class="b" cx="2505.24" cy="545" r="15"/><rect class="b" x="2520.24" y="420" width="110" height="110"/><circle class="b" cx="2085.24" cy="685" r="15"/><rect class="b" x="2100.24" y="560" width="110" height="110"/><circle class="b" cx="2225.24" cy="685" r="15"/><rect class="b" x="2240.24" y="560" width="110" height="110"/><circle class="b" cx="2365.24" cy="685" r="15"/><rect class="b" x="2380.24" y="560" width="110" height="110"/><circle class="b" cx="2505.24" cy="685" r="15"/><rect class="b" x="2520.24" y="560" width="110" height="110"/><circle class="b" cx="2085.24" cy="825" r="15"/><rect class="b" x="2100.24" y="700" width="110" height="110"/><circle class="b" cx="2225.24" cy="825" r="15"/><rect class="b" x="2240.24" y="700" width="110" height="110"/><circle class="b" cx="2365.24" cy="825" r="15"/><rect class="b" x="2380.24" y="700" width="110" height="110"/><circle class="b" cx="2505.24" cy="825" r="15"/><rect class="b" x="2520.24" y="700" width="110" height="110"/><rect class="b" x="2100.24" y="840" width="110" height="110"/><rect class="b" x="2240.24" y="840" width="110" height="110"/><rect class="b" x="2380.24" y="840" width="110" height="110"/><rect class="b" x="2520.24" y="840" width="110" height="110"/><circle class="b" cx="1665.24" cy="265" r="15"/><rect class="b" x="1680.24" y="140" width="110" height="110"/><circle class="b" cx="1805.24" cy="265" r="15"/><rect class="b" x="1820.24" y="140" width="110" height="110"/><circle class="b" cx="1945.24" cy="265" r="15"/><rect class="b" x="1960.24" y="140" width="110" height="110"/><circle class="b" cx="1665.24" cy="125" r="15"/><rect class="b" x="1680.24" width="110" height="110"/><circle class="b" cx="1805.24" cy="125" r="15"/><rect class="b" x="1820.24" width="110" height="110"/><circle class="b" cx="1945.24" cy="125" r="15"/><rect class="b" x="1960.24" width="110" height="110"/><circle class="b" cx="1665.24" cy="405" r="15"/><rect class="b" x="1680.24" y="280" width="110" height="110"/><circle class="b" cx="1805.24" cy="405" r="15"/><rect class="b" x="1820.24" y="280" width="110" height="110"/><circle class="b" cx="1945.24" cy="405" r="15"/><rect class="b" x="1960.24" y="280" width="110" height="110"/><circle class="b" cx="1665.24" cy="545" r="15"/><rect class="b" x="1680.24" y="420" width="110" height="110"/><circle class="b" cx="1805.24" cy="545" r="15"/><rect class="b" x="1820.24" y="420" width="110" height="110"/><circle class="b" cx="1945.24" cy="545" r="15"/><rect class="b" x="1960.24" y="420" width="110" height="110"/><circle class="b" cx="1665.24" cy="685" r="15"/><rect class="b" x="1680.24" y="560" width="110" height="110"/><circle class="b" cx="1805.24" cy="685" r="15"/><rect class="b" x="1820.24" y="560" width="110" height="110"/><circle class="b" cx="1945.24" cy="685" r="15"/><rect class="b" x="1960.24" y="560" width="110" height="110"/><circle class="b" cx="1665.24" cy="825" r="15"/><rect class="b" x="1680.24" y="700" width="110" height="110"/><circle class="b" cx="1805.24" cy="825" r="15"/><rect class="b" x="1820.24" y="700" width="110" height="110"/><circle class="b" cx="1945.24" cy="825" r="15"/><rect class="b" x="1960.24" y="700" width="110" height="110"/><rect class="b" x="1680.24" y="840" width="110" height="110"/><rect class="b" x="1820.24" y="840" width="110" height="110"/><rect class="b" x="1960.24" y="840" width="110" height="110"/><circle class="b" cx="475.24" cy="475" r="475"/><path class="c" d="M1700.24,140.05a15,15,0,0,0-15,15v80a15,15,0,0,0,30,0v-80A15,15,0,0,0,1700.24,140.05Z"/><path class="c" d="M1775.24,212.55a27.5,27.5,0,0,0-27.5-27.5h-37.5a10,10,0,0,0,0,20h27.5a7.5,7.5,0,0,1,0,15h-37.5a15,15,0,0,0,0,30h37.5a37.5,37.5,0,0,0,37.5-37.5"/><path class="c" d="M1730.24,205.05a10,10,0,0,1,0-20h2.5a7.5,7.5,0,0,0,0-15h-32.5a15,15,0,0,1,0-30h32.5a32.5,32.5,0,0,1,0,65h-2.5"/><path class="c" d="M1380.24,250a15,15,0,0,1-15-15V155a15,15,0,0,1,30,0v80A15,15,0,0,1,1380.24,250Z"/><path class="c" d="M1135.24,250a15,15,0,0,1-14-20.27l30-80a15,15,0,1,1,28.09,10.53l-30,80A15,15,0,0,1,1135.24,250Z"/><path class="c" d="M1255.24,250a15,15,0,0,1-14-9.74l-30-80a15,15,0,1,1,28.09-10.53l30,80a15,15,0,0,1-14,20.27Z"/><path class="c" d="M1195.24,250a15,15,0,0,1-14-20.27l30-80a15,15,0,1,1,28.09,10.53l-30,80A15,15,0,0,1,1195.24,250Z"/><path class="c" d="M1195.24,250a15,15,0,0,1-14-9.74l-30-80a15,15,0,1,1,28.09-10.53l30,80a15,15,0,0,1-14,20.27Z"/><path class="c" d="M1305.24,250a15,15,0,0,1-15-15V200.05a15,15,0,0,1,3.16-9.2l35-45a15,15,0,1,1,23.69,18.41l-31.85,41V235A15,15,0,0,1,1305.24,250Z"/><path class="c" d="M1384.64,225.66A15,15,0,0,1,1374,200.05l55.61-55.65a15,15,0,0,1,21.21,21.21l-55.61,55.65A15,15,0,0,1,1384.64,225.66Z"/><path class="c" d="M1440.26,250a15,15,0,0,1-12.88-7.29l-24-40a15,15,0,1,1,25.72-15.43l24,40A15,15,0,0,1,1440.26,250Z"/><path class="c" d="M1480.24,250a15,15,0,0,1-15-15V155a15,15,0,0,1,30,0v80A15,15,0,0,1,1480.24,250Z"/><path class="c" d="M1620.22,250a55,55,0,0,1-38.89-93.87,15,15,0,0,1,21.21,21.22,25,25,0,0,0,35.35,35.35,15,15,0,0,1,21.22,21.21A54.82,54.82,0,0,1,1620.22,250Z"/><path class="c" d="M1648.5,238.29a15,15,0,0,1-10.61-25.61,25,25,0,1,0-35.35-35.35,15,15,0,1,1-21.21-21.22,55,55,0,0,1,77.78,77.78A15,15,0,0,1,1648.5,238.29Z"/><path class="c" d="M1860.24,170.05h-60a15,15,0,0,1,0-30h60a15,15,0,0,1,0,30Z"/><path class="c" d="M1860.24,250.05h-60a15,15,0,0,1,0-30h60a15,15,0,0,1,0,30Z"/><path class="c" d="M1800.24,250a15,15,0,0,1-15-15V155a15,15,0,0,1,30,0v80A15,15,0,0,1,1800.24,250Z"/><path class="c" d="M1515.24,220h-20a15,15,0,0,1,0-30h20a10,10,0,0,0,0-20h-35a15,15,0,0,1,0-30h35a40,40,0,0,1,0,80Z"/><path class="c" d="M1540.26,250a15,15,0,0,1-12.88-7.29L1513.75,220a15,15,0,1,1,25.72-15.43l13.63,22.72A15,15,0,0,1,1540.26,250Z"/><path class="c" d="M1305.25,215.05a15,15,0,0,1-11.85-5.8l-35-45a15,15,0,0,1,23.69-18.41l35,45a15,15,0,0,1-11.84,24.2Z"/><path class="c" d="M1840.24,210h-25a15,15,0,0,1,0-30h25a15,15,0,0,1,0,30Z"/><text class="d" transform="translate(1105.24 530)">A<tspan class="e" x="174.37" y="0">T</tspan><tspan class="f" x="379.41" y="0">L</tspan><tspan class="g" x="583.04" y="0">A</tspan><tspan class="h" x="815.68" y="0">S</tspan><tspan class="i"><tspan x="-15" y="292.98">E</tspan><tspan class="j" x="186.3" y="292.98">N</tspan><tspan class="k" x="430.39" y="292.98">T</tspan><tspan class="l" x="636.36" y="292.98">E</tspan><tspan class="m" x="836.57" y="292.98">R</tspan><tspan class="n" x="1064.85" y="292.98">I</tspan><tspan class="k" x="1143.57" y="292.98">C</tspan><tspan class="o" x="1366.87" y="292.98">S</tspan></tspan></text><line class="p" x1="100" y1="474.99" x2="850" y2="474.99"/><line class="q" x1="287.51" y1="799.76" x2="662.49" y2="150.24"/><line class="q" x1="662.51" y1="799.75" x2="287.48" y2="150.24"/></g></svg>