<svg xmlns="http://www.w3.org/2000/svg" viewBox="0 0 2639.11 950"><defs><style>.a{isolation:isolate;}.b{fill:#483963;}.c,.f{fill:#7759b5;}.d,.e{fill:#9ba38b;}.e,.f{mix-blend-mode:multiply;}</style></defs><title>atlas-s-aureus-logo</title><g class="a"><path class="b" d="M1662.52,140.05a15,15,0,0,0-15,15v80a15,15,0,0,0,30,0v-80A15,15,0,0,0,1662.52,140.05Z"/><path class="b" d="M1737.52,212.55a27.5,27.5,0,0,0-27.5-27.5h-37.5a10,10,0,0,0,0,20H1700a7.5,7.5,0,0,1,0,15h-37.5a15,15,0,0,0,0,30H1700a37.5,37.5,0,0,0,37.5-37.5"/><path class="b" d="M1692.52,205.05a10,10,0,0,1,0-20h2.5a7.5,7.5,0,0,0,0-15h-32.5a15,15,0,0,1,0-30H1695a32.5,32.5,0,0,1,0,65h-2.5"/><path class="b" d="M1342.52,250a15,15,0,0,1-15-15V155a15,15,0,0,1,30,0v80A15,15,0,0,1,1342.52,250Z"/><path class="b" d="M1097.52,250a15,15,0,0,1-14-20.27l30-80a15,15,0,1,1,28.09,10.53l-30,80A15,15,0,0,1,1097.52,250Z"/><path class="b" d="M1217.52,250a15,15,0,0,1-14-9.74l-30-80a15,15,0,1,1,28.09-10.53l30,80a15,15,0,0,1-14,20.27Z"/><path class="b" d="M1157.52,250a15,15,0,0,1-14-20.27l30-80a15,15,0,1,1,28.09,10.53l-30,80A15,15,0,0,1,1157.52,250Z"/><path class="b" d="M1157.52,250a15,15,0,0,1-14-9.74l-30-80a15,15,0,1,1,28.09-10.53l30,80a15,15,0,0,1-14,20.27Z"/><path class="b" d="M1267.52,250a15,15,0,0,1-15-15V200.05a15,15,0,0,1,3.16-9.2l35-45a15,15,0,1,1,23.68,18.41l-31.84,41V235A15,15,0,0,1,1267.52,250Z"/><path class="b" d="M1346.91,225.66a15,15,0,0,1-10.6-25.61l55.6-55.65a15,15,0,0,1,21.22,21.21l-55.61,55.65A15,15,0,0,1,1346.91,225.66Z"/><path class="b" d="M1402.53,250a15,15,0,0,1-12.87-7.29l-24-40a15,15,0,0,1,25.73-15.43l24,40A15,15,0,0,1,1402.53,250Z"/><path class="b" d="M1442.52,250a15,15,0,0,1-15-15V155a15,15,0,0,1,30,0v80A15,15,0,0,1,1442.52,250Z"/><path class="b" d="M1582.49,250a55,55,0,0,1-38.89-93.87,15,15,0,1,1,21.22,21.22,25,25,0,1,0,35.35,35.35,15,15,0,0,1,21.21,21.21A54.79,54.79,0,0,1,1582.49,250Z"/><path class="b" d="M1610.78,238.29a15,15,0,0,1-10.61-25.61,25,25,0,0,0-35.35-35.35,15,15,0,0,1-21.22-21.22,55,55,0,1,1,77.78,77.78A14.92,14.92,0,0,1,1610.78,238.29Z"/><path class="b" d="M1822.52,170.05h-60a15,15,0,0,1,0-30h60a15,15,0,0,1,0,30Z"/><path class="b" d="M1822.52,250.05h-60a15,15,0,0,1,0-30h60a15,15,0,0,1,0,30Z"/><path class="b" d="M1762.52,250a15,15,0,0,1-15-15V155a15,15,0,0,1,30,0v80A15,15,0,0,1,1762.52,250Z"/><path class="b" d="M1477.52,220h-20a15,15,0,0,1,0-30h20a10,10,0,0,0,0-20h-35a15,15,0,0,1,0-30h35a40,40,0,0,1,0,80Z"/><path class="b" d="M1502.53,250a15,15,0,0,1-12.87-7.29L1476,220a15,15,0,1,1,25.72-15.43l13.63,22.72A15,15,0,0,1,1502.53,250Z"/><path class="b" d="M1267.53,215.05a15,15,0,0,1-11.85-5.8l-35-45a15,15,0,1,1,23.68-18.41l35,45a15,15,0,0,1-11.83,24.2Z"/><path class="b" d="M1802.52,210h-25a15,15,0,0,1,0-30h25a15,15,0,0,1,0,30Z"/><path class="c" d="M1253.14,474.88h-111l-21.37,45.74c-4.13,7.5-9.38,12.38-19.13,12.38a21.2,21.2,0,0,1-21.75-21.38,20,20,0,0,1,2.25-9l96-213.37c3.38-7.5,9.75-12,19.5-12s16.13,4.13,19.5,12l96,213.37a20,20,0,0,1,2.25,9A21.2,21.2,0,0,1,1293.64,533c-9.75,0-15-4.5-19.12-12.38Zm-55.5-135.38-39,95.25h78Z"/><path class="c" d="M1445.51,323.38h-64.12V509.75A23.37,23.37,0,0,1,1358.14,533c-12.75,0-22.5-10.5-22.5-23.25V323.38h-64.5a21.57,21.57,0,1,1,0-43.13h174.37A21.77,21.77,0,0,1,1467.26,302,21.45,21.45,0,0,1,1445.51,323.38Z"/><path class="c" d="M1500.18,530a23.37,23.37,0,0,1-23.25-23.25V300.5a23.37,23.37,0,0,1,23.25-23.25c12.75,0,22.5,10.5,22.5,23.25V486.88h109.5a21.36,21.36,0,0,1,21.38,21.37A21.94,21.94,0,0,1,1632.18,530Z"/><path class="c" d="M1836.18,474.88h-111l-21.37,45.74c-4.13,7.5-9.38,12.38-19.13,12.38a21.2,21.2,0,0,1-21.75-21.38,20,20,0,0,1,2.25-9l96-213.37c3.38-7.5,9.75-12,19.5-12s16.13,4.13,19.5,12l96,213.37a20,20,0,0,1,2.25,9A21.2,21.2,0,0,1,1876.68,533c-9.75,0-15-4.5-19.12-12.38Zm-55.5-135.38-39,95.25h78Z"/><path class="c" d="M2003.2,534.5c-30.38,0-64.88-9.38-86.63-26.25-7.5-6-12.75-13.5-12.75-21.75,0-11.62,7.5-19.5,19.13-19.5a21.89,21.89,0,0,1,11.62,3.38c20.25,12.74,34.13,24,69.38,24,36,0,50.25-14.63,50.25-31.5,0-18.38-14.63-27.76-59.63-39.76-67.87-18-88.12-39.74-88.12-77.24,0-45.76,39.37-70.13,99-70.13a191.78,191.78,0,0,1,48,6.75c17.25,4.88,39,15.75,39,30.75,0,10.13-6,20.63-18.75,20.63a19.45,19.45,0,0,1-9-1.88c-17.25-7.88-35.25-15.75-58.88-15.75-33.37,0-53.62,9-53.62,28.5,0,18.37,15,24.75,60,37.87,51.37,15,87.75,29.63,87.75,77.63C2100,503.75,2067,534.5,2003.2,534.5Z"/><path class="d" d="M1172.52,814.5c-30.38,0-64.88-9.38-86.63-26.25-7.5-6-12.75-13.5-12.75-21.75,0-11.62,7.5-19.5,19.13-19.5a21.89,21.89,0,0,1,11.62,3.38c20.25,12.74,34.13,24,69.38,24,36,0,50.25-14.63,50.25-31.5,0-18.38-14.63-27.76-59.63-39.76-67.87-18-88.12-39.74-88.12-77.24,0-45.76,39.37-70.13,99-70.13a191.78,191.78,0,0,1,48,6.75c17.25,4.88,39,15.75,39,30.75,0,10.13-6,20.63-18.75,20.63a19.45,19.45,0,0,1-9-1.88c-17.25-7.88-35.25-15.75-58.88-15.75-33.37,0-53.62,9-53.62,28.5,0,18.37,15,24.75,60,37.87,51.37,15,87.75,29.63,87.75,77.63C1269.27,783.75,1236.27,814.5,1172.52,814.5Z"/><path class="d" d="M1297,812.62a25.6,25.6,0,0,1-25.5-25.87,25.29,25.29,0,0,1,25.5-25.5,25.6,25.6,0,0,1,25.87,25.5A25.92,25.92,0,0,1,1297,812.62Z"/><path class="d" d="M1510,754.88H1399l-21.37,45.74c-4.13,7.5-9.38,12.38-19.13,12.38a21.2,21.2,0,0,1-21.75-21.38,20,20,0,0,1,2.25-9l96-213.37c3.38-7.5,9.75-12,19.5-12s16.13,4.13,19.5,12l96,213.37a20,20,0,0,1,2.25,9A21.2,21.2,0,0,1,1550.51,813c-9.75,0-15-4.5-19.12-12.38Zm-55.5-135.38-39,95.25h78Z"/><path class="d" d="M1734.63,580.5a22.88,22.88,0,1,1,45.75,0V709.12c0,64.5-40.12,105.38-106.87,105.38s-106.88-40.88-106.88-105.38V580.5a22.88,22.88,0,1,1,45.75,0V714c0,34.88,21,59.25,61.13,59.25s61.12-24.37,61.12-59.25Z"/><path class="d" d="M2005,790.12A22.71,22.71,0,0,1,1982.13,813c-10.13,0-16.5-4.5-20.25-12.38L1918,710.25h-75.37v79.87a22.88,22.88,0,1,1-45.75,0v-207a22.73,22.73,0,0,1,22.87-22.87h96.38c62.25,0,88.87,30.75,88.87,75,0,29.25-12.75,54.37-41.25,66.75l38.63,78.38A22.24,22.24,0,0,1,2005,790.12Zm-82.5-187.87h-79.87v68.63h79.87c25.13,0,36.38-18.38,36.38-35.26C1958.88,619.12,1947.63,602.25,1922.5,602.25Z"/><path class="d" d="M2185.37,810H2044.75a23,23,0,0,1-23.25-22.88v-204a23,23,0,0,1,23.25-22.87h135c12,0,21.75,9,21.75,21a21.44,21.44,0,0,1-21.75,21.37h-112.5v59.63h61.87a21.36,21.36,0,0,1,21.38,21.37,21,21,0,0,1-21.38,21h-61.87v63h118.12A21.45,21.45,0,0,1,2207.12,789C2207.12,801,2197.37,810,2185.37,810Z"/><path class="d" d="M2383.37,580.5a22.88,22.88,0,1,1,45.75,0V709.12c0,64.5-40.12,105.38-106.87,105.38s-106.88-40.88-106.88-105.38V580.5a22.88,22.88,0,1,1,45.75,0V714c0,34.88,21,59.25,61.13,59.25s61.12-24.37,61.12-59.25Z"/><path class="d" d="M2542.37,814.5c-30.38,0-64.88-9.38-86.63-26.25-7.5-6-12.75-13.5-12.75-21.75,0-11.62,7.5-19.5,19.13-19.5a21.89,21.89,0,0,1,11.62,3.38c20.25,12.74,34.13,24,69.38,24,36,0,50.25-14.63,50.25-31.5,0-18.38-14.63-27.76-59.63-39.76-67.87-18-88.12-39.74-88.12-77.24,0-45.76,39.37-70.13,99-70.13a191.78,191.78,0,0,1,48,6.75c17.25,4.88,39,15.75,39,30.75,0,10.13-6,20.63-18.75,20.63a19.45,19.45,0,0,1-9-1.88c-17.25-7.88-35.25-15.75-58.88-15.75-33.37,0-53.62,9-53.62,28.5,0,18.37,15,24.75,60,37.87,51.37,15,87.75,29.63,87.75,77.63C2639.12,783.75,2606.12,814.5,2542.37,814.5Z"/><circle class="e" cx="437.52" cy="195" r="195"/><circle class="f" cx="437.52" cy="755" r="195"/><circle class="f" cx="195.03" cy="335" r="195" transform="translate(-179.76 236.03) rotate(-45)"/><circle class="e" cx="680.01" cy="615" r="195" transform="translate(-235.7 660.97) rotate(-45)"/><circle class="e" cx="195.03" cy="615" r="195" transform="translate(-377.75 318.04) rotate(-45)"/><circle class="f" cx="680.01" cy="335" r="195" transform="translate(-37.71 578.96) rotate(-45)"/></g></svg>