<svg id="Layer_4" data-name="Layer 4" xmlns="http://www.w3.org/2000/svg" viewBox="0 0 2087.42 950"><defs><style>.cls-1{fill:#750019;}.cls-2{fill:#8f0030;}.cls-3{fill:#d16293;}.cls-4{fill:#75001b;}.cls-5{fill:#ab2655;}.cls-6{fill:#600010;}</style></defs><title>atlas-ecoli-logo</title><path class="cls-1" d="M1708.34,188.49A32.5,32.5,0,0,0,1680,140.05h-32.5a15,15,0,0,0-15,15v80a15,15,0,0,0,15,15H1685a37.5,37.5,0,0,0,37.5-37.5A27.48,27.48,0,0,0,1708.34,188.49ZM1680,170.05a7.5,7.5,0,0,1,0,15h-17.5v-15Zm5,50h-22.5v-15H1685a7.5,7.5,0,0,1,0,15Z"/><path class="cls-1" d="M1189,149.74c0-.15-.12-.28-.18-.43s-.21-.5-.32-.74-.22-.44-.34-.66-.22-.41-.35-.62-.27-.44-.42-.66-.25-.37-.39-.55-.31-.42-.48-.62-.29-.35-.45-.52l-.51-.54-.54-.51-.52-.45c-.2-.16-.41-.33-.62-.48l-.54-.38-.67-.43-.61-.34c-.22-.12-.44-.24-.67-.35l-.72-.31-.44-.19-.2-.06c-.26-.1-.52-.17-.78-.25s-.43-.14-.65-.19l-.77-.16c-.23-.05-.45-.1-.68-.13s-.5-.06-.75-.08l-.71-.07c-.24,0-.49,0-.74,0s-.48,0-.72,0l-.73.07c-.24,0-.49,0-.73.08s-.46.08-.69.13l-.76.16c-.22,0-.43.12-.64.18s-.53.16-.79.26l-.2.06c-.15,0-.28.13-.43.19s-.49.2-.74.32-.43.22-.65.33l-.63.35-.65.42-.56.39-.61.48-.53.46-.53.5c-.17.18-.35.36-.51.54s-.3.35-.45.52-.33.41-.49.62l-.38.55c-.15.22-.29.43-.42.66s-.24.41-.35.63-.23.42-.34.65-.22.49-.32.74-.13.28-.18.43l-16,42.54-16-42.54c0-.15-.12-.28-.18-.43s-.21-.5-.32-.74-.22-.44-.34-.66-.22-.41-.35-.62-.28-.44-.42-.66l-.38-.55c-.16-.21-.32-.42-.49-.62s-.29-.35-.45-.52-.34-.36-.52-.54-.34-.34-.52-.5l-.54-.46c-.19-.17-.39-.32-.6-.48l-.56-.39-.65-.42c-.21-.12-.42-.24-.64-.35s-.42-.23-.64-.33l-.75-.33c-.14-.06-.28-.13-.42-.18l-.19-.06c-.27-.1-.55-.18-.82-.26l-.61-.18c-.27-.07-.54-.12-.81-.17l-.64-.12c-.26,0-.52-.06-.78-.08l-.68-.07c-.26,0-.51,0-.77,0s-.46,0-.7,0l-.73.07c-.25,0-.49,0-.73.08s-.46.08-.69.13l-.76.16c-.22,0-.43.12-.64.18s-.53.16-.79.26l-.2.06-.43.19-.73.31-.66.34-.62.35-.66.42-.56.39-.61.48-.52.45c-.19.17-.37.34-.54.52l-.51.53c-.16.17-.31.35-.45.53s-.33.4-.48.61-.27.37-.39.55-.29.43-.42.66-.24.42-.35.63-.23.43-.34.65-.22.49-.32.74-.13.28-.18.43l-30,80A15,15,0,1,0,1099,240.27l16-42.55,16,42.55c.08.23.18.45.28.68s.09.22.14.32a12.51,12.51,0,0,0,.62,1.21.21.21,0,0,0,0,.06c.21.37.44.73.68,1.07l.19.26a9.89,9.89,0,0,0,.64.81l.24.28c.24.27.48.53.74.77l.2.21c.32.3.65.58,1,.85l.32.23c.25.19.51.37.77.54l.41.26c.29.17.58.34.88.49l.3.16c.41.2.82.38,1.25.54l.08,0,.26.08c.28.1.57.2.86.28l.43.12c.27.07.53.13.8.18l.45.08q.42.08.84.12l.4,0q.6.06,1.2.06h.06q.6,0,1.2-.06l.4,0,.84-.11.45-.09c.27-.05.53-.11.8-.18l.43-.12c.29-.08.58-.18.86-.28l.26-.08.08,0c.43-.16.84-.34,1.25-.54l.3-.16c.3-.15.59-.32.88-.49l.41-.26c.26-.17.52-.35.77-.54l.32-.23c.34-.27.67-.55,1-.85l.2-.21c.26-.24.5-.5.74-.77l.24-.28a9.89,9.89,0,0,0,.64-.81l.19-.26c.24-.34.47-.7.68-1.07a.21.21,0,0,0,0-.06,12.51,12.51,0,0,0,.62-1.21c.05-.1.09-.21.14-.32s.2-.45.28-.68l16-42.55,16,42.55A15,15,0,1,0,1219,229.74Z"/><path class="cls-1" d="M1299.2,143.16a15,15,0,0,0-21,2.64L1255,175.6l-23.16-29.8a15,15,0,1,0-23.68,18.41l31.84,41V235a15,15,0,0,0,30,0V205.19l31.84-41A15,15,0,0,0,1299.2,143.16Z"/><path class="cls-1" d="M1400.61,144.4a15,15,0,0,0-21.22,0L1345,178.82V155a15,15,0,0,0-30,0v80a15,15,0,0,0,30,0V221.26l12-12,20.1,33.5a15,15,0,1,0,25.72-15.43l-24-39.95,21.72-21.73A15,15,0,0,0,1400.61,144.4Z"/><path class="cls-1" d="M1528.6,156.11a55,55,0,1,0,77.79,0A55.07,55.07,0,0,0,1528.6,156.11Zm21.22,56.57a25,25,0,1,1,35.35,0A25,25,0,0,1,1549.82,212.68Z"/><path class="cls-1" d="M1807.52,220.05h-45V210h25a15,15,0,0,0,0-30h-25v-9.95h45a15,15,0,0,0,0-30h-59.07c-.31,0-.61-.05-.93-.05a15,15,0,0,0-15,15v80.05a15,15,0,0,0,15,15h60a15,15,0,0,0,0-30Z"/><path class="cls-1" d="M1505,180a40,40,0,0,0-40-40h-35a15,15,0,0,0-15,15v80a15,15,0,0,0,30,0V220h18.51l13.63,22.72a15,15,0,1,0,25.72-15.43l-10.74-17.91A39.94,39.94,0,0,0,1505,180Zm-60-10h20a10,10,0,0,1,0,20h-20Z"/><path class="cls-2" d="M1240.62,474.88h-111l-21.37,45.74c-4.13,7.5-9.38,12.38-19.13,12.38a21.2,21.2,0,0,1-21.75-21.38,20,20,0,0,1,2.25-9l96-213.37c3.38-7.5,9.75-12,19.5-12s16.13,4.13,19.5,12l96,213.37a20,20,0,0,1,2.25,9A21.2,21.2,0,0,1,1281.12,533c-9.75,0-15-4.5-19.12-12.38Zm-55.5-135.38-39,95.25h78Z"/><path class="cls-2" d="M1433,323.38h-64.12V509.75A23.37,23.37,0,0,1,1345.62,533c-12.75,0-22.5-10.5-22.5-23.25V323.38h-64.5a21.57,21.57,0,1,1,0-43.13H1433A21.77,21.77,0,0,1,1454.74,302,21.45,21.45,0,0,1,1433,323.38Z"/><path class="cls-2" d="M1487.66,530a23.37,23.37,0,0,1-23.25-23.25V300.5a23.37,23.37,0,0,1,23.25-23.25c12.75,0,22.5,10.5,22.5,23.25V486.88h109.5A21.36,21.36,0,0,1,1641,508.25,21.94,21.94,0,0,1,1619.66,530Z"/><path class="cls-2" d="M1823.66,474.88h-111l-21.37,45.74c-4.13,7.5-9.38,12.38-19.13,12.38a21.2,21.2,0,0,1-21.75-21.38,20,20,0,0,1,2.25-9l96-213.37c3.38-7.5,9.75-12,19.5-12s16.13,4.13,19.5,12l96,213.37a20,20,0,0,1,2.25,9A21.2,21.2,0,0,1,1864.16,533c-9.75,0-15-4.5-19.12-12.38Zm-55.5-135.38-39,95.25h78Z"/><path class="cls-2" d="M1990.68,534.5c-30.38,0-64.88-9.38-86.63-26.25-7.5-6-12.75-13.5-12.75-21.75,0-11.62,7.5-19.5,19.13-19.5a21.89,21.89,0,0,1,11.62,3.38c20.25,12.74,34.13,24,69.38,24,36,0,50.25-14.63,50.25-31.5,0-18.38-14.63-27.76-59.63-39.76-67.87-18-88.12-39.74-88.12-77.24,0-45.76,39.37-70.13,99-70.13a191.78,191.78,0,0,1,48,6.75c17.25,4.88,39,15.75,39,30.75,0,10.13-6,20.63-18.75,20.63a19.45,19.45,0,0,1-9-1.88c-17.25-7.88-35.25-15.75-58.88-15.75-33.37,0-53.62,9-53.62,28.5,0,18.37,15,24.75,60,37.87,51.37,15,87.75,29.63,87.75,77.63C2087.43,503.75,2054.43,534.5,1990.68,534.5Z"/><path class="cls-3" d="M1234.75,823H1093.49a23.15,23.15,0,0,1-23.35-23V595.08a23.15,23.15,0,0,1,23.35-23H1229.1c12.05,0,21.85,9,21.85,21.1a21.55,21.55,0,0,1-21.85,21.47h-113v59.9h62.16A21.46,21.46,0,0,1,1199.72,696a21.14,21.14,0,0,1-21.47,21.09h-62.16v63.29h118.66a21.54,21.54,0,0,1,21.85,21.47C1256.6,813.94,1246.8,823,1234.75,823Z"/><path class="cls-3" d="M1294.64,825.62a25.72,25.72,0,0,1-25.61-26A25.4,25.4,0,0,1,1294.64,774a25.72,25.72,0,0,1,26,25.62A26,26,0,0,1,1294.64,825.62Z"/><path class="cls-3" d="M1487.88,764.22c4.9-3.39,9.8-5.28,15.07-5.28,12.81,0,20.72,9.8,20.72,21.1,0,6-2.64,10.92-7.16,15.44-21.47,22.23-54.62,32-84,32-73.83,0-128.08-51.23-128.08-130s54.25-130,128.08-130c29.38,0,62.53,9.8,84,32,4.52,4.52,7.16,9.42,7.16,15.45,0,11.3-7.91,21.09-20.72,21.09-5.27,0-10.17-1.88-15.07-5.27-14.31-10.93-29.76-20.72-55.37-20.72-49.35,0-81.74,37.29-81.74,87.39s32.39,87.4,81.74,87.4C1458.12,784.94,1473.57,775.14,1487.88,764.22Z"/><path class="cls-3" d="M1648,827.5c-73.83,0-128.83-57.25-128.83-130s55-130,128.83-130,128.83,57.26,128.83,130S1721.81,827.5,1648,827.5ZM1648,609c-51.23,0-82.49,40.68-82.49,88.52s31.26,88.53,82.49,88.53,82.5-40.69,82.5-88.53S1699.2,609,1648,609Z"/><path class="cls-3" d="M1815.22,823a23.48,23.48,0,0,1-23.36-23.35V592.45a23.48,23.48,0,0,1,23.36-23.36c12.81,0,22.6,10.55,22.6,23.36V779.66h110a21.47,21.47,0,0,1,21.47,21.47A22,22,0,0,1,1947.82,823Z"/><path class="cls-3" d="M2007.33,826A23.48,23.48,0,0,1,1984,802.64V592.45a23.48,23.48,0,0,1,23.36-23.36c12.81,0,22.6,10.55,22.6,23.36V802.64C2029.93,815.45,2020.14,826,2007.33,826Z"/><path class="cls-2" d="M324.78,850V100a100,100,0,0,1,200,0V850a100,100,0,0,1-200,0Z"/><path class="cls-3" d="M0,662.6a100,100,0,0,1,50-86.69l649.5-375a100,100,0,0,1,100,173.2L150,749.11A100,100,0,0,1,0,662.6Z"/><polygon class="cls-4" points="324.78 417.26 324.78 648.21 524.78 532.73 524.78 301.78 324.78 417.26"/><path class="cls-3" d="M0,287.42a100,100,0,0,1,150-86.51l649.52,375a100,100,0,1,1-100,173.2L50,374.11A100,100,0,0,1,0,287.42Z"/><polygon class="cls-4" points="324.78 301.8 324.78 532.74 524.78 648.21 524.78 417.27 324.78 301.8"/><polygon class="cls-5" points="424.77 359.53 224.78 475.01 424.78 590.47 624.77 474.99 424.77 359.53"/><polygon class="cls-6" points="524.78 417.27 424.77 359.53 324.78 417.26 324.78 532.74 424.78 590.47 524.78 532.73 524.78 417.27"/></svg>