<svg xmlns="http://www.w3.org/2000/svg" viewBox="0 0 2087.18 950"><defs><style>.a{isolation:isolate;}.b,.k,.l{fill:none;}.b{stroke:#71c7e6;stroke-linecap:square;stroke-width:0.25px;}.b,.i{stroke-miterlimit:10;}.c{fill:#0d561e;}.d{font-size:375px;fill:#0d7da0;font-family:BryantPro-Bold, Bryant Pro;font-weight:700;letter-spacing:-0.23em;}.e,.i{letter-spacing:-0.07em;}.f{letter-spacing:-0.03em;}.g{letter-spacing:-0.07em;}.h{letter-spacing:-0.05em;}.i{fill:#ffab2e;}.i,.l{stroke:#ffab2e;}.j{letter-spacing:-0.05em;}.k{stroke:#0d7da0;}.k,.l{stroke-linecap:round;stroke-linejoin:round;stroke-width:200px;mix-blend-mode:multiply;}</style></defs><title>atlas-tb-logo</title><g class="a"><circle class="b" cx="1055" cy="265" r="15"/><rect class="b" x="1070" y="140" width="110" height="110"/><circle class="b" cx="1195" cy="265" r="15"/><rect class="b" x="1210" y="140" width="110" height="110"/><circle class="b" cx="1335" cy="265" r="15"/><rect class="b" x="1350" y="140" width="110" height="110"/><circle class="b" cx="1475" cy="265" r="15"/><rect class="b" x="1490" y="140" width="110" height="110"/><circle class="b" cx="1055" cy="125" r="15"/><rect class="b" x="1070" width="110" height="110"/><circle class="b" cx="1195" cy="125" r="15"/><rect class="b" x="1210" width="110" height="110"/><circle class="b" cx="1335" cy="125" r="15"/><rect class="b" x="1350" width="110" height="110"/><circle class="b" cx="1475" cy="125" r="15"/><rect class="b" x="1490" width="110" height="110"/><circle class="b" cx="1055" cy="405" r="15"/><rect class="b" x="1070" y="280" width="110" height="110"/><circle class="b" cx="1195" cy="405" r="15"/><rect class="b" x="1210" y="280" width="110" height="110"/><circle class="b" cx="1335" cy="405" r="15"/><rect class="b" x="1350" y="280" width="110" height="110"/><circle class="b" cx="1475" cy="405" r="15"/><rect class="b" x="1490" y="280" width="110" height="110"/><circle class="b" cx="1055" cy="545" r="15"/><rect class="b" x="1070" y="420" width="110" height="110"/><circle class="b" cx="1195" cy="545" r="15"/><rect class="b" x="1210" y="420" width="110" height="110"/><circle class="b" cx="1335" cy="545" r="15"/><rect class="b" x="1350" y="420" width="110" height="110"/><circle class="b" cx="1475" cy="545" r="15"/><rect class="b" x="1490" y="420" width="110" height="110"/><circle class="b" cx="1055" cy="685" r="15"/><rect class="b" x="1070" y="560" width="110" height="110"/><circle class="b" cx="1195" cy="685" r="15"/><rect class="b" x="1210" y="560" width="110" height="110"/><circle class="b" cx="1335" cy="685" r="15"/><rect class="b" x="1350" y="560" width="110" height="110"/><circle class="b" cx="1475" cy="685" r="15"/><rect class="b" x="1490" y="560" width="110" height="110"/><circle class="b" cx="1055" cy="825" r="15"/><rect class="b" x="1070" y="700" width="110" height="110"/><circle class="b" cx="1195" cy="825" r="15"/><rect class="b" x="1210" y="700" width="110" height="110"/><circle class="b" cx="1335" cy="825" r="15"/><rect class="b" x="1350" y="700" width="110" height="110"/><circle class="b" cx="1475" cy="825" r="15"/><rect class="b" x="1490" y="700" width="110" height="110"/><rect class="b" x="1070" y="840" width="110" height="110"/><rect class="b" x="1210" y="840" width="110" height="110"/><rect class="b" x="1350" y="840" width="110" height="110"/><rect class="b" x="1490" y="840" width="110" height="110"/><circle class="b" cx="495" cy="265" r="15"/><rect class="b" x="510" y="140" width="110" height="110"/><circle class="b" cx="635" cy="265" r="15"/><rect class="b" x="650" y="140" width="110" height="110"/><circle class="b" cx="775" cy="265" r="15"/><rect class="b" x="790" y="140" width="110" height="110"/><circle class="b" cx="915" cy="265" r="15"/><rect class="b" x="930" y="140" width="110" height="110"/><circle class="b" cx="495" cy="125" r="15"/><rect class="b" x="510" width="110" height="110"/><circle class="b" cx="635" cy="125" r="15"/><rect class="b" x="650" width="110" height="110"/><circle class="b" cx="775" cy="125" r="15"/><rect class="b" x="790" width="110" height="110"/><circle class="b" cx="915" cy="125" r="15"/><rect class="b" x="930" width="110" height="110"/><circle class="b" cx="495" cy="405" r="15"/><rect class="b" x="510" y="280" width="110" height="110"/><circle class="b" cx="635" cy="405" r="15"/><rect class="b" x="650" y="280" width="110" height="110"/><circle class="b" cx="775" cy="405" r="15"/><rect class="b" x="790" y="280" width="110" height="110"/><circle class="b" cx="915" cy="405" r="15"/><rect class="b" x="930" y="280" width="110" height="110"/><circle class="b" cx="495" cy="545" r="15"/><rect class="b" x="510" y="420" width="110" height="110"/><circle class="b" cx="635" cy="545" r="15"/><rect class="b" x="650" y="420" width="110" height="110"/><circle class="b" cx="775" cy="545" r="15"/><rect class="b" x="790" y="420" width="110" height="110"/><circle class="b" cx="915" cy="545" r="15"/><rect class="b" x="930" y="420" width="110" height="110"/><circle class="b" cx="495" cy="685" r="15"/><rect class="b" x="510" y="560" width="110" height="110"/><circle class="b" cx="635" cy="685" r="15"/><rect class="b" x="650" y="560" width="110" height="110"/><circle class="b" cx="775" cy="685" r="15"/><rect class="b" x="790" y="560" width="110" height="110"/><circle class="b" cx="915" cy="685" r="15"/><rect class="b" x="930" y="560" width="110" height="110"/><circle class="b" cx="495" cy="825" r="15"/><rect class="b" x="510" y="700" width="110" height="110"/><circle class="b" cx="635" cy="825" r="15"/><rect class="b" x="650" y="700" width="110" height="110"/><circle class="b" cx="775" cy="825" r="15"/><rect class="b" x="790" y="700" width="110" height="110"/><circle class="b" cx="915" cy="825" r="15"/><rect class="b" x="930" y="700" width="110" height="110"/><rect class="b" x="510" y="840" width="110" height="110"/><rect class="b" x="650" y="840" width="110" height="110"/><rect class="b" x="790" y="840" width="110" height="110"/><rect class="b" x="930" y="840" width="110" height="110"/><rect class="b" x="-50" y="140" width="110" height="110"/><circle class="b" cx="75" cy="265" r="15"/><rect class="b" x="90" y="140" width="110" height="110"/><circle class="b" cx="215" cy="265" r="15"/><rect class="b" x="230" y="140" width="110" height="110"/><circle class="b" cx="355" cy="265" r="15"/><rect class="b" x="370" y="140" width="110" height="110"/><rect class="b" x="-50" width="110" height="110"/><circle class="b" cx="75" cy="125" r="15"/><rect class="b" x="90" width="110" height="110"/><circle class="b" cx="215" cy="125" r="15"/><rect class="b" x="230" width="110" height="110"/><circle class="b" cx="355" cy="125" r="15"/><rect class="b" x="370" width="110" height="110"/><rect class="b" x="-50" y="280" width="110" height="110"/><circle class="b" cx="75" cy="405" r="15"/><rect class="b" x="90" y="280" width="110" height="110"/><circle class="b" cx="215" cy="405" r="15"/><rect class="b" x="230" y="280" width="110" height="110"/><circle class="b" cx="355" cy="405" r="15"/><rect class="b" x="370" y="280" width="110" height="110"/><rect class="b" x="-50" y="420" width="110" height="110"/><circle class="b" cx="75" cy="545" r="15"/><rect class="b" x="90" y="420" width="110" height="110"/><circle class="b" cx="215" cy="545" r="15"/><rect class="b" x="230" y="420" width="110" height="110"/><circle class="b" cx="355" cy="545" r="15"/><rect class="b" x="370" y="420" width="110" height="110"/><rect class="b" x="-50" y="560" width="110" height="110"/><circle class="b" cx="75" cy="685" r="15"/><rect class="b" x="90" y="560" width="110" height="110"/><circle class="b" cx="215" cy="685" r="15"/><rect class="b" x="230" y="560" width="110" height="110"/><circle class="b" cx="355" cy="685" r="15"/><rect class="b" x="370" y="560" width="110" height="110"/><rect class="b" x="-50" y="700" width="110" height="110"/><circle class="b" cx="75" cy="825" r="15"/><rect class="b" x="90" y="700" width="110" height="110"/><circle class="b" cx="215" cy="825" r="15"/><rect class="b" x="230" y="700" width="110" height="110"/><circle class="b" cx="355" cy="825" r="15"/><rect class="b" x="370" y="700" width="110" height="110"/><rect class="b" x="-50" y="840" width="110" height="110"/><rect class="b" x="90" y="840" width="110" height="110"/><rect class="b" x="230" y="840" width="110" height="110"/><rect class="b" x="370" y="840" width="110" height="110"/><circle class="b" cx="2035" cy="265" r="15"/><rect class="b" x="2050" y="140" width="110" height="110"/><circle class="b" cx="2035" cy="125" r="15"/><rect class="b" x="2050" width="110" height="110"/><circle class="b" cx="2035" cy="405" r="15"/><rect class="b" x="2050" y="280" width="110" height="110"/><circle class="b" cx="2035" cy="545" r="15"/><rect class="b" x="2050" y="420" width="110" height="110"/><circle class="b" cx="2035" cy="685" r="15"/><rect class="b" x="2050" y="560" width="110" height="110"/><circle class="b" cx="2035" cy="825" r="15"/><rect class="b" x="2050" y="700" width="110" height="110"/><rect class="b" x="2050" y="840" width="110" height="110"/><circle class="b" cx="1615" cy="265" r="15"/><rect class="b" x="1630" y="140" width="110" height="110"/><circle class="b" cx="1755" cy="265" r="15"/><rect class="b" x="1770" y="140" width="110" height="110"/><circle class="b" cx="1895" cy="265" r="15"/><rect class="b" x="1910" y="140" width="110" height="110"/><circle class="b" cx="1615" cy="125" r="15"/><rect class="b" x="1630" width="110" height="110"/><circle class="b" cx="1755" cy="125" r="15"/><rect class="b" x="1770" width="110" height="110"/><circle class="b" cx="1895" cy="125" r="15"/><rect class="b" x="1910" width="110" height="110"/><circle class="b" cx="1615" cy="405" r="15"/><rect class="b" x="1630" y="280" width="110" height="110"/><circle class="b" cx="1755" cy="405" r="15"/><rect class="b" x="1770" y="280" width="110" height="110"/><circle class="b" cx="1895" cy="405" r="15"/><rect class="b" x="1910" y="280" width="110" height="110"/><circle class="b" cx="1615" cy="545" r="15"/><rect class="b" x="1630" y="420" width="110" height="110"/><circle class="b" cx="1755" cy="545" r="15"/><rect class="b" x="1770" y="420" width="110" height="110"/><circle class="b" cx="1895" cy="545" r="15"/><rect class="b" x="1910" y="420" width="110" height="110"/><circle class="b" cx="1615" cy="685" r="15"/><rect class="b" x="1630" y="560" width="110" height="110"/><circle class="b" cx="1755" cy="685" r="15"/><rect class="b" x="1770" y="560" width="110" height="110"/><circle class="b" cx="1895" cy="685" r="15"/><rect class="b" x="1910" y="560" width="110" height="110"/><circle class="b" cx="1615" cy="825" r="15"/><rect class="b" x="1630" y="700" width="110" height="110"/><circle class="b" cx="1755" cy="825" r="15"/><rect class="b" x="1770" y="700" width="110" height="110"/><circle class="b" cx="1895" cy="825" r="15"/><rect class="b" x="1910" y="700" width="110" height="110"/><rect class="b" x="1630" y="840" width="110" height="110"/><rect class="b" x="1770" y="840" width="110" height="110"/><rect class="b" x="1910" y="840" width="110" height="110"/><circle class="b" cx="425" cy="475" r="475"/><circle class="b" cx="425" cy="475" r="225"/><circle class="b" cx="425" cy="475" r="85"/><path class="c" d="M1649.76,140.05a15,15,0,0,0-15,15v80a15,15,0,0,0,30,0v-80A15,15,0,0,0,1649.76,140.05Z"/><path class="c" d="M1724.76,212.55a27.5,27.5,0,0,0-27.5-27.5h-37.5a10,10,0,0,0,0,20h27.5a7.5,7.5,0,0,1,0,15h-37.5a15,15,0,0,0,0,30h37.5a37.5,37.5,0,0,0,37.5-37.5"/><path class="c" d="M1679.76,205.05a10,10,0,0,1,0-20h2.5a7.5,7.5,0,0,0,0-15h-32.5a15,15,0,0,1,0-30h32.5a32.5,32.5,0,0,1,0,65h-2.5"/><path class="c" d="M1329.76,250a15,15,0,0,1-15-15V155a15,15,0,0,1,30,0v80A15,15,0,0,1,1329.76,250Z"/><path class="c" d="M1084.75,250a15,15,0,0,1-14-20.27l30-80a15,15,0,1,1,28.09,10.53l-30,80A15,15,0,0,1,1084.75,250Z"/><path class="c" d="M1204.76,250a15,15,0,0,1-14-9.74l-30-80a15,15,0,1,1,28.09-10.53l30,80a15,15,0,0,1-14,20.27Z"/><path class="c" d="M1144.75,250a15,15,0,0,1-14-20.27l30-80a15,15,0,1,1,28.09,10.53l-30,80A15,15,0,0,1,1144.75,250Z"/><path class="c" d="M1144.76,250a15,15,0,0,1-14-9.74l-30-80a15,15,0,1,1,28.09-10.53l30,80a15,15,0,0,1-14,20.27Z"/><path class="c" d="M1254.76,250a15,15,0,0,1-15-15V200.05a15,15,0,0,1,3.15-9.2l35-45a15,15,0,1,1,23.69,18.41l-31.84,41V235A15,15,0,0,1,1254.76,250Z"/><path class="c" d="M1334.15,225.66a15,15,0,0,1-10.61-25.61l55.61-55.65a15,15,0,1,1,21.21,21.21l-55.6,55.65A15,15,0,0,1,1334.15,225.66Z"/><path class="c" d="M1389.77,250a15,15,0,0,1-12.88-7.29l-24-40a15,15,0,1,1,25.72-15.43l24,40A15,15,0,0,1,1389.77,250Z"/><path class="c" d="M1429.76,250a15,15,0,0,1-15-15V155a15,15,0,0,1,30,0v80A15,15,0,0,1,1429.76,250Z"/><path class="c" d="M1569.73,250a55,55,0,0,1-38.89-93.87,15,15,0,0,1,21.21,21.22,25,25,0,0,0,35.36,35.35,15,15,0,0,1,21.21,21.21A54.8,54.8,0,0,1,1569.73,250Z"/><path class="c" d="M1598,238.29a15,15,0,0,1-10.6-25.61,25,25,0,1,0-35.36-35.35,15,15,0,1,1-21.21-21.22,55,55,0,1,1,77.78,77.78A15,15,0,0,1,1598,238.29Z"/><path class="c" d="M1809.76,170.05h-60a15,15,0,0,1,0-30h60a15,15,0,0,1,0,30Z"/><path class="c" d="M1809.76,250.05h-60a15,15,0,0,1,0-30h60a15,15,0,0,1,0,30Z"/><path class="c" d="M1749.76,250a15,15,0,0,1-15-15V155a15,15,0,0,1,30,0v80A15,15,0,0,1,1749.76,250Z"/><path class="c" d="M1464.76,220h-20a15,15,0,0,1,0-30h20a10,10,0,0,0,0-20h-35a15,15,0,0,1,0-30h35a40,40,0,0,1,0,80Z"/><path class="c" d="M1489.77,250a15,15,0,0,1-12.88-7.29L1463.26,220A15,15,0,1,1,1489,204.57l13.63,22.72A15,15,0,0,1,1489.77,250Z"/><path class="c" d="M1254.77,215.05a15,15,0,0,1-11.86-5.8l-35-45a15,15,0,0,1,23.69-18.41l35,45a15,15,0,0,1-11.83,24.2Z"/><path class="c" d="M1789.76,210h-25a15,15,0,0,1,0-30h25a15,15,0,0,1,0,30Z"/><text class="d" transform="translate(1054.76 530)">A<tspan class="e" x="174.37" y="0">T</tspan><tspan class="f" x="379.41" y="0">L</tspan><tspan class="g" x="583.04" y="0">A</tspan><tspan class="h" x="815.68" y="0">S</tspan><tspan class="i"><tspan x="7.5" y="280">T</tspan><tspan class="j" x="212.54" y="280">B</tspan></tspan></text><line class="k" x1="749.51" y1="662.5" x2="424.76" y2="850"/><line class="l" x1="749.51" y1="287.5" x2="749.51" y2="662.5"/><line class="k" x1="424.76" y1="100" x2="749.51" y2="287.5"/><line class="l" x1="100" y1="287.5" x2="424.76" y2="100"/><line class="k" x1="100" y1="662.5" x2="100" y2="287.5"/><line class="l" x1="424.76" y1="850" x2="100" y2="662.5"/></g></svg>