<svg id="Layer_4" data-name="Layer 4" xmlns="http://www.w3.org/2000/svg" viewBox="0 0 2692.36 950"><defs><style>.cls-1{fill:#d16293;}.cls-2{fill:#7759b5;}.cls-3{fill:#622268;}.cls-4{fill:#381f80;}.cls-5{fill:#2e0c4a;}</style></defs><title>atlas-enterics-logo</title><path class="cls-1" d="M850,575H100a100,100,0,0,1,0-200H850a100,100,0,0,1,0,200Z"/><path class="cls-2" d="M662.6,899.76a100,100,0,0,1-86.69-50l-375-649.5a100,100,0,1,1,173.2-100l375,649.5a100,100,0,0,1-86.51,150Z"/><polygon class="cls-3" points="417.26 574.99 648.21 574.99 532.73 374.99 301.78 374.99 417.26 574.99"/><path class="cls-2" d="M287.42,899.77a100,100,0,0,1-86.51-150l375-649.52a100,100,0,0,1,173.2,100l-375,649.52A100,100,0,0,1,287.42,899.77Z"/><polygon class="cls-3" points="301.8 574.99 532.74 574.99 648.21 374.99 417.27 374.99 301.8 574.99"/><polygon class="cls-4" points="359.53 475 475.01 675 590.47 475 474.99 275 359.53 475"/><path class="cls-3" d="M1761.06,188.49a32.5,32.5,0,0,0-28.32-48.44h-32.5a15,15,0,0,0-15,15v80a15,15,0,0,0,15,15h37.5a37.5,37.5,0,0,0,37.5-37.5A27.48,27.48,0,0,0,1761.06,188.49Zm-28.32-18.44a7.5,7.5,0,0,1,0,15h-17.5v-15Zm5,50h-22.5v-15h22.5a7.5,7.5,0,0,1,0,15Z"/><path class="cls-3" d="M1239.29,149.74c-.06-.15-.13-.28-.19-.42s-.2-.51-.32-.75-.22-.44-.33-.65-.23-.42-.36-.63-.27-.44-.42-.66-.25-.37-.38-.55-.32-.42-.49-.62-.29-.35-.45-.52-.33-.36-.51-.53-.35-.35-.54-.52l-.52-.45c-.2-.16-.4-.33-.62-.48s-.36-.26-.54-.38-.44-.3-.67-.43l-.61-.34c-.22-.12-.44-.24-.67-.35l-.72-.31-.44-.19-.2-.06c-.26-.1-.52-.17-.78-.25s-.43-.14-.65-.19l-.77-.16c-.22-.05-.45-.1-.68-.13s-.49-.06-.74-.08L1226,140c-.24,0-.49,0-.74,0s-.48,0-.72,0l-.73.07c-.24,0-.49,0-.73.08s-.46.08-.69.13l-.76.16-.64.18c-.26.08-.53.16-.79.26l-.19.06c-.15,0-.29.13-.44.19s-.49.2-.73.32-.44.22-.66.33l-.62.35-.66.42-.56.39-.6.48c-.18.15-.36.3-.53.46s-.36.33-.53.5l-.52.54-.45.52c-.16.2-.33.41-.48.62s-.26.36-.39.55-.29.43-.42.66-.24.41-.35.63-.23.42-.34.65-.22.49-.32.75-.13.27-.18.42l-16,42.54-16-42.54c-.06-.15-.13-.28-.19-.42s-.2-.51-.32-.75-.22-.44-.33-.65l-.35-.63c-.14-.23-.28-.44-.43-.66s-.25-.37-.38-.55-.32-.42-.49-.62l-.44-.52-.52-.54-.53-.5c-.17-.16-.35-.31-.53-.46l-.61-.48-.56-.39-.65-.42-.63-.35c-.22-.12-.43-.23-.65-.33s-.5-.22-.75-.33-.28-.13-.42-.18l-.19-.06c-.27-.1-.55-.18-.82-.26s-.4-.13-.61-.18-.54-.12-.81-.17-.42-.09-.64-.12-.52-.06-.78-.08L1166,140c-.25,0-.51,0-.76,0s-.47,0-.71,0l-.73.07c-.24,0-.49,0-.73.08s-.45.08-.68.13l-.77.16-.64.18c-.26.08-.53.16-.79.26a1.39,1.39,0,0,0-.19.06l-.44.19c-.25.1-.49.2-.73.32s-.44.22-.66.33l-.62.35-.66.42-.55.39-.62.48-.52.45c-.19.17-.36.34-.54.52l-.51.53-.45.53c-.17.2-.33.4-.48.61s-.26.37-.39.55-.29.43-.42.66-.24.42-.35.63-.23.43-.33.65-.23.49-.33.74-.13.28-.18.43l-30,80a15,15,0,1,0,28.09,10.53l16-42.55,16,42.55c.08.23.18.45.28.68s.09.22.14.32c.19.42.4.82.62,1.21a.43.43,0,0,1,0,.07c.21.36.44.72.68,1.06l.19.26c.21.28.42.55.64.81l.24.28c.24.27.48.53.74.77l.2.21c.32.3.65.58,1,.85l.32.23c.25.19.51.37.77.54l.41.26c.29.17.58.34.88.49l.3.16c.41.2.83.38,1.25.54l.09,0,.25.08c.29.1.57.2.86.28l.43.12.81.18.44.09.84.11.4,0a12.1,12.1,0,0,0,1.21.06h0q.6,0,1.2-.06l.4,0,.84-.11.45-.09c.27-.05.54-.11.8-.18l.43-.12c.29-.08.58-.18.86-.28l.26-.08.08,0a12.72,12.72,0,0,0,1.25-.54l.31-.16c.29-.15.58-.32.87-.49l.41-.26c.26-.17.52-.35.77-.54l.32-.23c.34-.27.67-.55,1-.85l.21-.21c.25-.24.5-.5.73-.77.09-.09.17-.19.25-.28q.33-.39.63-.81l.19-.26c.24-.34.47-.7.68-1.06l0-.07c.22-.39.43-.79.62-1.21.05-.1.09-.22.13-.32s.2-.45.29-.68l16-42.55,16,42.55a15,15,0,0,0,28.09-10.53Z"/><path class="cls-3" d="M1349.45,143.16a15,15,0,0,0-21,2.64l-23.16,29.8-23.15-29.8a15,15,0,0,0-23.69,18.41l31.84,41V235a15,15,0,0,0,30,0V205.19l31.85-41A15,15,0,0,0,1349.45,143.16Z"/><path class="cls-3" d="M1450.85,144.4a15,15,0,0,0-21.21,0l-34.4,34.42V155a15,15,0,0,0-30,0v80a15,15,0,0,0,30,0V221.26l12-12,20.1,33.5a15,15,0,1,0,25.72-15.43l-24-39.95,21.71-21.73A15,15,0,0,0,1450.85,144.4Z"/><path class="cls-3" d="M1581.33,156.11a55,55,0,1,0,77.78,0A55.05,55.05,0,0,0,1581.33,156.11Zm21.21,56.57a25,25,0,1,1,35.35,0A25,25,0,0,1,1602.54,212.68Z"/><path class="cls-3" d="M1860.24,220.05h-45V210h25a15,15,0,0,0,0-30h-25v-9.95h45a15,15,0,0,0,0-30h-59.07c-.31,0-.61-.05-.93-.05a15,15,0,0,0-15,15v80.05a15,15,0,0,0,15,15h60a15,15,0,0,0,0-30Z"/><path class="cls-3" d="M1555.24,180a40,40,0,0,0-40-40h-35a15,15,0,0,0-15,15v80a15,15,0,0,0,30,0V220h18.51l13.63,22.72a15,15,0,1,0,25.72-15.43l-10.74-17.91A39.94,39.94,0,0,0,1555.24,180Zm-60-10h20a10,10,0,0,1,0,20h-20Z"/><path class="cls-2" d="M1290.87,474.88h-111l-21.38,45.74c-4.12,7.5-9.37,12.38-19.12,12.38a21.2,21.2,0,0,1-21.75-21.38,20,20,0,0,1,2.25-9l96-213.37c3.37-7.5,9.75-12,19.5-12s16.12,4.13,19.5,12l96,213.37a20,20,0,0,1,2.25,9A21.2,21.2,0,0,1,1331.37,533c-9.75,0-15-4.5-19.13-12.38Zm-55.5-135.38-39,95.25h78Z"/><path class="cls-2" d="M1483.24,323.38h-64.13V509.75A23.37,23.37,0,0,1,1395.86,533c-12.75,0-22.5-10.5-22.5-23.25V323.38h-64.5a21.57,21.57,0,1,1,0-43.13h174.38A21.77,21.77,0,0,1,1505,302,21.46,21.46,0,0,1,1483.24,323.38Z"/><path class="cls-2" d="M1537.91,530a23.37,23.37,0,0,1-23.25-23.25V300.5a23.37,23.37,0,0,1,23.25-23.25c12.75,0,22.5,10.5,22.5,23.25V486.88h109.5a21.36,21.36,0,0,1,21.37,21.37A21.94,21.94,0,0,1,1669.91,530Z"/><path class="cls-2" d="M1873.9,474.88h-111l-21.37,45.74c-4.13,7.5-9.38,12.38-19.13,12.38a21.2,21.2,0,0,1-21.75-21.38,20,20,0,0,1,2.25-9l96-213.37c3.38-7.5,9.75-12,19.5-12s16.13,4.13,19.5,12l96,213.37a20,20,0,0,1,2.25,9A21.2,21.2,0,0,1,1914.4,533c-9.75,0-15-4.5-19.12-12.38ZM1818.4,339.5l-39,95.25h78Z"/><path class="cls-2" d="M2040.92,534.5c-30.37,0-64.87-9.38-86.62-26.25-7.5-6-12.75-13.5-12.75-21.75,0-11.62,7.5-19.5,19.12-19.5a21.9,21.9,0,0,1,11.63,3.38c20.25,12.74,34.12,24,69.37,24,36,0,50.25-14.63,50.25-31.5,0-18.38-14.62-27.76-59.62-39.76-67.88-18-88.13-39.74-88.13-77.24,0-45.76,39.38-70.13,99-70.13a191.72,191.72,0,0,1,48,6.75c17.25,4.88,39,15.75,39,30.75,0,10.13-6,20.63-18.75,20.63a19.45,19.45,0,0,1-9-1.88c-17.25-7.88-35.25-15.75-58.87-15.75-33.38,0-53.63,9-53.63,28.5,0,18.37,15,24.75,60,37.87,51.38,15,87.75,29.63,87.75,77.63C2137.67,503.75,2104.67,534.5,2040.92,534.5Z"/><path class="cls-1" d="M1285,823H1143.73a23.15,23.15,0,0,1-23.35-23V595.08a23.16,23.16,0,0,1,23.35-23h135.61c12.06,0,21.85,9,21.85,21.1a21.54,21.54,0,0,1-21.85,21.47h-113v59.9h62.16A21.45,21.45,0,0,1,1250,696a21.14,21.14,0,0,1-21.47,21.09h-62.16v63.29H1285a21.54,21.54,0,0,1,21.85,21.47C1306.84,813.94,1297.05,823,1285,823Z"/><path class="cls-1" d="M1511.53,826c-7.15,0-12.43-2.64-16.57-7.92L1365,653.85V804.52a21.66,21.66,0,0,1-43.32,0V590.94c0-11.68,8.66-21.85,22.6-21.85A20.94,20.94,0,0,1,1360.1,577l130,164.24V590.94c0-11.68,8.67-21.85,21.47-21.85a21.62,21.62,0,0,1,21.85,21.85V804.52C1533.38,816.2,1524.34,826,1511.53,826Z"/><path class="cls-1" d="M1740.18,615.42h-64.41V802.64A23.48,23.48,0,0,1,1652.41,826c-12.81,0-22.6-10.55-22.6-23.36V615.42H1565a21.66,21.66,0,1,1,0-43.32h175.16A21.87,21.87,0,0,1,1762,594,21.55,21.55,0,0,1,1740.18,615.42Z"/><path class="cls-1" d="M1936.36,823H1795.1a23.15,23.15,0,0,1-23.36-23V595.08a23.16,23.16,0,0,1,23.36-23h135.61c12,0,21.84,9,21.84,21.1a21.54,21.54,0,0,1-21.84,21.47h-113v59.9h62.15A21.45,21.45,0,0,1,1901.32,696a21.14,21.14,0,0,1-21.47,21.09H1817.7v63.29h118.66a21.54,21.54,0,0,1,21.85,21.47C1958.21,813.94,1948.41,823,1936.36,823Z"/><path class="cls-1" d="M2181,803a22.81,22.81,0,0,1-23,23c-10.17,0-16.58-4.52-20.34-12.43l-44.08-90.79h-75.71V803a23,23,0,0,1-46,0V595.08a22.84,22.84,0,0,1,23-23h96.81c62.53,0,89.28,30.89,89.28,75.34,0,29.39-12.81,54.62-41.44,67.06l38.8,78.72A22.38,22.38,0,0,1,2181,803Zm-82.88-188.73h-80.23v68.94h80.23c25.24,0,36.54-18.46,36.54-35.41C2134.68,631.25,2123.38,614.29,2098.14,614.29Z"/><path class="cls-1" d="M2225.46,826a23.48,23.48,0,0,1-23.35-23.36V592.45a23.48,23.48,0,0,1,23.35-23.36c12.81,0,22.61,10.55,22.61,23.36V802.64C2248.07,815.45,2238.27,826,2225.46,826Z"/><path class="cls-1" d="M2447.33,764.22c4.9-3.39,9.8-5.28,15.07-5.28,12.81,0,20.72,9.8,20.72,21.1,0,6-2.64,10.92-7.16,15.44-21.47,22.23-54.62,32-84,32-73.83,0-128.08-51.23-128.08-130s54.25-130,128.08-130c29.38,0,62.53,9.8,84,32,4.52,4.52,7.16,9.42,7.16,15.45,0,11.3-7.91,21.09-20.72,21.09-5.27,0-10.17-1.88-15.07-5.27-14.31-10.93-29.76-20.72-55.37-20.72-49.35,0-81.74,37.29-81.74,87.39s32.39,87.4,81.74,87.4C2417.57,784.94,2433,775.14,2447.33,764.22Z"/><path class="cls-1" d="M2592.66,827.5c-30.51,0-65.17-9.42-87-26.37-7.53-6-12.81-13.56-12.81-21.84,0-11.68,7.54-19.59,19.22-19.59a22,22,0,0,1,11.67,3.39c20.34,12.81,34.28,24.11,69.69,24.11,36.16,0,50.48-14.69,50.48-31.65,0-18.45-14.69-27.87-59.9-39.93-68.18-18.08-88.52-39.92-88.52-77.59,0-46,39.55-70.45,99.45-70.45a192.54,192.54,0,0,1,48.21,6.78c17.33,4.9,39.18,15.83,39.18,30.89,0,10.17-6,20.72-18.83,20.72a19.59,19.59,0,0,1-9-1.88c-17.33-7.91-35.41-15.82-59.15-15.82-33.52,0-53.86,9-53.86,28.63,0,18.45,15.07,24.86,60.27,38,51.61,15.07,88.14,29.76,88.14,78C2689.84,796.61,2656.7,827.5,2592.66,827.5Z"/><polygon class="cls-5" points="417.27 374.99 359.53 475 417.26 574.99 532.74 574.99 590.47 475 532.73 374.99 417.27 374.99"/></svg>