<svg id="Layer_4" data-name="Layer 4" xmlns="http://www.w3.org/2000/svg" viewBox="0 0 2087.18 950"><title>atlas-tb-logo</title><path d="M424.85,950a100,100,0,0,1-50.1-186.62L699.51,575.9a100,100,0,1,1,100,173.2L474.76,936.6A99.6,99.6,0,0,1,424.85,950Z" style="fill:#0d7da0"/><path d="M749.51,762.5a100,100,0,0,1-100-100v-375a100,100,0,0,1,200,0v375A100,100,0,0,1,749.51,762.5Z" style="fill:#ffab2e"/><path d="M749.42,387.52a99.47,99.47,0,0,1-49.91-13.42L374.76,186.6a100,100,0,1,1,100-173.2L799.51,200.9a100,100,0,0,1-50.09,186.62Z" style="fill:#0d7da0"/><path d="M100.09,387.52A100,100,0,0,1,50,200.9L374.76,13.4a100,100,0,1,1,100,173.2L150,374.1A99.57,99.57,0,0,1,100.09,387.52Z" style="fill:#ffab2e"/><path d="M100,762.5A100,100,0,0,1,0,662.5v-375a100,100,0,0,1,200,0v375A100,100,0,0,1,100,762.5Z" style="fill:#0d7da0"/><path d="M424.66,950a99.5,99.5,0,0,1-49.91-13.42L50,749.1A100,100,0,1,1,150,575.9L474.76,763.4A100,100,0,0,1,424.66,950Z" style="fill:#ffab2e"/><path d="M1710.57,188.49a32.48,32.48,0,0,0-28.31-48.44h-32.5a15,15,0,0,0-15,15v80a15,15,0,0,0,15,15h37.5a37.5,37.5,0,0,0,37.5-37.5A27.49,27.49,0,0,0,1710.57,188.49Zm-28.31-18.44a7.5,7.5,0,0,1,0,15h-17.5v-15Zm5,50h-22.5v-15h22.5a7.5,7.5,0,0,1,0,15Z" style="fill:#0d561e"/><path d="M1188.8,149.74c0-.15-.12-.28-.18-.43s-.21-.5-.33-.74-.22-.44-.33-.66-.23-.41-.35-.62-.28-.44-.42-.66l-.39-.55-.48-.62-.45-.52-.52-.54-.53-.51-.52-.45c-.21-.16-.41-.33-.62-.48s-.36-.26-.55-.38l-.67-.43-.6-.34-.68-.35-.71-.31L1180,141a1.17,1.17,0,0,0-.2-.06c-.25-.1-.52-.17-.78-.25s-.43-.14-.64-.19l-.77-.16c-.23-.05-.46-.1-.68-.13s-.5-.06-.75-.08l-.71-.07c-.25,0-.5,0-.74,0s-.48,0-.72,0l-.73.07c-.25,0-.49,0-.73.08s-.46.08-.69.13l-.77.16-.63.18c-.27.08-.54.16-.8.26l-.19.06c-.15,0-.29.13-.43.19s-.5.2-.74.32-.44.22-.65.33l-.63.35-.65.42-.56.39-.61.48c-.18.15-.36.3-.53.46l-.53.5-.52.54-.44.52c-.17.2-.33.41-.49.62s-.26.36-.38.55-.29.43-.43.66l-.35.63c-.11.21-.23.42-.33.65s-.22.49-.33.74-.12.28-.18.43l-16,42.54-16-42.54c0-.15-.12-.28-.18-.43s-.21-.5-.33-.74-.22-.44-.33-.66-.23-.41-.35-.62-.28-.44-.43-.66-.25-.37-.38-.55-.32-.42-.49-.62l-.44-.52-.52-.54-.52-.5-.54-.46-.6-.48-.57-.39-.65-.42-.63-.35c-.21-.12-.43-.23-.65-.33s-.49-.22-.74-.33-.28-.13-.43-.18l-.19-.06c-.27-.1-.54-.18-.82-.26l-.6-.18c-.27-.07-.54-.12-.81-.17s-.43-.09-.65-.12-.52-.06-.78-.08l-.68-.07c-.25,0-.51,0-.76,0s-.47,0-.7,0l-.74.07c-.24,0-.48,0-.72.08s-.46.08-.69.13l-.77.16-.63.18c-.27.08-.54.16-.8.26a1.39,1.39,0,0,0-.19.06l-.44.19-.73.31-.66.34-.62.35-.66.42-.55.39-.61.48-.53.45c-.18.17-.36.34-.53.52s-.35.35-.51.53-.31.35-.46.53l-.48.61-.39.55c-.14.22-.28.43-.42.66s-.23.42-.35.63-.23.43-.33.65-.22.49-.33.74-.12.28-.18.43l-30,80a15,15,0,1,0,28.09,10.53l16-42.55,16,42.55c.09.23.19.45.29.68a3.05,3.05,0,0,0,.13.32c.19.42.4.82.62,1.21l0,.06c.21.37.44.73.68,1.07l.2.26q.3.42.63.81l.24.28c.24.27.49.53.74.77l.21.21a11.63,11.63,0,0,0,1,.85l.31.23c.26.19.51.37.78.54l.41.26c.28.17.58.34.87.49l.3.16c.41.2.83.38,1.25.54l.09,0,.25.08c.29.1.58.2.87.28l.43.12c.26.07.53.13.8.18l.45.08q.4.08.84.12l.4,0a11.9,11.9,0,0,0,1.2.06h0A12.1,12.1,0,0,0,1146,250l.4,0,.83-.11.45-.09c.27-.05.54-.11.8-.18l.44-.12c.29-.08.57-.18.86-.28l.25-.08.09,0c.42-.16.84-.34,1.25-.54l.3-.16c.3-.15.59-.32.87-.49l.41-.26q.4-.26.78-.54l.32-.23c.34-.27.67-.55,1-.85l.2-.21c.25-.24.5-.5.74-.77l.24-.28c.22-.26.43-.53.64-.81l.19-.26c.24-.34.47-.7.68-1.07l0-.06c.22-.39.43-.79.62-1.21,0-.1.09-.21.14-.32s.19-.45.28-.68l16-42.55,16,42.55a15,15,0,0,0,28.09-10.53Z" style="fill:#0d561e"/><path d="M1299,143.16a15,15,0,0,0-21,2.64l-23.15,29.8-23.16-29.8a15,15,0,0,0-23.69,18.41l31.85,41V235a15,15,0,0,0,30,0V205.19l31.84-41A15,15,0,0,0,1299,143.16Z" style="fill:#0d561e"/><path d="M1400.36,144.4a15,15,0,0,0-21.21,0l-34.39,34.42V155a15,15,0,0,0-30,0v80a15,15,0,0,0,30,0V221.26l12-12,20.1,33.5a15,15,0,0,0,25.73-15.43l-24-39.95,21.71-21.73A15,15,0,0,0,1400.36,144.4Z" style="fill:#0d561e"/><path d="M1530.84,156.11a55,55,0,1,0,77.78,0A55.05,55.05,0,0,0,1530.84,156.11Zm21.21,56.57a25,25,0,1,1,35.36,0A25,25,0,0,1,1552.05,212.68Z" style="fill:#0d561e"/><path d="M1809.76,220.05h-45V210h25a15,15,0,0,0,0-30h-25v-9.95h45a15,15,0,0,0,0-30h-59.08c-.3,0-.61-.05-.92-.05a15,15,0,0,0-15,15v80.05a15,15,0,0,0,15,15h60a15,15,0,0,0,0-30Z" style="fill:#0d561e"/><path d="M1504.76,180a40.05,40.05,0,0,0-40-40h-35a15,15,0,0,0-15,15v80a15,15,0,0,0,30,0V220h18.5l13.63,22.72a15,15,0,0,0,25.73-15.43l-10.75-17.91A39.91,39.91,0,0,0,1504.76,180Zm-60-10h20a10,10,0,0,1,0,20h-20Z" style="fill:#0d561e"/><path d="M1240.38,474.88h-111L1108,520.62c-4.13,7.5-9.38,12.38-19.13,12.38a21.2,21.2,0,0,1-21.75-21.38,20,20,0,0,1,2.25-9l96-213.37c3.38-7.5,9.75-12,19.5-12s16.13,4.13,19.5,12l96,213.37a20,20,0,0,1,2.25,9A21.2,21.2,0,0,1,1280.88,533c-9.75,0-15-4.5-19.12-12.38Zm-55.5-135.38-39,95.25h78Z" style="fill:#0d7da0"/><path d="M1432.75,323.38h-64.13V509.75A23.36,23.36,0,0,1,1345.38,533c-12.76,0-22.5-10.5-22.5-23.25V323.38h-64.5a21.57,21.57,0,1,1,0-43.13h174.37A21.77,21.77,0,0,1,1454.5,302,21.46,21.46,0,0,1,1432.75,323.38Z" style="fill:#0d7da0"/><path d="M1487.42,530a23.37,23.37,0,0,1-23.25-23.25V300.5a23.37,23.37,0,0,1,23.25-23.25c12.75,0,22.5,10.5,22.5,23.25V486.88h109.5a21.36,21.36,0,0,1,21.37,21.37A21.94,21.94,0,0,1,1619.42,530Z" style="fill:#0d7da0"/><path d="M1823.42,474.88h-111L1691,520.62c-4.12,7.5-9.37,12.38-19.12,12.38a21.2,21.2,0,0,1-21.75-21.38,20,20,0,0,1,2.25-9l96-213.37c3.37-7.5,9.75-12,19.5-12s16.12,4.13,19.5,12l96,213.37a20,20,0,0,1,2.25,9A21.2,21.2,0,0,1,1863.92,533c-9.75,0-15-4.5-19.13-12.38Zm-55.5-135.38-39,95.25h78Z" style="fill:#0d7da0"/><path d="M1990.44,534.5c-30.38,0-64.88-9.38-86.63-26.25-7.5-6-12.75-13.5-12.75-21.75,0-11.62,7.5-19.5,19.13-19.5a21.89,21.89,0,0,1,11.62,3.38c20.25,12.74,34.13,24,69.38,24,36,0,50.25-14.63,50.25-31.5,0-18.38-14.63-27.76-59.63-39.76-67.87-18-88.12-39.74-88.12-77.24,0-45.76,39.37-70.13,99-70.13a191.78,191.78,0,0,1,48,6.75c17.25,4.88,39,15.75,39,30.75,0,10.13-6,20.63-18.75,20.63a19.45,19.45,0,0,1-9-1.88c-17.25-7.88-35.25-15.75-58.88-15.75-33.37,0-53.62,9-53.62,28.5,0,18.37,15,24.75,60,37.87,51.37,15,87.75,29.63,87.75,77.63C2087.19,503.75,2054.19,534.5,1990.44,534.5Z" style="fill:#0d7da0"/><path d="M1265.88,603.38h-64.12V789.75A23.37,23.37,0,0,1,1178.51,813c-12.75,0-22.5-10.5-22.5-23.25V603.38h-64.5a21.57,21.57,0,1,1,0-43.13h174.37A21.77,21.77,0,0,1,1287.63,582,21.45,21.45,0,0,1,1265.88,603.38Z" style="fill:#ffab2e;stroke:#ffab2e;stroke-miterlimit:10"/><path d="M1410.55,810h-90.37a23.05,23.05,0,0,1-22.88-23.25V583.12a22.73,22.73,0,0,1,22.88-22.87h86.62c49.88,0,78.75,25.87,78.75,61.87,0,25.13-15.75,42.76-39.75,53.63,32.63,7.5,53.25,31.13,53.25,62.63C1499.05,775.5,1468.68,810,1410.55,810Zm-1.87-208.88h-65.63v56.63h65.63c21,0,30.75-14.25,30.75-28.87C1439.43,612.38,1428.18,601.12,1408.68,601.12Zm5.25,97.5h-70.88v70.5h71.25c23.63,0,39-13.87,39-36C1453.3,714.38,1439.05,698.62,1413.93,698.62Z" style="fill:#ffab2e;stroke:#ffab2e;stroke-miterlimit:10"/><path d="M849.51,661a100,100,0,0,0-150-85.14l-50,28.86V662.5a100,100,0,0,0,148.77,87.31l1.23-.71c2.22-1.28,4.36-2.63,6.44-4l.34-.24c.5-.34,1-.69,1.48-1l1.17-.85.58-.43A100.5,100.5,0,0,0,835,714.39l.16-.27q.5-.81,1-1.62c.3-.53.6-1,.89-1.58l.19-.33a100.61,100.61,0,0,0,11.58-36.11c0-.26.06-.52.09-.78.06-.46.1-.92.15-1.37.06-.63.12-1.26.17-1.89l0-.33c.18-2.51.28-5.05.28-7.61Z" style="fill:#0d561e"/><path d="M468.06,9.86l-.48-.23-1.53-.71-1.41-.62-.58-.25A100.46,100.46,0,0,0,427,0h-.35c-.61,0-1.23,0-1.84,0s-1.24,0-1.85,0h-.35a100.46,100.46,0,0,0-37.11,8l-.57.24-1.42.63-1.52.71-.49.23c-2.26,1.09-4.49,2.26-6.69,3.54l-1.2.69a100,100,0,0,0,1.2,172.51l50,28.87,50-28.87A100,100,0,0,0,476,14.09l-1.2-.69C472.55,12.12,470.32,11,468.06,9.86Z" style="fill:#0d561e"/><path d="M150,575.9A100,100,0,0,0,0,661v1.46q0,3.84.29,7.61c0,.11,0,.22,0,.33,0,.63.11,1.26.17,1.89l.15,1.37.09.78a100.43,100.43,0,0,0,11.59,36.11l.18.33c.29.53.59,1.05.89,1.58l1,1.62.16.27A100.54,100.54,0,0,0,40,742.5l.57.43,1.17.85c.49.35,1,.7,1.48,1l.35.24c2.07,1.41,4.22,2.76,6.43,4l1.24.71A100,100,0,0,0,200,662.5V604.76Z" style="fill:#0d561e"/><path d="M836.11,337.5A99.47,99.47,0,0,0,849.51,289V287.5c0-2.56-.1-5.1-.28-7.61l0-.34c-.05-.63-.11-1.25-.17-1.88,0-.46-.09-.92-.15-1.37,0-.26,0-.53-.09-.79a100.62,100.62,0,0,0-11.58-36.1c-.07-.11-.13-.22-.19-.33-.29-.53-.59-1.06-.89-1.59l-1-1.6-.17-.28a100.44,100.44,0,0,0-25.48-28.1l-.62-.46-1.13-.82-1.53-1.08L806,205q-3.12-2.13-6.45-4l-1.26-.73A100,100,0,0,0,649.51,287.5v57.73l50,28.87a99.94,99.94,0,0,0,136.6-36.6Z" style="fill:#0d561e"/><path d="M200,287.5A100,100,0,0,0,51.26,200.17L50,200.9q-3.33,1.92-6.45,4l-.29.2-1.53,1.08-1.13.82-.62.46a100.44,100.44,0,0,0-25.48,28.1l-.17.28-.95,1.6-.89,1.59-.18.33A100.44,100.44,0,0,0,.72,275.51l-.09.79-.15,1.37c-.06.63-.12,1.25-.17,1.88,0,.11,0,.22,0,.34Q0,283.65,0,287.5V289A100,100,0,0,0,150,374.1l50-28.87Z" style="fill:#0d561e"/><path d="M511.36,900a100,100,0,0,0-36.6-136.6l-50-28.87-50,28.87a100,100,0,0,0-1,172.64l1,.56q3,1.71,6,3.19h0c.77.38,1.54.73,2.31,1.09l.9.42,1.14.49a99.73,99.73,0,0,0,79.48-.06l1-.42,1-.49c.72-.33,1.44-.66,2.16-1l.16-.08q3-1.47,5.85-3.13l.8-.46A99.51,99.51,0,0,0,511.36,900Z" style="fill:#0d561e"/></svg>