<svg xmlns="http://www.w3.org/2000/svg" viewBox="0 0 2087.42 950"><defs><style>.a{isolation:isolate;}.b{fill:#750019;}.c{font-size:375px;fill:#8f0030;font-family:BryantPro-Bold, Bryant Pro;font-weight:700;letter-spacing:-0.23em;}.d{letter-spacing:-0.07em;}.e{letter-spacing:-0.03em;}.f{letter-spacing:-0.07em;}.g{letter-spacing:-0.05em;}.h{font-size:376.69px;fill:#d16293;letter-spacing:-0.06em;}.i{letter-spacing:-0.14em;}.j{letter-spacing:-0.1em;}.k{letter-spacing:-0.08em;}.l{letter-spacing:-0.07em;}.m{letter-spacing:-0.05em;}.n,.o{fill:none;stroke-linecap:round;stroke-linejoin:round;stroke-width:200px;mix-blend-mode:multiply;}.n{stroke:#8f0030;}.o{stroke:#d16293;}</style></defs><title>atlas-ecoli-logo</title><g class="a"><path class="b" d="M1647.52,140.05a15,15,0,0,0-15,15v80a15,15,0,0,0,30,0v-80A15,15,0,0,0,1647.52,140.05Z"/><path class="b" d="M1722.52,212.55a27.5,27.5,0,0,0-27.5-27.5h-37.5a10,10,0,0,0,0,20H1685a7.5,7.5,0,0,1,0,15h-37.5a15,15,0,0,0,0,30H1685a37.5,37.5,0,0,0,37.5-37.5"/><path class="b" d="M1677.52,205.05a10,10,0,0,1,0-20h2.5a7.5,7.5,0,0,0,0-15h-32.5a15,15,0,0,1,0-30H1680a32.5,32.5,0,0,1,0,65h-2.5"/><path class="b" d="M1330,250a15,15,0,0,1-15-15V155a15,15,0,0,1,30,0v80A15,15,0,0,1,1330,250Z"/><path class="b" d="M1085,250a15,15,0,0,1-14-20.27l30-80A15,15,0,1,1,1129,160.27l-30,80A15,15,0,0,1,1085,250Z"/><path class="b" d="M1205,250a15,15,0,0,1-14-9.74l-30-80A15,15,0,1,1,1189,149.74l30,80A15,15,0,0,1,1205,250Z"/><path class="b" d="M1145,250a15,15,0,0,1-14-20.27l30-80A15,15,0,1,1,1189,160.27l-30,80A15,15,0,0,1,1145,250Z"/><path class="b" d="M1145,250a15,15,0,0,1-14-9.74l-30-80A15,15,0,1,1,1129,149.74l30,80A15,15,0,0,1,1145,250Z"/><path class="b" d="M1255,250a15,15,0,0,1-15-15V200.05a15,15,0,0,1,3.16-9.2l35-45a15,15,0,1,1,23.68,18.41l-31.84,41V235A15,15,0,0,1,1255,250Z"/><path class="b" d="M1334.39,225.66a15,15,0,0,1-10.6-25.61l55.6-55.65a15,15,0,1,1,21.22,21.21L1345,221.26A15,15,0,0,1,1334.39,225.66Z"/><path class="b" d="M1390,250a15,15,0,0,1-12.87-7.29l-24-40a15,15,0,0,1,25.73-15.43l24,40A15,15,0,0,1,1390,250Z"/><path class="b" d="M1430,250a15,15,0,0,1-15-15V155a15,15,0,0,1,30,0v80A15,15,0,0,1,1430,250Z"/><path class="b" d="M1567.5,250a55,55,0,0,1-38.9-93.87,15,15,0,1,1,21.22,21.22,25,25,0,1,0,35.35,35.35,15,15,0,1,1,21.22,21.21A54.82,54.82,0,0,1,1567.5,250Z"/><path class="b" d="M1595.78,238.29a15,15,0,0,1-10.61-25.61,25,25,0,0,0-35.35-35.35,15,15,0,0,1-21.22-21.22,55,55,0,0,1,77.79,77.78A15,15,0,0,1,1595.78,238.29Z"/><path class="b" d="M1807.52,170.05h-60a15,15,0,0,1,0-30h60a15,15,0,0,1,0,30Z"/><path class="b" d="M1807.52,250.05h-60a15,15,0,0,1,0-30h60a15,15,0,0,1,0,30Z"/><path class="b" d="M1747.52,250a15,15,0,0,1-15-15V155a15,15,0,0,1,30,0v80A15,15,0,0,1,1747.52,250Z"/><path class="b" d="M1465,220h-20a15,15,0,0,1,0-30h20a10,10,0,0,0,0-20h-35a15,15,0,0,1,0-30h35a40,40,0,0,1,0,80Z"/><path class="b" d="M1490,250a15,15,0,0,1-12.87-7.29L1463.51,220a15,15,0,1,1,25.72-15.43l13.63,22.72A15,15,0,0,1,1490,250Z"/><path class="b" d="M1255,215.05a15,15,0,0,1-11.85-5.8l-35-45a15,15,0,1,1,23.68-18.41l35,45a15,15,0,0,1-11.83,24.2Z"/><path class="b" d="M1787.52,210h-25a15,15,0,0,1,0-30h25a15,15,0,0,1,0,30Z"/><text class="c" transform="translate(1055 530)">A<tspan class="d" x="174.37" y="0">T</tspan><tspan class="e" x="379.41" y="0">L</tspan><tspan class="f" x="583.04" y="0">A</tspan><tspan class="g" x="815.68" y="0">S</tspan><tspan class="h"><tspan x="-15" y="292.98">E</tspan><tspan class="i" x="191.43" y="292.98">.</tspan><tspan class="j" x="234.36" y="292.98">C</tspan><tspan class="k" x="447.19" y="292.98">O</tspan><tspan class="l" x="706.73" y="292.98">L</tspan><tspan class="m" x="896.95" y="292.98">I</tspan></tspan></text><line class="n" x1="424.76" y1="100" x2="424.76" y2="850"/><line class="o" x1="100" y1="287.51" x2="749.52" y2="662.49"/><line class="o" x1="100.01" y1="662.51" x2="749.52" y2="287.48"/></g></svg>