<svg id="Layer_4" data-name="Layer 4" xmlns="http://www.w3.org/2000/svg" viewBox="0 0 2639.11 950"><title>atlas-s-aureus-logo</title><circle cx="437.52" cy="195" r="195" style="fill:#9ba38b"/><circle cx="680.01" cy="615" r="195" transform="translate(-235.7 660.97) rotate(-45)" style="fill:#9ba38b"/><circle cx="195.03" cy="615" r="195" transform="translate(-377.75 318.04) rotate(-45)" style="fill:#9ba38b"/><circle cx="437.52" cy="755" r="195" style="fill:#7759b5"/><circle cx="195.03" cy="335" r="195" transform="translate(-179.76 236.03) rotate(-45)" style="fill:#7759b5"/><circle cx="680.01" cy="335" r="195" transform="translate(-37.71 578.96) rotate(-45)" style="fill:#7759b5"/><path d="M1723.34,188.49A32.5,32.5,0,0,0,1695,140.05h-32.5a15,15,0,0,0-15,15v80a15,15,0,0,0,15,15H1700a37.5,37.5,0,0,0,37.5-37.5A27.5,27.5,0,0,0,1723.34,188.49ZM1695,170.05a7.5,7.5,0,0,1,0,15h-17.5v-15Zm5,50h-22.5v-15H1700a7.5,7.5,0,0,1,0,15Z" style="fill:#483963"/><path d="M1201.56,149.74c0-.15-.12-.28-.18-.43s-.21-.5-.32-.74-.22-.44-.34-.66-.22-.41-.35-.62-.27-.44-.42-.66-.25-.37-.39-.55-.31-.42-.48-.62-.29-.35-.45-.52l-.51-.54-.54-.51-.52-.45c-.2-.16-.41-.33-.62-.48l-.54-.38-.67-.43-.61-.34c-.22-.12-.44-.24-.67-.35l-.72-.31-.44-.19-.2-.06c-.26-.1-.52-.17-.79-.25s-.42-.14-.64-.19l-.77-.16c-.23-.05-.45-.1-.68-.13s-.5-.06-.75-.08l-.71-.07c-.24,0-.49,0-.74,0s-.48,0-.72,0l-.73.07c-.24,0-.49,0-.73.08s-.46.08-.69.13l-.76.16c-.22,0-.43.12-.64.18s-.53.16-.79.26l-.2.06-.43.19c-.25.1-.49.2-.73.32s-.44.22-.66.33l-.62.35-.66.42-.56.39-.61.48-.53.46-.53.5c-.17.18-.35.36-.51.54s-.3.35-.45.52-.33.41-.49.62-.26.36-.38.55-.29.43-.42.66-.24.42-.35.63-.23.42-.34.65-.22.49-.32.75-.13.27-.19.42l-16,42.54-16-42.54c0-.15-.12-.28-.18-.43s-.21-.5-.32-.74-.22-.44-.34-.66-.22-.41-.35-.62-.28-.44-.42-.66l-.38-.55c-.16-.21-.32-.42-.49-.62s-.29-.35-.45-.52-.34-.36-.52-.54-.34-.34-.52-.5l-.54-.46c-.19-.17-.39-.32-.6-.48l-.56-.39-.65-.42c-.21-.12-.42-.24-.64-.35s-.42-.23-.64-.33l-.75-.33c-.14-.06-.28-.13-.42-.18l-.19-.06c-.27-.1-.55-.18-.82-.26l-.61-.18c-.27-.07-.54-.12-.81-.17l-.64-.12c-.26,0-.52-.06-.78-.08l-.68-.07c-.26,0-.51,0-.77,0s-.46,0-.7,0l-.73.07c-.25,0-.49,0-.73.08s-.46.08-.69.13l-.76.16c-.22,0-.43.12-.64.18s-.53.16-.79.26l-.2.06-.43.19-.73.31-.66.34-.62.35-.67.42-.55.39-.61.48-.52.45c-.19.17-.37.34-.54.52l-.51.53c-.16.17-.31.35-.45.53s-.33.4-.48.61-.27.37-.39.55-.29.43-.42.66-.24.42-.35.63-.23.43-.34.65-.22.49-.32.74-.13.28-.19.43l-30,80a15,15,0,1,0,28.09,10.53l16-42.55,16,42.55c.09.23.19.45.29.68s.09.22.14.32a12.51,12.51,0,0,0,.62,1.21l0,.07c.21.36.44.72.68,1.06l.19.26q.3.42.63.81c.09.09.17.19.25.28.24.27.48.53.74.77l.2.21c.32.3.65.58,1,.85l.32.23c.25.19.51.37.77.54l.41.26c.29.17.58.34.88.49l.3.16c.41.2.82.38,1.25.54l.08,0,.26.08c.28.1.57.2.86.28l.43.12c.27.07.53.13.8.18l.45.08q.42.08.84.12l.4,0q.6.06,1.2.06h.06q.6,0,1.2-.06l.4,0,.84-.11.45-.09c.27-.05.53-.11.79-.18l.44-.12c.29-.08.57-.18.85-.28l.27-.08.08,0c.43-.16.84-.34,1.25-.54l.31-.16c.29-.16.58-.32.86-.49a4.28,4.28,0,0,0,.42-.26c.26-.17.52-.35.76-.53l.33-.24c.34-.27.67-.55,1-.85l.21-.22c.25-.24.49-.49.73-.75l.25-.3a10.09,10.09,0,0,0,.63-.8l.19-.26c.24-.34.47-.69.68-1.06l0-.07a12.51,12.51,0,0,0,.62-1.21c0-.1.09-.21.14-.32s.2-.45.28-.68l16-42.55,16,42.55a15,15,0,1,0,28.09-10.53Z" style="fill:#483963"/><path d="M1311.72,143.16a15,15,0,0,0-21,2.64l-23.16,29.8-23.16-29.8a15,15,0,1,0-23.68,18.41l31.84,41V235a15,15,0,0,0,30,0V205.19l31.84-41A15,15,0,0,0,1311.72,143.16Z" style="fill:#483963"/><path d="M1413.13,144.4a15,15,0,0,0-21.22,0l-34.39,34.42V155a15,15,0,0,0-30,0v80a15,15,0,0,0,30,0V221.26l12-12,20.11,33.5a15,15,0,1,0,25.72-15.43l-24-39.95,21.72-21.73A15,15,0,0,0,1413.13,144.4Z" style="fill:#483963"/><path d="M1543.6,156.11a55,55,0,1,0,77.78,0A55.07,55.07,0,0,0,1543.6,156.11Zm21.22,56.57a25,25,0,1,1,35.35,0A25,25,0,0,1,1564.82,212.68Z" style="fill:#483963"/><path d="M1822.52,220.05h-45V210h25a15,15,0,0,0,0-30h-25v-9.95h45a15,15,0,0,0,0-30h-59.07c-.31,0-.62-.05-.93-.05a15,15,0,0,0-15,15v80.05a15,15,0,0,0,15,15h60a15,15,0,0,0,0-30Z" style="fill:#483963"/><path d="M1517.52,180a40,40,0,0,0-40-40h-35a15,15,0,0,0-15,15v80a15,15,0,0,0,30,0V220H1476l13.63,22.72a15,15,0,1,0,25.72-15.43l-10.74-17.91A39.94,39.94,0,0,0,1517.52,180Zm-60-10h20a10,10,0,0,1,0,20h-20Z" style="fill:#483963"/><path d="M1253.14,474.88h-111l-21.37,45.74c-4.13,7.5-9.38,12.38-19.13,12.38a21.2,21.2,0,0,1-21.75-21.38,20,20,0,0,1,2.25-9l96-213.37c3.38-7.5,9.75-12,19.5-12s16.13,4.13,19.5,12l96,213.37a20,20,0,0,1,2.25,9A21.2,21.2,0,0,1,1293.64,533c-9.75,0-15-4.5-19.12-12.38Zm-55.5-135.38-39,95.25h78Z" style="fill:#7759b5"/><path d="M1445.51,323.38h-64.12V509.75A23.37,23.37,0,0,1,1358.14,533c-12.75,0-22.5-10.5-22.5-23.25V323.38h-64.5a21.57,21.57,0,1,1,0-43.13h174.37A21.77,21.77,0,0,1,1467.26,302,21.45,21.45,0,0,1,1445.51,323.38Z" style="fill:#7759b5"/><path d="M1500.18,530a23.37,23.37,0,0,1-23.25-23.25V300.5a23.37,23.37,0,0,1,23.25-23.25c12.75,0,22.5,10.5,22.5,23.25V486.88h109.5a21.36,21.36,0,0,1,21.38,21.37A21.94,21.94,0,0,1,1632.18,530Z" style="fill:#7759b5"/><path d="M1836.18,474.88h-111l-21.38,45.74c-4.12,7.5-9.37,12.38-19.12,12.38a21.2,21.2,0,0,1-21.75-21.38,20,20,0,0,1,2.25-9l96-213.37c3.37-7.5,9.75-12,19.5-12s16.12,4.13,19.5,12l96,213.37a20,20,0,0,1,2.25,9A21.2,21.2,0,0,1,1876.68,533c-9.75,0-15-4.5-19.13-12.38Zm-55.5-135.38-39,95.25h78Z" style="fill:#7759b5"/><path d="M2003.2,534.5c-30.38,0-64.88-9.38-86.63-26.25-7.5-6-12.75-13.5-12.75-21.75,0-11.62,7.5-19.5,19.13-19.5a21.89,21.89,0,0,1,11.62,3.38c20.25,12.74,34.13,24,69.38,24,36,0,50.25-14.63,50.25-31.5,0-18.38-14.63-27.76-59.63-39.76-67.87-18-88.12-39.74-88.12-77.24,0-45.76,39.37-70.13,99-70.13a191.78,191.78,0,0,1,48,6.75c17.25,4.88,39,15.75,39,30.75,0,10.13-6,20.63-18.75,20.63a19.45,19.45,0,0,1-9-1.88c-17.25-7.88-35.25-15.75-58.88-15.75-33.37,0-53.62,9-53.62,28.5,0,18.37,15,24.75,60,37.87,51.37,15,87.75,29.63,87.75,77.63C2100,503.75,2067,534.5,2003.2,534.5Z" style="fill:#7759b5"/><path d="M1172.52,814.5c-30.38,0-64.88-9.38-86.63-26.25-7.5-6-12.75-13.5-12.75-21.75,0-11.62,7.5-19.5,19.13-19.5a21.89,21.89,0,0,1,11.62,3.38c20.25,12.74,34.13,24,69.38,24,36,0,50.25-14.63,50.25-31.5,0-18.38-14.63-27.76-59.63-39.76-67.87-18-88.12-39.74-88.12-77.24,0-45.76,39.37-70.13,99-70.13a191.78,191.78,0,0,1,48,6.75c17.25,4.88,39,15.75,39,30.75,0,10.13-6,20.63-18.75,20.63a19.45,19.45,0,0,1-9-1.88c-17.25-7.88-35.25-15.75-58.88-15.75-33.37,0-53.62,9-53.62,28.5,0,18.37,15,24.75,60,37.87,51.37,15,87.75,29.63,87.75,77.63C1269.27,783.75,1236.27,814.5,1172.52,814.5Z" style="fill:#9ba38b"/><path d="M1297,812.62a25.6,25.6,0,0,1-25.5-25.87,25.29,25.29,0,0,1,25.5-25.5,25.6,25.6,0,0,1,25.87,25.5A25.92,25.92,0,0,1,1297,812.62Z" style="fill:#9ba38b"/><path d="M1510,754.88H1399l-21.37,45.74c-4.13,7.5-9.38,12.38-19.13,12.38a21.2,21.2,0,0,1-21.75-21.38,20,20,0,0,1,2.25-9l96-213.37c3.38-7.5,9.75-12,19.5-12s16.13,4.13,19.5,12l96,213.37a20,20,0,0,1,2.25,9A21.2,21.2,0,0,1,1550.51,813c-9.75,0-15-4.5-19.12-12.38Zm-55.5-135.38-39,95.25h78Z" style="fill:#9ba38b"/><path d="M1734.63,580.5a22.88,22.88,0,1,1,45.75,0V709.12c0,64.5-40.12,105.38-106.87,105.38s-106.88-40.88-106.88-105.38V580.5a22.88,22.88,0,1,1,45.75,0V714c0,34.88,21,59.25,61.13,59.25s61.12-24.37,61.12-59.25Z" style="fill:#9ba38b"/><path d="M2005,790.12A22.71,22.71,0,0,1,1982.13,813c-10.13,0-16.5-4.5-20.25-12.38L1918,710.25h-75.37v79.87a22.88,22.88,0,1,1-45.75,0v-207a22.73,22.73,0,0,1,22.87-22.87h96.38c62.25,0,88.87,30.75,88.87,75,0,29.25-12.75,54.37-41.25,66.75l38.63,78.38A22.24,22.24,0,0,1,2005,790.12Zm-82.5-187.87h-79.87v68.63h79.87c25.13,0,36.38-18.38,36.38-35.26C1958.88,619.12,1947.63,602.25,1922.5,602.25Z" style="fill:#9ba38b"/><path d="M2185.37,810H2044.75a23,23,0,0,1-23.25-22.88v-204a23,23,0,0,1,23.25-22.87h135c12,0,21.75,9,21.75,21a21.44,21.44,0,0,1-21.75,21.37h-112.5v59.63h61.87a21.36,21.36,0,0,1,21.38,21.37,21,21,0,0,1-21.38,21h-61.87v63h118.12A21.45,21.45,0,0,1,2207.12,789C2207.12,801,2197.37,810,2185.37,810Z" style="fill:#9ba38b"/><path d="M2383.37,580.5a22.88,22.88,0,1,1,45.75,0V709.12c0,64.5-40.12,105.38-106.87,105.38s-106.88-40.88-106.88-105.38V580.5a22.88,22.88,0,1,1,45.75,0V714c0,34.88,21,59.25,61.13,59.25s61.12-24.37,61.12-59.25Z" style="fill:#9ba38b"/><path d="M2542.37,814.5c-30.38,0-64.88-9.38-86.63-26.25-7.5-6-12.75-13.5-12.75-21.75,0-11.62,7.5-19.5,19.13-19.5a21.89,21.89,0,0,1,11.62,3.38c20.25,12.74,34.13,24,69.38,24,36,0,50.25-14.63,50.25-31.5,0-18.38-14.63-27.76-59.63-39.76-67.87-18-88.12-39.74-88.12-77.24,0-45.76,39.37-70.13,99-70.13a191.78,191.78,0,0,1,48,6.75c17.25,4.88,39,15.75,39,30.75,0,10.13-6,20.63-18.75,20.63a19.45,19.45,0,0,1-9-1.88c-17.25-7.88-35.25-15.75-58.88-15.75-33.37,0-53.62,9-53.62,28.5,0,18.37,15,24.75,60,37.87,51.37,15,87.75,29.63,87.75,77.63C2639.12,783.75,2606.12,814.5,2542.37,814.5Z" style="fill:#9ba38b"/><path d="M242.52,755a195.53,195.53,0,0,0,5.86,47.6,195.22,195.22,0,0,0,135.8-235.21A195.07,195.07,0,0,0,242.52,755Z" style="fill:#483963"/><path d="M490.86,567.39A195.22,195.22,0,0,0,626.66,802.6a195.23,195.23,0,0,0-135.8-235.21Z" style="fill:#483963"/><path d="M97.53,446.12A195.52,195.52,0,0,0,59.24,475a195.2,195.2,0,0,0,271.6,0A195.09,195.09,0,0,0,97.53,446.12Z" style="fill:#483963"/><path d="M632.52,195a195.53,195.53,0,0,0-5.86-47.6,195.22,195.22,0,0,0-135.8,235.22C572.62,359.41,632.52,284.2,632.52,195Z" style="fill:#483963"/><path d="M292.53,166.12a195.83,195.83,0,0,0-44.15-18.72,195.23,195.23,0,0,0,135.8,235.21A195.1,195.1,0,0,0,292.53,166.12Z" style="fill:#483963"/><path d="M777.51,503.88A195.52,195.52,0,0,0,815.8,475a195.2,195.2,0,0,0-271.6,0A195.09,195.09,0,0,0,777.51,503.88Z" style="fill:#483963"/></svg>