<svg xmlns="http://www.w3.org/2000/svg" viewBox="0 0 2087.18 950"><defs><style>.a{isolation:isolate;}.b{fill:#0d561e;}.c{font-size:375px;fill:#0d7da0;font-family:BryantPro-Bold, Bryant Pro;font-weight:700;letter-spacing:-0.23em;}.d,.h{letter-spacing:-0.07em;}.e{letter-spacing:-0.03em;}.f{letter-spacing:-0.07em;}.g{letter-spacing:-0.05em;}.h{fill:#ffab2e;stroke-miterlimit:10;}.h,.k{stroke:#ffab2e;}.i{letter-spacing:-0.05em;}.j,.k{fill:none;stroke-linecap:round;stroke-linejoin:round;stroke-width:200px;mix-blend-mode:multiply;}.j{stroke:#0d7da0;}</style></defs><title>atlas-tb-logo</title><g class="a"><path class="b" d="M1649.76,140.05a15,15,0,0,0-15,15v80a15,15,0,0,0,30,0v-80A15,15,0,0,0,1649.76,140.05Z"/><path class="b" d="M1724.76,212.55a27.5,27.5,0,0,0-27.5-27.5h-37.5a10,10,0,0,0,0,20h27.5a7.5,7.5,0,0,1,0,15h-37.5a15,15,0,0,0,0,30h37.5a37.5,37.5,0,0,0,37.5-37.5"/><path class="b" d="M1679.76,205.05a10,10,0,0,1,0-20h2.5a7.5,7.5,0,0,0,0-15h-32.5a15,15,0,0,1,0-30h32.5a32.5,32.5,0,0,1,0,65h-2.5"/><path class="b" d="M1329.76,250a15,15,0,0,1-15-15V155a15,15,0,0,1,30,0v80A15,15,0,0,1,1329.76,250Z"/><path class="b" d="M1084.75,250a15,15,0,0,1-14-20.27l30-80a15,15,0,1,1,28.09,10.53l-30,80A15,15,0,0,1,1084.75,250Z"/><path class="b" d="M1204.76,250a15,15,0,0,1-14-9.74l-30-80a15,15,0,1,1,28.09-10.53l30,80a15,15,0,0,1-14,20.27Z"/><path class="b" d="M1144.75,250a15,15,0,0,1-14-20.27l30-80a15,15,0,1,1,28.09,10.53l-30,80A15,15,0,0,1,1144.75,250Z"/><path class="b" d="M1144.76,250a15,15,0,0,1-14-9.74l-30-80a15,15,0,1,1,28.09-10.53l30,80a15,15,0,0,1-14,20.27Z"/><path class="b" d="M1254.76,250a15,15,0,0,1-15-15V200.05a15,15,0,0,1,3.15-9.2l35-45a15,15,0,1,1,23.69,18.41l-31.84,41V235A15,15,0,0,1,1254.76,250Z"/><path class="b" d="M1334.15,225.66a15,15,0,0,1-10.61-25.61l55.61-55.65a15,15,0,1,1,21.21,21.21l-55.6,55.65A15,15,0,0,1,1334.15,225.66Z"/><path class="b" d="M1389.77,250a15,15,0,0,1-12.88-7.29l-24-40a15,15,0,1,1,25.72-15.43l24,40A15,15,0,0,1,1389.77,250Z"/><path class="b" d="M1429.76,250a15,15,0,0,1-15-15V155a15,15,0,0,1,30,0v80A15,15,0,0,1,1429.76,250Z"/><path class="b" d="M1569.73,250a55,55,0,0,1-38.89-93.87,15,15,0,0,1,21.21,21.22,25,25,0,0,0,35.36,35.35,15,15,0,0,1,21.21,21.21A54.8,54.8,0,0,1,1569.73,250Z"/><path class="b" d="M1598,238.29a15,15,0,0,1-10.6-25.61,25,25,0,1,0-35.36-35.35,15,15,0,1,1-21.21-21.22,55,55,0,1,1,77.78,77.78A15,15,0,0,1,1598,238.29Z"/><path class="b" d="M1809.76,170.05h-60a15,15,0,0,1,0-30h60a15,15,0,0,1,0,30Z"/><path class="b" d="M1809.76,250.05h-60a15,15,0,0,1,0-30h60a15,15,0,0,1,0,30Z"/><path class="b" d="M1749.76,250a15,15,0,0,1-15-15V155a15,15,0,0,1,30,0v80A15,15,0,0,1,1749.76,250Z"/><path class="b" d="M1464.76,220h-20a15,15,0,0,1,0-30h20a10,10,0,0,0,0-20h-35a15,15,0,0,1,0-30h35a40,40,0,0,1,0,80Z"/><path class="b" d="M1489.77,250a15,15,0,0,1-12.88-7.29L1463.26,220A15,15,0,1,1,1489,204.57l13.63,22.72A15,15,0,0,1,1489.77,250Z"/><path class="b" d="M1254.77,215.05a15,15,0,0,1-11.86-5.8l-35-45a15,15,0,0,1,23.69-18.41l35,45a15,15,0,0,1-11.83,24.2Z"/><path class="b" d="M1789.76,210h-25a15,15,0,0,1,0-30h25a15,15,0,0,1,0,30Z"/><text class="c" transform="translate(1054.76 530)">A<tspan class="d" x="174.37" y="0">T</tspan><tspan class="e" x="379.41" y="0">L</tspan><tspan class="f" x="583.04" y="0">A</tspan><tspan class="g" x="815.68" y="0">S</tspan><tspan class="h"><tspan x="7.5" y="280">T</tspan><tspan class="i" x="212.54" y="280">B</tspan></tspan></text><line class="j" x1="749.51" y1="662.5" x2="424.76" y2="850"/><line class="k" x1="749.51" y1="287.5" x2="749.51" y2="662.5"/><line class="j" x1="424.76" y1="100" x2="749.51" y2="287.5"/><line class="k" x1="100" y1="287.5" x2="424.76" y2="100"/><line class="j" x1="100" y1="662.5" x2="100" y2="287.5"/><line class="k" x1="424.76" y1="850" x2="100" y2="662.5"/></g></svg>