<svg id="Layer_4" data-name="Layer 4" xmlns="http://www.w3.org/2000/svg" viewBox="0 0 2137.66 950"><title>atlas-gram-negative-logo</title><path d="M825,600H125a125,125,0,0,1,0-250H825a125,125,0,0,1,0,250Z" style="fill:#d16293"/><circle cx="475.24" cy="195" r="195" style="fill:#7759b5"/><circle cx="475.24" cy="755" r="195" style="fill:#7759b5"/><path d="M1761.06,188.49a32.5,32.5,0,0,0-28.32-48.44h-32.5a15,15,0,0,0-15,15v80a15,15,0,0,0,15,15h37.5a37.5,37.5,0,0,0,37.5-37.5A27.5,27.5,0,0,0,1761.06,188.49Zm-28.32-18.44a7.5,7.5,0,0,1,0,15h-17.5v-15Zm5,50h-22.5v-15h22.5a7.5,7.5,0,0,1,0,15Z" style="fill:#622268"/><path d="M1239.28,149.74c0-.15-.12-.28-.18-.42s-.21-.51-.33-.75-.21-.44-.33-.65-.23-.42-.35-.63-.28-.44-.42-.66-.25-.37-.39-.55-.32-.41-.48-.62l-.45-.52-.51-.53-.54-.52c-.17-.15-.34-.3-.52-.44s-.41-.34-.62-.49l-.54-.38-.67-.43-.61-.34-.67-.35-.72-.31-.45-.19a1.17,1.17,0,0,0-.2-.06c-.25-.1-.52-.17-.78-.25s-.43-.14-.64-.19l-.77-.16c-.23-.05-.45-.1-.68-.13s-.5-.06-.75-.08L1226,140c-.25,0-.49,0-.74,0s-.48,0-.72,0l-.73.07c-.25,0-.49,0-.73.08s-.46.08-.69.13l-.77.16-.63.18c-.27.08-.53.16-.8.26l-.19.06c-.15,0-.29.13-.43.19s-.5.2-.74.32-.44.22-.65.33l-.63.35-.65.42-.56.39-.61.48c-.18.15-.36.3-.53.46l-.53.5-.52.54-.44.52c-.17.2-.33.41-.49.62s-.26.36-.38.55-.29.43-.43.66l-.35.63c-.11.21-.22.42-.33.65s-.22.49-.32.75-.13.27-.19.42l-16,42.54-16-42.54c0-.15-.12-.28-.18-.42s-.21-.51-.33-.75a6.59,6.59,0,0,0-.33-.65c-.11-.21-.23-.42-.35-.63s-.28-.44-.42-.66-.25-.37-.39-.55-.32-.42-.48-.62l-.45-.52-.52-.54c-.17-.17-.34-.34-.52-.5l-.54-.46-.6-.48-.57-.39-.64-.42-.64-.35c-.21-.12-.42-.23-.64-.33l-.75-.33c-.15-.06-.28-.13-.43-.18l-.18-.06c-.27-.1-.55-.18-.83-.26l-.6-.18c-.27-.07-.54-.12-.81-.17l-.64-.12c-.26,0-.53-.06-.79-.08L1166,140c-.25,0-.5,0-.76,0s-.47,0-.7,0l-.74.07c-.24,0-.48,0-.72.08s-.46.08-.69.13l-.77.16-.63.18c-.27.08-.53.16-.79.26a1.17,1.17,0,0,0-.2.06l-.44.19-.73.31-.66.34-.62.35-.66.42-.55.39-.61.48-.53.45c-.18.17-.36.34-.53.52s-.35.35-.51.53-.31.35-.46.53l-.48.61-.39.55c-.14.22-.28.43-.41.66s-.24.42-.36.63l-.33.65c-.12.24-.22.49-.32.74s-.13.28-.19.43l-30,80a15,15,0,1,0,28.09,10.53l16-42.55,16,42.55c.09.23.19.45.29.68a3.05,3.05,0,0,0,.13.32c.19.42.4.82.62,1.21l0,.07c.21.36.44.72.68,1.06l.19.26q.3.42.63.81c.08.09.16.19.25.28.23.27.48.53.73.77l.21.21c.32.3.65.58,1,.85l.32.23c.25.19.5.37.77.54l.41.26c.28.17.58.34.87.49l.31.16a12.72,12.72,0,0,0,1.25.54l.08,0,.26.08c.28.1.57.2.86.28l.43.12c.26.07.53.13.8.18l.45.08q.42.08.84.12l.4,0q.6.06,1.2.06h0a12.1,12.1,0,0,0,1.21-.06l.4,0,.84-.11.44-.09.81-.18.43-.12c.29-.08.57-.18.86-.28l.25-.08.09,0c.42-.16.84-.34,1.25-.54l.3-.16c.3-.15.59-.32.88-.49l.41-.26c.26-.17.52-.35.77-.54l.32-.23c.34-.27.67-.55,1-.85l.2-.21c.26-.25.5-.5.74-.77l.24-.28c.22-.26.43-.53.64-.81l.19-.26c.24-.34.47-.69.68-1.06l0-.07c.22-.39.43-.79.62-1.21.05-.1.09-.22.14-.32s.2-.45.28-.68l16-42.55,16,42.55a15,15,0,0,0,28.09-10.53Z" style="fill:#622268"/><path d="M1349.44,143.16a15,15,0,0,0-21,2.64l-23.15,29.8-23.16-29.8a15,15,0,0,0-23.69,18.41l31.85,41V235a15,15,0,0,0,30,0V205.19l31.84-41A15,15,0,0,0,1349.44,143.16Z" style="fill:#622268"/><path d="M1450.84,144.4a15,15,0,0,0-21.21,0l-34.39,34.42V155a15,15,0,0,0-30,0v80a15,15,0,0,0,30,0V221.26l12-12,20.11,33.5a15,15,0,1,0,25.72-15.43l-24-39.95,21.71-21.73A15,15,0,0,0,1450.84,144.4Z" style="fill:#622268"/><path d="M1581.32,156.11a55,55,0,1,0,77.78,0A55.07,55.07,0,0,0,1581.32,156.11Zm21.21,56.57a25,25,0,1,1,35.36,0A25,25,0,0,1,1602.53,212.68Z" style="fill:#622268"/><path d="M1860.24,220.05h-45V210h25a15,15,0,0,0,0-30h-25v-9.95h45a15,15,0,0,0,0-30h-59.07c-.31,0-.62-.05-.93-.05a15,15,0,0,0-15,15v80.05a15,15,0,0,0,15,15h60a15,15,0,0,0,0-30Z" style="fill:#622268"/><path d="M1555.24,180a40.05,40.05,0,0,0-40-40h-35a15,15,0,0,0-15,15v80a15,15,0,0,0,30,0V220h18.51l13.63,22.72a15,15,0,1,0,25.72-15.43l-10.75-17.91A39.91,39.91,0,0,0,1555.24,180Zm-60-10h20a10,10,0,0,1,0,20h-20Z" style="fill:#622268"/><path d="M1290.86,474.88h-111l-21.37,45.74c-4.13,7.5-9.38,12.38-19.13,12.38a21.2,21.2,0,0,1-21.75-21.38,20,20,0,0,1,2.25-9l96-213.37c3.38-7.5,9.75-12,19.5-12s16.13,4.13,19.5,12l96,213.37a20,20,0,0,1,2.25,9A21.2,21.2,0,0,1,1331.36,533c-9.75,0-15-4.5-19.12-12.38Zm-55.5-135.38-39,95.25h78Z" style="fill:#7759b5"/><path d="M1483.23,323.38h-64.12V509.75A23.37,23.37,0,0,1,1395.86,533c-12.75,0-22.5-10.5-22.5-23.25V323.38h-64.5a21.57,21.57,0,1,1,0-43.13h174.37A21.77,21.77,0,0,1,1505,302,21.45,21.45,0,0,1,1483.23,323.38Z" style="fill:#7759b5"/><path d="M1537.9,530a23.37,23.37,0,0,1-23.25-23.25V300.5a23.37,23.37,0,0,1,23.25-23.25c12.75,0,22.5,10.5,22.5,23.25V486.88h109.5a21.36,21.36,0,0,1,21.38,21.37A21.94,21.94,0,0,1,1669.9,530Z" style="fill:#7759b5"/><path d="M1873.9,474.88h-111l-21.38,45.74c-4.12,7.5-9.37,12.38-19.12,12.38a21.2,21.2,0,0,1-21.75-21.38,20,20,0,0,1,2.25-9l96-213.37c3.37-7.5,9.75-12,19.5-12s16.12,4.13,19.5,12l96,213.37a20,20,0,0,1,2.25,9A21.2,21.2,0,0,1,1914.4,533c-9.75,0-15-4.5-19.13-12.38ZM1818.4,339.5l-39,95.25h78Z" style="fill:#7759b5"/><path d="M2040.92,534.5c-30.38,0-64.88-9.38-86.63-26.25-7.5-6-12.75-13.5-12.75-21.75,0-11.62,7.5-19.5,19.13-19.5a21.89,21.89,0,0,1,11.62,3.38c20.25,12.74,34.13,24,69.38,24,36,0,50.25-14.63,50.25-31.5,0-18.38-14.63-27.76-59.63-39.76-67.87-18-88.12-39.74-88.12-77.24,0-45.76,39.37-70.13,99-70.13a191.78,191.78,0,0,1,48,6.75c17.25,4.88,39,15.75,39,30.75,0,10.13-6,20.63-18.75,20.63a19.45,19.45,0,0,1-9-1.88c-17.25-7.88-35.25-15.75-58.88-15.75-33.37,0-53.62,9-53.62,28.5,0,18.37,15,24.75,60,37.87,51.37,15,87.75,29.63,87.75,77.63C2137.67,503.75,2104.67,534.5,2040.92,534.5Z" style="fill:#7759b5"/><path d="M1337,782.3c-24.48,30.51-65.17,45.2-102.84,45.2-80.23,0-128.82-58.76-128.82-130,0-76.09,55-130,128.07-130,29.38,0,62.53,9.8,84,32,4.52,4.52,7.16,9.42,7.16,15.45,0,11.3-7.91,21.09-20.72,21.09-5.27,0-10.17-1.88-15.07-5.27-14.31-10.93-29.75-20.72-55.37-20.72-49.35,0-81.74,37.29-81.74,87.39,0,51.23,30.13,89.66,82.49,89.66,25.62,0,48.22-9,62.91-22.61V725.8h-49c-11.3,0-21.09-9-21.09-20.72,0-12.06,9.79-20.72,21.09-20.72h70.82a23.24,23.24,0,0,1,23.36,23.35v59.9C1342.25,774,1340.74,777.4,1337,782.3Z" style="fill:#d16293"/><path d="M1577.56,803a22.81,22.81,0,0,1-23,23c-10.17,0-16.57-4.52-20.34-12.43l-44.07-90.79h-75.72V803a23,23,0,1,1-46,0V595.08a22.84,22.84,0,0,1,23-23h96.81c62.53,0,89.27,30.89,89.27,75.34,0,29.39-12.81,54.62-41.43,67.06l38.8,78.72A22.51,22.51,0,0,1,1577.56,803Zm-82.87-188.73h-80.24v68.94h80.24c25.24,0,36.54-18.46,36.54-35.41C1531.23,631.25,1519.93,614.29,1494.69,614.29Z" style="fill:#d16293"/><path d="M1848.36,724.77H1605.77c-10.54,0-19.58-8.66-19.58-19.21A19.7,19.7,0,0,1,1605.77,686h242.59A19.7,19.7,0,0,1,1868,705.56C1868,716.11,1858.91,724.77,1848.36,724.77Z" style="fill:#d16293"/><path d="M475.24,390a194.09,194.09,0,0,0,118.31-40H356.92A194.12,194.12,0,0,0,475.24,390Z" style="fill:#622268"/><path d="M475.24,560a194.12,194.12,0,0,0-118.32,40H593.55A194.09,194.09,0,0,0,475.24,560Z" style="fill:#622268"/></svg>