<svg xmlns="http://www.w3.org/2000/svg" viewBox="0 0 2137.66 950"><defs><style>.a{isolation:isolate;}.b{fill:#622268;}.c,.f{fill:#7759b5;}.d{fill:#d16293;}.e{fill:none;stroke:#d16293;stroke-linecap:round;stroke-linejoin:round;stroke-width:250px;}.e,.f{mix-blend-mode:multiply;}</style></defs><title>atlas-gram-negative-logo</title><g class="a"><path class="b" d="M1700.24,140.05a15,15,0,0,0-15,15v80a15,15,0,0,0,30,0v-80A15,15,0,0,0,1700.24,140.05Z"/><path class="b" d="M1775.24,212.55a27.5,27.5,0,0,0-27.5-27.5h-37.5a10,10,0,0,0,0,20h27.5a7.5,7.5,0,0,1,0,15h-37.5a15,15,0,0,0,0,30h37.5a37.5,37.5,0,0,0,37.5-37.5"/><path class="b" d="M1730.24,205.05a10,10,0,0,1,0-20h2.5a7.5,7.5,0,0,0,0-15h-32.5a15,15,0,0,1,0-30h32.5a32.5,32.5,0,0,1,0,65h-2.5"/><path class="b" d="M1380.24,250a15,15,0,0,1-15-15V155a15,15,0,0,1,30,0v80A15,15,0,0,1,1380.24,250Z"/><path class="b" d="M1135.23,250a15,15,0,0,1-14-20.27l30-80a15,15,0,1,1,28.09,10.53l-30,80A15,15,0,0,1,1135.23,250Z"/><path class="b" d="M1255.24,250a15,15,0,0,1-14-9.74l-30-80a15,15,0,1,1,28.09-10.53l30,80a15,15,0,0,1-14,20.27Z"/><path class="b" d="M1195.24,250a15,15,0,0,1-14-20.27l30-80a15,15,0,1,1,28.09,10.53l-30,80A15,15,0,0,1,1195.24,250Z"/><path class="b" d="M1195.24,250a15,15,0,0,1-14-9.74l-30-80a15,15,0,1,1,28.09-10.53l30,80a15,15,0,0,1-14,20.27Z"/><path class="b" d="M1305.24,250a15,15,0,0,1-15-15V200.05a15,15,0,0,1,3.15-9.2l35-45a15,15,0,1,1,23.69,18.41l-31.84,41V235A15,15,0,0,1,1305.24,250Z"/><path class="b" d="M1384.63,225.66A15,15,0,0,1,1374,200.05l55.61-55.65a15,15,0,1,1,21.21,21.21l-55.6,55.65A15,15,0,0,1,1384.63,225.66Z"/><path class="b" d="M1440.25,250a15,15,0,0,1-12.87-7.29l-24-40a15,15,0,1,1,25.72-15.43l24,40A15,15,0,0,1,1440.25,250Z"/><path class="b" d="M1480.24,250a15,15,0,0,1-15-15V155a15,15,0,0,1,30,0v80A15,15,0,0,1,1480.24,250Z"/><path class="b" d="M1620.21,250a55,55,0,0,1-38.89-93.87,15,15,0,0,1,21.21,21.22,25,25,0,0,0,35.36,35.35,15,15,0,0,1,21.21,21.21A54.8,54.8,0,0,1,1620.21,250Z"/><path class="b" d="M1648.5,238.29a15,15,0,0,1-10.61-25.61,25,25,0,1,0-35.36-35.35,15,15,0,1,1-21.21-21.22,55,55,0,1,1,77.78,77.78A15,15,0,0,1,1648.5,238.29Z"/><path class="b" d="M1860.24,170.05h-60a15,15,0,0,1,0-30h60a15,15,0,0,1,0,30Z"/><path class="b" d="M1860.24,250.05h-60a15,15,0,0,1,0-30h60a15,15,0,0,1,0,30Z"/><path class="b" d="M1800.24,250a15,15,0,0,1-15-15V155a15,15,0,0,1,30,0v80A15,15,0,0,1,1800.24,250Z"/><path class="b" d="M1515.24,220h-20a15,15,0,0,1,0-30h20a10,10,0,0,0,0-20h-35a15,15,0,0,1,0-30h35a40,40,0,0,1,0,80Z"/><path class="b" d="M1540.25,250a15,15,0,0,1-12.87-7.29L1513.75,220a15,15,0,1,1,25.72-15.43l13.63,22.72A15,15,0,0,1,1540.25,250Z"/><path class="b" d="M1305.25,215.05a15,15,0,0,1-11.86-5.8l-35-45a15,15,0,0,1,23.69-18.41l35,45a15,15,0,0,1-11.83,24.2Z"/><path class="b" d="M1840.24,210h-25a15,15,0,0,1,0-30h25a15,15,0,0,1,0,30Z"/><path class="c" d="M1290.86,474.88h-111l-21.37,45.74c-4.13,7.5-9.38,12.38-19.13,12.38a21.2,21.2,0,0,1-21.75-21.38,20,20,0,0,1,2.25-9l96-213.37c3.38-7.5,9.75-12,19.5-12s16.13,4.13,19.5,12l96,213.37a20,20,0,0,1,2.25,9A21.2,21.2,0,0,1,1331.36,533c-9.75,0-15-4.5-19.12-12.38Zm-55.5-135.38-39,95.25h78Z"/><path class="c" d="M1483.23,323.38h-64.12V509.75A23.37,23.37,0,0,1,1395.86,533c-12.75,0-22.5-10.5-22.5-23.25V323.38h-64.5a21.57,21.57,0,1,1,0-43.13h174.37A21.77,21.77,0,0,1,1505,302,21.45,21.45,0,0,1,1483.23,323.38Z"/><path class="c" d="M1537.9,530a23.37,23.37,0,0,1-23.25-23.25V300.5a23.37,23.37,0,0,1,23.25-23.25c12.75,0,22.5,10.5,22.5,23.25V486.88h109.5a21.36,21.36,0,0,1,21.38,21.37A21.94,21.94,0,0,1,1669.9,530Z"/><path class="c" d="M1873.9,474.88h-111l-21.38,45.74c-4.12,7.5-9.37,12.38-19.12,12.38a21.2,21.2,0,0,1-21.75-21.38,20,20,0,0,1,2.25-9l96-213.37c3.37-7.5,9.75-12,19.5-12s16.12,4.13,19.5,12l96,213.37a20,20,0,0,1,2.25,9A21.2,21.2,0,0,1,1914.4,533c-9.75,0-15-4.5-19.13-12.38ZM1818.4,339.5l-39,95.25h78Z"/><path class="c" d="M2040.92,534.5c-30.38,0-64.88-9.38-86.63-26.25-7.5-6-12.75-13.5-12.75-21.75,0-11.62,7.5-19.5,19.13-19.5a21.89,21.89,0,0,1,11.62,3.38c20.25,12.74,34.13,24,69.38,24,36,0,50.25-14.63,50.25-31.5,0-18.38-14.63-27.76-59.63-39.76-67.87-18-88.12-39.74-88.12-77.24,0-45.76,39.37-70.13,99-70.13a191.78,191.78,0,0,1,48,6.75c17.25,4.88,39,15.75,39,30.75,0,10.13-6,20.63-18.75,20.63a19.45,19.45,0,0,1-9-1.88c-17.25-7.88-35.25-15.75-58.88-15.75-33.37,0-53.62,9-53.62,28.5,0,18.37,15,24.75,60,37.87,51.37,15,87.75,29.63,87.75,77.63C2137.67,503.75,2104.67,534.5,2040.92,534.5Z"/><path class="d" d="M1337,782.3c-24.48,30.51-65.17,45.2-102.84,45.2-80.23,0-128.82-58.76-128.82-130,0-76.09,55-130,128.07-130,29.38,0,62.53,9.8,84,32,4.52,4.52,7.16,9.42,7.16,15.45,0,11.3-7.91,21.09-20.72,21.09-5.27,0-10.17-1.88-15.07-5.27-14.31-10.93-29.75-20.72-55.37-20.72-49.35,0-81.74,37.29-81.74,87.39,0,51.23,30.13,89.66,82.49,89.66,25.62,0,48.22-9,62.91-22.61V725.8h-49c-11.3,0-21.09-9-21.09-20.72,0-12.06,9.79-20.72,21.09-20.72h70.82a23.24,23.24,0,0,1,23.36,23.35v59.9C1342.25,774,1340.74,777.4,1337,782.3Z"/><path class="d" d="M1577.56,803a22.81,22.81,0,0,1-23,23c-10.17,0-16.57-4.52-20.34-12.43l-44.07-90.79h-75.72V803a23,23,0,1,1-46,0V595.08a22.84,22.84,0,0,1,23-23h96.81c62.53,0,89.27,30.89,89.27,75.34,0,29.39-12.81,54.62-41.43,67.06l38.8,78.72A22.51,22.51,0,0,1,1577.56,803Zm-82.87-188.73h-80.24v68.94h80.24c25.24,0,36.54-18.46,36.54-35.41C1531.23,631.25,1519.93,614.29,1494.69,614.29Z"/><path class="d" d="M1848.36,724.77H1605.77c-10.54,0-19.58-8.66-19.58-19.21A19.7,19.7,0,0,1,1605.77,686h242.59A19.7,19.7,0,0,1,1868,705.56C1868,716.11,1858.91,724.77,1848.36,724.77Z"/><line class="e" x1="125" y1="475" x2="825" y2="475"/><circle class="f" cx="475.24" cy="195" r="195"/><circle class="f" cx="475.24" cy="755" r="195"/></g></svg>