<svg xmlns="http://www.w3.org/2000/svg" viewBox="0 0 2639.11 950"><defs><style>.a{isolation:isolate;}.b{fill:none;stroke:#71c7e6;stroke-linecap:square;stroke-miterlimit:10;stroke-width:0.25px;}.c{fill:#483963;}.d{font-size:375px;font-family:BryantPro-Bold, Bryant Pro;font-weight:700;letter-spacing:-0.23em;}.d,.r{fill:#7759b5;}.e{letter-spacing:-0.07em;}.f{letter-spacing:-0.03em;}.g{letter-spacing:-0.07em;}.h{letter-spacing:-0.05em;}.i,.q{fill:#9ba38b;}.i{letter-spacing:-0.1em;}.j{letter-spacing:-0.06em;}.k{letter-spacing:-0.12em;}.l{letter-spacing:-0.11em;}.m{letter-spacing:-0.09em;}.n{letter-spacing:-0.08em;}.o{letter-spacing:-0.09em;}.p{letter-spacing:-0.05em;}.q,.r{mix-blend-mode:multiply;}</style></defs><title>atlas-s-aureus-logo</title><g class="a"><circle class="b" cx="1067.52" cy="265" r="15"/><rect class="b" x="1082.52" y="140" width="110" height="110"/><circle class="b" cx="1207.52" cy="265" r="15"/><rect class="b" x="1222.52" y="140" width="110" height="110"/><circle class="b" cx="1347.52" cy="265" r="15"/><rect class="b" x="1362.52" y="140" width="110" height="110"/><circle class="b" cx="1487.52" cy="265" r="15"/><rect class="b" x="1502.52" y="140" width="110" height="110"/><circle class="b" cx="1067.52" cy="125" r="15"/><rect class="b" x="1082.52" width="110" height="110"/><circle class="b" cx="1207.52" cy="125" r="15"/><rect class="b" x="1222.52" width="110" height="110"/><circle class="b" cx="1347.52" cy="125" r="15"/><rect class="b" x="1362.52" width="110" height="110"/><circle class="b" cx="1487.52" cy="125" r="15"/><rect class="b" x="1502.52" width="110" height="110"/><circle class="b" cx="1067.52" cy="405" r="15"/><rect class="b" x="1082.52" y="280" width="110" height="110"/><circle class="b" cx="1207.52" cy="405" r="15"/><rect class="b" x="1222.52" y="280" width="110" height="110"/><circle class="b" cx="1347.52" cy="405" r="15"/><rect class="b" x="1362.52" y="280" width="110" height="110"/><circle class="b" cx="1487.52" cy="405" r="15"/><rect class="b" x="1502.52" y="280" width="110" height="110"/><circle class="b" cx="1067.52" cy="545" r="15"/><rect class="b" x="1082.52" y="420" width="110" height="110"/><circle class="b" cx="1207.52" cy="545" r="15"/><rect class="b" x="1222.52" y="420" width="110" height="110"/><circle class="b" cx="1347.52" cy="545" r="15"/><rect class="b" x="1362.52" y="420" width="110" height="110"/><circle class="b" cx="1487.52" cy="545" r="15"/><rect class="b" x="1502.52" y="420" width="110" height="110"/><circle class="b" cx="1067.52" cy="685" r="15"/><rect class="b" x="1082.52" y="560" width="110" height="110"/><circle class="b" cx="1207.52" cy="685" r="15"/><rect class="b" x="1222.52" y="560" width="110" height="110"/><circle class="b" cx="1347.52" cy="685" r="15"/><rect class="b" x="1362.52" y="560" width="110" height="110"/><circle class="b" cx="1487.52" cy="685" r="15"/><rect class="b" x="1502.52" y="560" width="110" height="110"/><circle class="b" cx="1067.52" cy="825" r="15"/><rect class="b" x="1082.52" y="700" width="110" height="110"/><circle class="b" cx="1207.52" cy="825" r="15"/><rect class="b" x="1222.52" y="700" width="110" height="110"/><circle class="b" cx="1347.52" cy="825" r="15"/><rect class="b" x="1362.52" y="700" width="110" height="110"/><circle class="b" cx="1487.52" cy="825" r="15"/><rect class="b" x="1502.52" y="700" width="110" height="110"/><rect class="b" x="1082.52" y="840" width="110" height="110"/><rect class="b" x="1222.52" y="840" width="110" height="110"/><rect class="b" x="1362.52" y="840" width="110" height="110"/><rect class="b" x="1502.52" y="840" width="110" height="110"/><circle class="b" cx="507.52" cy="265" r="15"/><rect class="b" x="522.52" y="140" width="110" height="110"/><circle class="b" cx="647.52" cy="265" r="15"/><rect class="b" x="662.52" y="140" width="110" height="110"/><circle class="b" cx="787.52" cy="265" r="15"/><rect class="b" x="802.52" y="140" width="110" height="110"/><circle class="b" cx="927.52" cy="265" r="15"/><rect class="b" x="942.52" y="140" width="110" height="110"/><circle class="b" cx="507.52" cy="125" r="15"/><rect class="b" x="522.52" width="110" height="110"/><circle class="b" cx="647.52" cy="125" r="15"/><rect class="b" x="662.52" width="110" height="110"/><circle class="b" cx="787.52" cy="125" r="15"/><rect class="b" x="802.52" width="110" height="110"/><circle class="b" cx="927.52" cy="125" r="15"/><rect class="b" x="942.52" width="110" height="110"/><circle class="b" cx="507.52" cy="405" r="15"/><rect class="b" x="522.52" y="280" width="110" height="110"/><circle class="b" cx="647.52" cy="405" r="15"/><rect class="b" x="662.52" y="280" width="110" height="110"/><circle class="b" cx="787.52" cy="405" r="15"/><rect class="b" x="802.52" y="280" width="110" height="110"/><circle class="b" cx="927.52" cy="405" r="15"/><rect class="b" x="942.52" y="280" width="110" height="110"/><circle class="b" cx="507.52" cy="545" r="15"/><rect class="b" x="522.52" y="420" width="110" height="110"/><circle class="b" cx="647.52" cy="545" r="15"/><rect class="b" x="662.52" y="420" width="110" height="110"/><circle class="b" cx="787.52" cy="545" r="15"/><rect class="b" x="802.52" y="420" width="110" height="110"/><circle class="b" cx="927.52" cy="545" r="15"/><rect class="b" x="942.52" y="420" width="110" height="110"/><circle class="b" cx="507.52" cy="685" r="15"/><rect class="b" x="522.52" y="560" width="110" height="110"/><circle class="b" cx="647.52" cy="685" r="15"/><rect class="b" x="662.52" y="560" width="110" height="110"/><circle class="b" cx="787.52" cy="685" r="15"/><rect class="b" x="802.52" y="560" width="110" height="110"/><circle class="b" cx="927.52" cy="685" r="15"/><rect class="b" x="942.52" y="560" width="110" height="110"/><circle class="b" cx="507.52" cy="825" r="15"/><rect class="b" x="522.52" y="700" width="110" height="110"/><circle class="b" cx="647.52" cy="825" r="15"/><rect class="b" x="662.52" y="700" width="110" height="110"/><circle class="b" cx="787.52" cy="825" r="15"/><rect class="b" x="802.52" y="700" width="110" height="110"/><circle class="b" cx="927.52" cy="825" r="15"/><rect class="b" x="942.52" y="700" width="110" height="110"/><rect class="b" x="522.52" y="840" width="110" height="110"/><rect class="b" x="662.52" y="840" width="110" height="110"/><rect class="b" x="802.52" y="840" width="110" height="110"/><rect class="b" x="942.52" y="840" width="110" height="110"/><rect class="b" x="-37.48" y="140" width="110" height="110"/><circle class="b" cx="87.52" cy="265" r="15"/><rect class="b" x="102.52" y="140" width="110" height="110"/><circle class="b" cx="227.52" cy="265" r="15"/><rect class="b" x="242.52" y="140" width="110" height="110"/><circle class="b" cx="367.52" cy="265" r="15"/><rect class="b" x="382.52" y="140" width="110" height="110"/><rect class="b" x="-37.48" width="110" height="110"/><circle class="b" cx="87.52" cy="125" r="15"/><rect class="b" x="102.52" width="110" height="110"/><circle class="b" cx="227.52" cy="125" r="15"/><rect class="b" x="242.52" width="110" height="110"/><circle class="b" cx="367.52" cy="125" r="15"/><rect class="b" x="382.52" width="110" height="110"/><rect class="b" x="-37.48" y="280" width="110" height="110"/><circle class="b" cx="87.52" cy="405" r="15"/><rect class="b" x="102.52" y="280" width="110" height="110"/><circle class="b" cx="227.52" cy="405" r="15"/><rect class="b" x="242.52" y="280" width="110" height="110"/><circle class="b" cx="367.52" cy="405" r="15"/><rect class="b" x="382.52" y="280" width="110" height="110"/><rect class="b" x="-37.48" y="420" width="110" height="110"/><circle class="b" cx="87.52" cy="545" r="15"/><rect class="b" x="102.52" y="420" width="110" height="110"/><circle class="b" cx="227.52" cy="545" r="15"/><rect class="b" x="242.52" y="420" width="110" height="110"/><circle class="b" cx="367.52" cy="545" r="15"/><rect class="b" x="382.52" y="420" width="110" height="110"/><rect class="b" x="-37.48" y="560" width="110" height="110"/><circle class="b" cx="87.52" cy="685" r="15"/><rect class="b" x="102.52" y="560" width="110" height="110"/><circle class="b" cx="227.52" cy="685" r="15"/><rect class="b" x="242.52" y="560" width="110" height="110"/><circle class="b" cx="367.52" cy="685" r="15"/><rect class="b" x="382.52" y="560" width="110" height="110"/><rect class="b" x="-37.48" y="700" width="110" height="110"/><circle class="b" cx="87.52" cy="825" r="15"/><rect class="b" x="102.52" y="700" width="110" height="110"/><circle class="b" cx="227.52" cy="825" r="15"/><rect class="b" x="242.52" y="700" width="110" height="110"/><circle class="b" cx="367.52" cy="825" r="15"/><rect class="b" x="382.52" y="700" width="110" height="110"/><rect class="b" x="-37.48" y="840" width="110" height="110"/><rect class="b" x="102.52" y="840" width="110" height="110"/><rect class="b" x="242.52" y="840" width="110" height="110"/><rect class="b" x="382.52" y="840" width="110" height="110"/><circle class="b" cx="2607.52" cy="265" r="15"/><rect class="b" x="2622.52" y="140" width="110" height="110"/><circle class="b" cx="2607.52" cy="125" r="15"/><rect class="b" x="2622.52" width="110" height="110"/><circle class="b" cx="2607.52" cy="405" r="15"/><rect class="b" x="2622.52" y="280" width="110" height="110"/><circle class="b" cx="2607.52" cy="545" r="15"/><rect class="b" x="2622.52" y="420" width="110" height="110"/><circle class="b" cx="2607.52" cy="685" r="15"/><rect class="b" x="2622.52" y="560" width="110" height="110"/><circle class="b" cx="2607.52" cy="825" r="15"/><rect class="b" x="2622.52" y="700" width="110" height="110"/><rect class="b" x="2622.52" y="840" width="110" height="110"/><circle class="b" cx="2047.52" cy="265" r="15"/><rect class="b" x="2062.52" y="140" width="110" height="110"/><circle class="b" cx="2187.52" cy="265" r="15"/><rect class="b" x="2202.52" y="140" width="110" height="110"/><circle class="b" cx="2327.52" cy="265" r="15"/><rect class="b" x="2342.52" y="140" width="110" height="110"/><circle class="b" cx="2467.52" cy="265" r="15"/><rect class="b" x="2482.52" y="140" width="110" height="110"/><circle class="b" cx="2047.52" cy="125" r="15"/><rect class="b" x="2062.52" width="110" height="110"/><circle class="b" cx="2187.52" cy="125" r="15"/><rect class="b" x="2202.52" width="110" height="110"/><circle class="b" cx="2327.52" cy="125" r="15"/><rect class="b" x="2342.52" width="110" height="110"/><circle class="b" cx="2467.52" cy="125" r="15"/><rect class="b" x="2482.52" width="110" height="110"/><circle class="b" cx="2047.52" cy="405" r="15"/><rect class="b" x="2062.52" y="280" width="110" height="110"/><circle class="b" cx="2187.52" cy="405" r="15"/><rect class="b" x="2202.52" y="280" width="110" height="110"/><circle class="b" cx="2327.52" cy="405" r="15"/><rect class="b" x="2342.52" y="280" width="110" height="110"/><circle class="b" cx="2467.52" cy="405" r="15"/><rect class="b" x="2482.52" y="280" width="110" height="110"/><circle class="b" cx="2047.52" cy="545" r="15"/><rect class="b" x="2062.52" y="420" width="110" height="110"/><circle class="b" cx="2187.52" cy="545" r="15"/><rect class="b" x="2202.52" y="420" width="110" height="110"/><circle class="b" cx="2327.52" cy="545" r="15"/><rect class="b" x="2342.52" y="420" width="110" height="110"/><circle class="b" cx="2467.52" cy="545" r="15"/><rect class="b" x="2482.52" y="420" width="110" height="110"/><circle class="b" cx="2047.52" cy="685" r="15"/><rect class="b" x="2062.52" y="560" width="110" height="110"/><circle class="b" cx="2187.52" cy="685" r="15"/><rect class="b" x="2202.52" y="560" width="110" height="110"/><circle class="b" cx="2327.52" cy="685" r="15"/><rect class="b" x="2342.52" y="560" width="110" height="110"/><circle class="b" cx="2467.52" cy="685" r="15"/><rect class="b" x="2482.52" y="560" width="110" height="110"/><circle class="b" cx="2047.52" cy="825" r="15"/><rect class="b" x="2062.52" y="700" width="110" height="110"/><circle class="b" cx="2187.52" cy="825" r="15"/><rect class="b" x="2202.52" y="700" width="110" height="110"/><circle class="b" cx="2327.52" cy="825" r="15"/><rect class="b" x="2342.52" y="700" width="110" height="110"/><circle class="b" cx="2467.52" cy="825" r="15"/><rect class="b" x="2482.52" y="700" width="110" height="110"/><rect class="b" x="2062.52" y="840" width="110" height="110"/><rect class="b" x="2202.52" y="840" width="110" height="110"/><rect class="b" x="2342.52" y="840" width="110" height="110"/><rect class="b" x="2482.52" y="840" width="110" height="110"/><circle class="b" cx="1627.52" cy="265" r="15"/><rect class="b" x="1642.52" y="140" width="110" height="110"/><circle class="b" cx="1767.52" cy="265" r="15"/><rect class="b" x="1782.52" y="140" width="110" height="110"/><circle class="b" cx="1907.52" cy="265" r="15"/><rect class="b" x="1922.52" y="140" width="110" height="110"/><circle class="b" cx="1627.52" cy="125" r="15"/><rect class="b" x="1642.52" width="110" height="110"/><circle class="b" cx="1767.52" cy="125" r="15"/><rect class="b" x="1782.52" width="110" height="110"/><circle class="b" cx="1907.52" cy="125" r="15"/><rect class="b" x="1922.52" width="110" height="110"/><circle class="b" cx="1627.52" cy="405" r="15"/><rect class="b" x="1642.52" y="280" width="110" height="110"/><circle class="b" cx="1767.52" cy="405" r="15"/><rect class="b" x="1782.52" y="280" width="110" height="110"/><circle class="b" cx="1907.52" cy="405" r="15"/><rect class="b" x="1922.52" y="280" width="110" height="110"/><circle class="b" cx="1627.52" cy="545" r="15"/><rect class="b" x="1642.52" y="420" width="110" height="110"/><circle class="b" cx="1767.52" cy="545" r="15"/><rect class="b" x="1782.52" y="420" width="110" height="110"/><circle class="b" cx="1907.52" cy="545" r="15"/><rect class="b" x="1922.52" y="420" width="110" height="110"/><circle class="b" cx="1627.52" cy="685" r="15"/><rect class="b" x="1642.52" y="560" width="110" height="110"/><circle class="b" cx="1767.52" cy="685" r="15"/><rect class="b" x="1782.52" y="560" width="110" height="110"/><circle class="b" cx="1907.52" cy="685" r="15"/><rect class="b" x="1922.52" y="560" width="110" height="110"/><circle class="b" cx="1627.52" cy="825" r="15"/><rect class="b" x="1642.52" y="700" width="110" height="110"/><circle class="b" cx="1767.52" cy="825" r="15"/><rect class="b" x="1782.52" y="700" width="110" height="110"/><circle class="b" cx="1907.52" cy="825" r="15"/><rect class="b" x="1922.52" y="700" width="110" height="110"/><rect class="b" x="1642.52" y="840" width="110" height="110"/><rect class="b" x="1782.52" y="840" width="110" height="110"/><rect class="b" x="1922.52" y="840" width="110" height="110"/><circle class="b" cx="437.52" cy="475" r="475"/><circle class="b" cx="437.52" cy="475" r="225"/><circle class="b" cx="437.52" cy="475" r="85"/><path class="c" d="M1662.52,140.05a15,15,0,0,0-15,15v80a15,15,0,0,0,30,0v-80A15,15,0,0,0,1662.52,140.05Z"/><path class="c" d="M1737.52,212.55a27.5,27.5,0,0,0-27.5-27.5h-37.5a10,10,0,0,0,0,20H1700a7.5,7.5,0,0,1,0,15h-37.5a15,15,0,0,0,0,30H1700a37.5,37.5,0,0,0,37.5-37.5"/><path class="c" d="M1692.52,205.05a10,10,0,0,1,0-20h2.5a7.5,7.5,0,0,0,0-15h-32.5a15,15,0,0,1,0-30H1695a32.5,32.5,0,0,1,0,65h-2.5"/><path class="c" d="M1342.52,250a15,15,0,0,1-15-15V155a15,15,0,0,1,30,0v80A15,15,0,0,1,1342.52,250Z"/><path class="c" d="M1097.52,250a15,15,0,0,1-14-20.27l30-80a15,15,0,1,1,28.09,10.53l-30,80A15,15,0,0,1,1097.52,250Z"/><path class="c" d="M1217.52,250a15,15,0,0,1-14-9.74l-30-80a15,15,0,1,1,28.09-10.53l30,80a15,15,0,0,1-14,20.27Z"/><path class="c" d="M1157.52,250a15,15,0,0,1-14-20.27l30-80a15,15,0,1,1,28.09,10.53l-30,80A15,15,0,0,1,1157.52,250Z"/><path class="c" d="M1157.52,250a15,15,0,0,1-14-9.74l-30-80a15,15,0,1,1,28.09-10.53l30,80a15,15,0,0,1-14,20.27Z"/><path class="c" d="M1267.52,250a15,15,0,0,1-15-15V200.05a15,15,0,0,1,3.16-9.2l35-45a15,15,0,1,1,23.68,18.41l-31.84,41V235A15,15,0,0,1,1267.52,250Z"/><path class="c" d="M1346.91,225.66a15,15,0,0,1-10.6-25.61l55.6-55.65a15,15,0,0,1,21.22,21.21l-55.61,55.65A15,15,0,0,1,1346.91,225.66Z"/><path class="c" d="M1402.53,250a15,15,0,0,1-12.87-7.29l-24-40a15,15,0,0,1,25.73-15.43l24,40A15,15,0,0,1,1402.53,250Z"/><path class="c" d="M1442.52,250a15,15,0,0,1-15-15V155a15,15,0,0,1,30,0v80A15,15,0,0,1,1442.52,250Z"/><path class="c" d="M1582.49,250a55,55,0,0,1-38.89-93.87,15,15,0,1,1,21.22,21.22,25,25,0,1,0,35.35,35.35,15,15,0,0,1,21.21,21.21A54.79,54.79,0,0,1,1582.49,250Z"/><path class="c" d="M1610.78,238.29a15,15,0,0,1-10.61-25.61,25,25,0,0,0-35.35-35.35,15,15,0,0,1-21.22-21.22,55,55,0,1,1,77.78,77.78A14.92,14.92,0,0,1,1610.78,238.29Z"/><path class="c" d="M1822.52,170.05h-60a15,15,0,0,1,0-30h60a15,15,0,0,1,0,30Z"/><path class="c" d="M1822.52,250.05h-60a15,15,0,0,1,0-30h60a15,15,0,0,1,0,30Z"/><path class="c" d="M1762.52,250a15,15,0,0,1-15-15V155a15,15,0,0,1,30,0v80A15,15,0,0,1,1762.52,250Z"/><path class="c" d="M1477.52,220h-20a15,15,0,0,1,0-30h20a10,10,0,0,0,0-20h-35a15,15,0,0,1,0-30h35a40,40,0,0,1,0,80Z"/><path class="c" d="M1502.53,250a15,15,0,0,1-12.87-7.29L1476,220a15,15,0,1,1,25.72-15.43l13.63,22.72A15,15,0,0,1,1502.53,250Z"/><path class="c" d="M1267.53,215.05a15,15,0,0,1-11.85-5.8l-35-45a15,15,0,1,1,23.68-18.41l35,45a15,15,0,0,1-11.83,24.2Z"/><path class="c" d="M1802.52,210h-25a15,15,0,0,1,0-30h25a15,15,0,0,1,0,30Z"/><text class="d" transform="translate(1067.52 530)">A<tspan class="e" x="174.37" y="0">T</tspan><tspan class="f" x="379.41" y="0">L</tspan><tspan class="g" x="583.04" y="0">A</tspan><tspan class="h" x="815.68" y="0">S</tspan><tspan class="i"><tspan x="-15" y="280">S</tspan><tspan class="j" x="181.5" y="280">.</tspan><tspan class="k" x="256.87" y="280">A</tspan><tspan class="l" x="470.61" y="280">U</tspan><tspan class="m" x="699.36" y="280">R</tspan><tspan class="n" x="923.98" y="280">E</tspan><tspan class="o" x="1119.35" y="280">U</tspan><tspan class="p" x="1354.85" y="280">S</tspan></tspan></text><circle class="q" cx="437.52" cy="195" r="195"/><circle class="r" cx="437.52" cy="755" r="195"/><circle class="r" cx="195.03" cy="335" r="195" transform="translate(-179.76 236.03) rotate(-45)"/><circle class="q" cx="680.01" cy="615" r="195" transform="translate(-235.7 660.97) rotate(-45)"/><circle class="q" cx="195.03" cy="615" r="195" transform="translate(-377.75 318.04) rotate(-45)"/><circle class="r" cx="680.01" cy="335" r="195" transform="translate(-37.71 578.96) rotate(-45)"/></g></svg>