<svg id="Layer_4" data-name="Layer 4" xmlns="http://www.w3.org/2000/svg" viewBox="0 0 2778.61 950"><title>desktop</title><path d="M424.85,950a100,100,0,0,1-50.1-186.62L699.51,575.9a100,100,0,1,1,100,173.2L474.76,936.6A99.6,99.6,0,0,1,424.85,950Z" style="fill:#0d7da0"/><path d="M749.51,762.5a100,100,0,0,1-100-100v-375a100,100,0,0,1,200,0v375A100,100,0,0,1,749.51,762.5Z" style="fill:#ffab2e"/><path d="M749.42,387.52a99.47,99.47,0,0,1-49.91-13.42L374.76,186.6a100,100,0,1,1,100-173.2L799.51,200.9a100,100,0,0,1-50.09,186.62Z" style="fill:#0d7da0"/><path d="M100.09,387.52A100,100,0,0,1,50,200.9L374.76,13.4a100,100,0,1,1,100,173.2L150,374.1A99.57,99.57,0,0,1,100.09,387.52Z" style="fill:#ffab2e"/><path d="M100,762.5A100,100,0,0,1,0,662.5v-375a100,100,0,0,1,200,0v375A100,100,0,0,1,100,762.5Z" style="fill:#0d7da0"/><path d="M424.66,950a99.5,99.5,0,0,1-49.91-13.42L50,749.1A100,100,0,1,1,150,575.9L474.76,763.4A100,100,0,0,1,424.66,950Z" style="fill:#ffab2e"/><path d="M2519.78,460.18a73.65,73.65,0,0,0-64.2-109.8h-73.67a34,34,0,0,0-34,34V565.73a34,34,0,0,0,34,34h85a85,85,0,0,0,85-85A62.32,62.32,0,0,0,2519.78,460.18Zm-64.2-41.8a17,17,0,1,1,0,34h-39.67v-34Zm11.34,113.35h-51v-34h51a17,17,0,0,1,0,34Z" style="fill:#0d7da0"/><path d="M1337,372.34c-.13-.33-.29-.64-.42-1-.23-.57-.47-1.14-.73-1.7s-.5-1-.76-1.48-.52-.95-.8-1.41-.62-1-1-1.5-.57-.84-.88-1.25-.72-.94-1.09-1.39-.67-.8-1-1.19-.77-.82-1.17-1.21-.79-.79-1.21-1.16-.78-.69-1.18-1-.93-.75-1.41-1.1-.81-.59-1.23-.87-1-.66-1.52-1-.91-.52-1.38-.77-1-.54-1.52-.78-1.08-.48-1.62-.71c-.34-.14-.66-.3-1-.43-.15-.06-.3-.09-.45-.15-.59-.21-1.18-.38-1.78-.56s-1-.3-1.46-.43-1.16-.25-1.74-.36-1-.22-1.54-.3-1.13-.12-1.7-.18-1.08-.12-1.61-.14-1.12,0-1.68,0-1.09,0-1.64,0-1.1.09-1.65.15-1.11.09-1.66.17-1,.2-1.55.3-1.17.22-1.74.36l-1.44.42c-.6.18-1.21.36-1.8.58-.15.05-.29.08-.44.14-.34.12-.65.29-1,.42-.56.23-1.12.47-1.67.73s-1,.49-1.48.76-.95.51-1.42.79-1,.62-1.48.95-.86.58-1.27.89-.93.71-1.38,1.08-.81.68-1.2,1-.81.75-1.2,1.14-.79.81-1.17,1.23-.68.77-1,1.17-.75.93-1.11,1.41-.58.82-.87,1.24-.65,1-1,1.5-.53.94-.79,1.41-.52,1-.76,1.48-.5,1.13-.73,1.7c-.14.32-.29.63-.42,1l-36.17,96.44L1201,372.34c-.13-.33-.29-.64-.42-1-.23-.57-.47-1.14-.73-1.7s-.5-1-.76-1.48-.52-.95-.79-1.41-.64-1-1-1.5-.56-.84-.86-1.24-.73-.95-1.11-1.41-.66-.79-1-1.17-.77-.83-1.18-1.23-.78-.77-1.19-1.14-.8-.71-1.21-1.05-.9-.72-1.37-1.07-.84-.6-1.28-.89-1-.65-1.47-.94-1-.55-1.43-.81-1-.51-1.47-.75-1.12-.5-1.69-.74c-.33-.13-.63-.29-1-.41-.14-.06-.29-.09-.43-.14-.61-.22-1.24-.41-1.86-.59-.46-.14-.92-.29-1.37-.4-.61-.15-1.23-.27-1.84-.39s-1-.2-1.46-.27-1.18-.14-1.77-.19-1-.12-1.54-.14-1.15,0-1.73,0-1.06,0-1.59,0-1.11.09-1.67.15-1.1.09-1.65.17-1,.2-1.55.3-1.17.22-1.74.36l-1.44.42c-.6.18-1.21.36-1.8.58-.15.05-.3.08-.44.14-.34.12-.66.29-1,.42-.56.23-1.11.47-1.66.72s-1,.51-1.49.77-1,.51-1.41.79-1,.63-1.49,1-.84.57-1.25.87-.94.72-1.4,1.1-.8.67-1.19,1-.81.76-1.21,1.16-.78.79-1.16,1.21-.69.79-1,1.19-.74.91-1.09,1.39-.6.84-.89,1.26-.64,1-.94,1.48-.55,1-.8,1.43-.52,1-.76,1.47-.5,1.12-.73,1.69c-.14.33-.3.63-.42,1l-68,181.34A34,34,0,1,0,1133,577.56l36.17-96.45,36.17,96.45c.19.53.42,1,.64,1.54.11.24.2.49.31.73.43.94.9,1.86,1.41,2.74a1.19,1.19,0,0,0,.09.15c.48.83,1,1.63,1.54,2.41.14.2.29.39.44.59q.69.94,1.44,1.83c.18.22.36.44.55.65.54.6,1.09,1.18,1.67,1.74.16.16.3.32.46.47.72.67,1.47,1.32,2.25,1.92.23.19.48.35.72.53.57.43,1.15.84,1.75,1.23l.93.58c.65.4,1.31.77,2,1.12l.68.36c.92.45,1.87.86,2.83,1.23l.19.08.58.19c.65.23,1.3.44,2,.63.32.1.65.18,1,.26q.9.24,1.83.42l1,.19c.63.11,1.26.19,1.9.26.3,0,.6.08.9.1.91.07,1.82.12,2.73.12h.12c.92,0,1.83,0,2.73-.12.31,0,.61-.07.91-.1.64-.07,1.27-.15,1.9-.26l1-.19c.61-.12,1.21-.26,1.81-.41l1-.27q1-.28,2-.63l.58-.19.2-.08c1-.37,1.9-.78,2.83-1.23.23-.12.45-.25.68-.36.68-.35,1.34-.72,2-1.12l.93-.58c.59-.39,1.18-.8,1.75-1.23.24-.17.49-.34.72-.53.78-.6,1.52-1.25,2.25-1.92l.45-.46c.58-.57,1.14-1.15,1.68-1.75.19-.21.37-.43.55-.65q.75-.88,1.44-1.83l.43-.59c.55-.78,1.07-1.58,1.55-2.41l.09-.15c.51-.88,1-1.8,1.41-2.74.11-.24.2-.49.3-.73.23-.51.45-1,.65-1.54l36.17-96.45,36.17,96.45A34,34,0,1,0,1405,553.68Z" style="fill:#0d7da0"/><path d="M1586.71,357.42a34,34,0,0,0-47.71,6L1486.51,431,1434,363.41a34,34,0,1,0-53.7,41.73l72.18,92.91v67.57a34,34,0,0,0,68,0V498.05l72.19-92.91A34,34,0,0,0,1586.71,357.42Z" style="fill:#0d7da0"/><path d="M1816.57,360.23a34,34,0,0,0-48.08,0l-78,78v-54a34,34,0,0,0-68,0V565.62a34,34,0,0,0,68,0V534.48l27.29-27.31,45.56,75.95a34,34,0,0,0,58.32-35l-54.33-90.55,49.21-49.26A34,34,0,0,0,1816.57,360.23Z" style="fill:#0d7da0"/><path d="M2112.35,386.79a124.67,124.67,0,1,0,176.31,0A124.8,124.8,0,0,0,2112.35,386.79ZM2160.43,515a56.67,56.67,0,1,1,80.15,0A56.74,56.74,0,0,1,2160.43,515Z" style="fill:#0d7da0"/><path d="M2744.61,531.73h-102V509h56.67a34,34,0,0,0,0-68H2642.6V418.38h102a34,34,0,0,0,0-68H2610.7c-.7-.05-1.39-.11-2.1-.11a34,34,0,0,0-34,34V565.62s0,0,0,.06a.43.43,0,0,0,0,.05,34,34,0,0,0,34,34h136a34,34,0,0,0,0-68Z" style="fill:#0d7da0"/><path d="M2053.22,441a90.78,90.78,0,0,0-90.68-90.68h-79.33a34,34,0,0,0-34,34V565.62a34,34,0,0,0,68,0v-34h42l30.9,51.49a34,34,0,1,0,58.31-35L2024,507.53A90.42,90.42,0,0,0,2053.22,441Zm-136-22.67h45.33a22.67,22.67,0,1,1,0,45.33h-45.33Z" style="fill:#0d7da0"/><path d="M849.51,661a100,100,0,0,0-150-85.14l-50,28.86V662.5a100,100,0,0,0,148.77,87.31l1.23-.71c2.22-1.28,4.36-2.63,6.44-4l.34-.24c.5-.34,1-.69,1.48-1l1.17-.85.58-.43A100.5,100.5,0,0,0,835,714.39l.16-.27q.5-.81,1-1.62c.3-.53.6-1,.89-1.58l.19-.33a100.61,100.61,0,0,0,11.58-36.11c0-.26.06-.52.09-.78.06-.46.1-.92.15-1.37.06-.63.12-1.26.17-1.89l0-.33c.18-2.51.28-5.05.28-7.61Z" style="fill:#0d561e"/><path d="M468.06,9.86l-.48-.23-1.53-.71-1.41-.62-.58-.25A100.46,100.46,0,0,0,427,0h-.35c-.61,0-1.23,0-1.84,0s-1.24,0-1.85,0h-.35a100.46,100.46,0,0,0-37.11,8l-.57.24-1.42.63-1.52.71-.49.23c-2.26,1.09-4.49,2.26-6.69,3.54l-1.2.69a100,100,0,0,0,1.2,172.51l50,28.87,50-28.87A100,100,0,0,0,476,14.09l-1.2-.69C472.55,12.12,470.32,11,468.06,9.86Z" style="fill:#0d561e"/><path d="M150,575.9A100,100,0,0,0,0,661v1.46q0,3.84.29,7.61c0,.11,0,.22,0,.33,0,.63.11,1.26.17,1.89l.15,1.37.09.78a100.43,100.43,0,0,0,11.59,36.11l.18.33c.29.53.59,1.05.89,1.58l1,1.62.16.27A100.54,100.54,0,0,0,40,742.5l.57.43,1.17.85c.49.35,1,.7,1.48,1l.35.24c2.07,1.41,4.22,2.76,6.43,4l1.24.71A100,100,0,0,0,200,662.5V604.76Z" style="fill:#0d561e"/><path d="M836.11,337.5A99.47,99.47,0,0,0,849.51,289V287.5c0-2.56-.1-5.1-.28-7.61l0-.34c-.05-.63-.11-1.25-.17-1.88,0-.46-.09-.92-.15-1.37,0-.26,0-.53-.09-.79a100.62,100.62,0,0,0-11.58-36.1c-.07-.11-.13-.22-.19-.33-.29-.53-.59-1.06-.89-1.59l-1-1.6-.17-.28a100.44,100.44,0,0,0-25.48-28.1l-.62-.46-1.13-.82-1.53-1.08L806,205q-3.12-2.13-6.45-4l-1.26-.73A100,100,0,0,0,649.51,287.5v57.73l50,28.87a99.94,99.94,0,0,0,136.6-36.6Z" style="fill:#0d561e"/><path d="M200,287.5A100,100,0,0,0,51.26,200.17L50,200.9q-3.33,1.92-6.45,4l-.29.2-1.53,1.08-1.13.82-.62.46a100.44,100.44,0,0,0-25.48,28.1l-.17.28-.95,1.6-.89,1.59-.18.33A100.44,100.44,0,0,0,.72,275.51l-.09.79-.15,1.37c-.06.63-.12,1.25-.17,1.88,0,.11,0,.22,0,.34Q0,283.65,0,287.5V289A100,100,0,0,0,150,374.1l50-28.87Z" style="fill:#0d561e"/><path d="M511.36,900a100,100,0,0,0-36.6-136.6l-50-28.87-50,28.87a100,100,0,0,0-1,172.64l1,.56q3,1.71,6,3.19h0c.77.38,1.54.73,2.31,1.09l.9.42,1.14.49a99.73,99.73,0,0,0,79.48-.06l1-.42,1-.49c.72-.33,1.44-.66,2.16-1l.16-.08q3-1.47,5.85-3.13l.8-.46A99.51,99.51,0,0,0,511.36,900Z" style="fill:#0d561e"/></svg>