<svg xmlns="http://www.w3.org/2000/svg" viewBox="0 0 4248.14 971.06"><defs><style>.a{isolation:isolate;}.b{fill:none;stroke:#71c7e6;stroke-linecap:square;stroke-miterlimit:10;stroke-width:0.25px;}.c{fill:#3b9da7;}.d,.l,.m{mix-blend-mode:multiply;}.d{font-size:644.23px;font-family:BryantPro-Bold, Bryant Pro;font-weight:700;letter-spacing:-0.06em;}.d,.l{fill:#71c7e6;}.e{letter-spacing:-0.09em;}.f{letter-spacing:-0.07em;}.g{letter-spacing:-0.09em;}.h{letter-spacing:-0.08em;}.i{letter-spacing:-0.05em;}.j{letter-spacing:-0.12em;}.k{letter-spacing:-0.05em;}.m{fill:#86c9b9;}</style></defs><title>predictor-logo</title><g class="a"><circle class="b" cx="1067.52" cy="265" r="15"/><rect class="b" x="1082.52" y="140" width="110" height="110"/><circle class="b" cx="1207.52" cy="265" r="15"/><rect class="b" x="1222.52" y="140" width="110" height="110"/><circle class="b" cx="1347.52" cy="265" r="15"/><rect class="b" x="1362.52" y="140" width="110" height="110"/><circle class="b" cx="1487.52" cy="265" r="15"/><rect class="b" x="1502.52" y="140" width="110" height="110"/><circle class="b" cx="1067.52" cy="125" r="15"/><rect class="b" x="1082.52" width="110" height="110"/><circle class="b" cx="1207.52" cy="125" r="15"/><rect class="b" x="1222.52" width="110" height="110"/><circle class="b" cx="1347.52" cy="125" r="15"/><rect class="b" x="1362.52" width="110" height="110"/><circle class="b" cx="1487.52" cy="125" r="15"/><rect class="b" x="1502.52" width="110" height="110"/><circle class="b" cx="1067.52" cy="405" r="15"/><rect class="b" x="1082.52" y="280" width="110" height="110"/><circle class="b" cx="1207.52" cy="405" r="15"/><rect class="b" x="1222.52" y="280" width="110" height="110"/><circle class="b" cx="1347.52" cy="405" r="15"/><rect class="b" x="1362.52" y="280" width="110" height="110"/><circle class="b" cx="1487.52" cy="405" r="15"/><rect class="b" x="1502.52" y="280" width="110" height="110"/><circle class="b" cx="1067.52" cy="545" r="15"/><rect class="b" x="1082.52" y="420" width="110" height="110"/><circle class="b" cx="1207.52" cy="545" r="15"/><rect class="b" x="1222.52" y="420" width="110" height="110"/><circle class="b" cx="1347.52" cy="545" r="15"/><rect class="b" x="1362.52" y="420" width="110" height="110"/><circle class="b" cx="1487.52" cy="545" r="15"/><rect class="b" x="1502.52" y="420" width="110" height="110"/><circle class="b" cx="1067.52" cy="685" r="15"/><rect class="b" x="1082.52" y="560" width="110" height="110"/><circle class="b" cx="1207.52" cy="685" r="15"/><rect class="b" x="1222.52" y="560" width="110" height="110"/><circle class="b" cx="1347.52" cy="685" r="15"/><rect class="b" x="1362.52" y="560" width="110" height="110"/><circle class="b" cx="1487.52" cy="685" r="15"/><rect class="b" x="1502.52" y="560" width="110" height="110"/><circle class="b" cx="1067.52" cy="825" r="15"/><rect class="b" x="1082.52" y="700" width="110" height="110"/><circle class="b" cx="1207.52" cy="825" r="15"/><rect class="b" x="1222.52" y="700" width="110" height="110"/><circle class="b" cx="1347.52" cy="825" r="15"/><rect class="b" x="1362.52" y="700" width="110" height="110"/><circle class="b" cx="1487.52" cy="825" r="15"/><rect class="b" x="1502.52" y="700" width="110" height="110"/><rect class="b" x="1082.52" y="840" width="110" height="110"/><rect class="b" x="1222.52" y="840" width="110" height="110"/><rect class="b" x="1362.52" y="840" width="110" height="110"/><rect class="b" x="1502.52" y="840" width="110" height="110"/><circle class="b" cx="507.52" cy="265" r="15"/><rect class="b" x="522.52" y="140" width="110" height="110"/><circle class="b" cx="647.52" cy="265" r="15"/><rect class="b" x="662.52" y="140" width="110" height="110"/><circle class="b" cx="787.52" cy="265" r="15"/><rect class="b" x="802.52" y="140" width="110" height="110"/><circle class="b" cx="927.52" cy="265" r="15"/><rect class="b" x="942.52" y="140" width="110" height="110"/><circle class="b" cx="507.52" cy="125" r="15"/><rect class="b" x="522.52" width="110" height="110"/><circle class="b" cx="647.52" cy="125" r="15"/><rect class="b" x="662.52" width="110" height="110"/><circle class="b" cx="787.52" cy="125" r="15"/><rect class="b" x="802.52" width="110" height="110"/><circle class="b" cx="927.52" cy="125" r="15"/><rect class="b" x="942.52" width="110" height="110"/><circle class="b" cx="507.52" cy="405" r="15"/><rect class="b" x="522.52" y="280" width="110" height="110"/><circle class="b" cx="647.52" cy="405" r="15"/><rect class="b" x="662.52" y="280" width="110" height="110"/><circle class="b" cx="787.52" cy="405" r="15"/><rect class="b" x="802.52" y="280" width="110" height="110"/><circle class="b" cx="927.52" cy="405" r="15"/><rect class="b" x="942.52" y="280" width="110" height="110"/><circle class="b" cx="507.52" cy="545" r="15"/><rect class="b" x="522.52" y="420" width="110" height="110"/><circle class="b" cx="647.52" cy="545" r="15"/><rect class="b" x="662.52" y="420" width="110" height="110"/><circle class="b" cx="787.52" cy="545" r="15"/><rect class="b" x="802.52" y="420" width="110" height="110"/><circle class="b" cx="927.52" cy="545" r="15"/><rect class="b" x="942.52" y="420" width="110" height="110"/><circle class="b" cx="507.52" cy="685" r="15"/><rect class="b" x="522.52" y="560" width="110" height="110"/><circle class="b" cx="647.52" cy="685" r="15"/><rect class="b" x="662.52" y="560" width="110" height="110"/><circle class="b" cx="787.52" cy="685" r="15"/><rect class="b" x="802.52" y="560" width="110" height="110"/><circle class="b" cx="927.52" cy="685" r="15"/><rect class="b" x="942.52" y="560" width="110" height="110"/><circle class="b" cx="507.52" cy="825" r="15"/><rect class="b" x="522.52" y="700" width="110" height="110"/><circle class="b" cx="647.52" cy="825" r="15"/><rect class="b" x="662.52" y="700" width="110" height="110"/><circle class="b" cx="787.52" cy="825" r="15"/><rect class="b" x="802.52" y="700" width="110" height="110"/><circle class="b" cx="927.52" cy="825" r="15"/><rect class="b" x="942.52" y="700" width="110" height="110"/><rect class="b" x="522.52" y="840" width="110" height="110"/><rect class="b" x="662.52" y="840" width="110" height="110"/><rect class="b" x="802.52" y="840" width="110" height="110"/><rect class="b" x="942.52" y="840" width="110" height="110"/><rect class="b" x="-37.48" y="140" width="110" height="110"/><circle class="b" cx="87.52" cy="265" r="15"/><rect class="b" x="102.52" y="140" width="110" height="110"/><circle class="b" cx="227.52" cy="265" r="15"/><rect class="b" x="242.52" y="140" width="110" height="110"/><circle class="b" cx="367.52" cy="265" r="15"/><rect class="b" x="382.52" y="140" width="110" height="110"/><rect class="b" x="-37.48" width="110" height="110"/><circle class="b" cx="87.52" cy="125" r="15"/><rect class="b" x="102.52" width="110" height="110"/><circle class="b" cx="227.52" cy="125" r="15"/><rect class="b" x="242.52" width="110" height="110"/><circle class="b" cx="367.52" cy="125" r="15"/><rect class="b" x="382.52" width="110" height="110"/><rect class="b" x="-37.48" y="280" width="110" height="110"/><circle class="b" cx="87.52" cy="405" r="15"/><rect class="b" x="102.52" y="280" width="110" height="110"/><circle class="b" cx="227.52" cy="405" r="15"/><rect class="b" x="242.52" y="280" width="110" height="110"/><circle class="b" cx="367.52" cy="405" r="15"/><rect class="b" x="382.52" y="280" width="110" height="110"/><rect class="b" x="-37.48" y="420" width="110" height="110"/><circle class="b" cx="87.52" cy="545" r="15"/><rect class="b" x="102.52" y="420" width="110" height="110"/><circle class="b" cx="227.52" cy="545" r="15"/><rect class="b" x="242.52" y="420" width="110" height="110"/><circle class="b" cx="367.52" cy="545" r="15"/><rect class="b" x="382.52" y="420" width="110" height="110"/><rect class="b" x="-37.48" y="560" width="110" height="110"/><circle class="b" cx="87.52" cy="685" r="15"/><rect class="b" x="102.52" y="560" width="110" height="110"/><circle class="b" cx="227.52" cy="685" r="15"/><rect class="b" x="242.52" y="560" width="110" height="110"/><circle class="b" cx="367.52" cy="685" r="15"/><rect class="b" x="382.52" y="560" width="110" height="110"/><rect class="b" x="-37.48" y="700" width="110" height="110"/><circle class="b" cx="87.52" cy="825" r="15"/><rect class="b" x="102.52" y="700" width="110" height="110"/><circle class="b" cx="227.52" cy="825" r="15"/><rect class="b" x="242.52" y="700" width="110" height="110"/><circle class="b" cx="367.52" cy="825" r="15"/><rect class="b" x="382.52" y="700" width="110" height="110"/><rect class="b" x="-37.48" y="840" width="110" height="110"/><rect class="b" x="102.52" y="840" width="110" height="110"/><rect class="b" x="242.52" y="840" width="110" height="110"/><rect class="b" x="382.52" y="840" width="110" height="110"/><circle class="b" cx="2607.52" cy="265" r="15"/><rect class="b" x="2622.52" y="140" width="110" height="110"/><circle class="b" cx="2747.52" cy="265" r="15"/><rect class="b" x="2762.52" y="140" width="110" height="110"/><circle class="b" cx="2887.52" cy="265" r="15"/><rect class="b" x="2902.52" y="140" width="110" height="110"/><circle class="b" cx="3027.52" cy="265" r="15"/><rect class="b" x="3042.52" y="140" width="110" height="110"/><circle class="b" cx="2607.52" cy="125" r="15"/><rect class="b" x="2622.52" width="110" height="110"/><circle class="b" cx="2747.52" cy="125" r="15"/><rect class="b" x="2762.52" width="110" height="110"/><circle class="b" cx="2887.52" cy="125" r="15"/><rect class="b" x="2902.52" width="110" height="110"/><circle class="b" cx="3027.52" cy="125" r="15"/><rect class="b" x="3042.52" width="110" height="110"/><circle class="b" cx="2607.52" cy="405" r="15"/><rect class="b" x="2622.52" y="280" width="110" height="110"/><circle class="b" cx="2747.52" cy="405" r="15"/><rect class="b" x="2762.52" y="280" width="110" height="110"/><circle class="b" cx="2887.52" cy="405" r="15"/><rect class="b" x="2902.52" y="280" width="110" height="110"/><circle class="b" cx="3027.52" cy="405" r="15"/><rect class="b" x="3042.52" y="280" width="110" height="110"/><circle class="b" cx="2607.52" cy="545" r="15"/><rect class="b" x="2622.52" y="420" width="110" height="110"/><circle class="b" cx="2747.52" cy="545" r="15"/><rect class="b" x="2762.52" y="420" width="110" height="110"/><circle class="b" cx="2887.52" cy="545" r="15"/><rect class="b" x="2902.52" y="420" width="110" height="110"/><circle class="b" cx="3027.52" cy="545" r="15"/><rect class="b" x="3042.52" y="420" width="110" height="110"/><circle class="b" cx="2607.52" cy="685" r="15"/><rect class="b" x="2622.52" y="560" width="110" height="110"/><circle class="b" cx="2747.52" cy="685" r="15"/><rect class="b" x="2762.52" y="560" width="110" height="110"/><circle class="b" cx="2887.52" cy="685" r="15"/><rect class="b" x="2902.52" y="560" width="110" height="110"/><circle class="b" cx="3027.52" cy="685" r="15"/><rect class="b" x="3042.52" y="560" width="110" height="110"/><circle class="b" cx="2607.52" cy="825" r="15"/><rect class="b" x="2622.52" y="700" width="110" height="110"/><circle class="b" cx="2747.52" cy="825" r="15"/><rect class="b" x="2762.52" y="700" width="110" height="110"/><circle class="b" cx="2887.52" cy="825" r="15"/><rect class="b" x="2902.52" y="700" width="110" height="110"/><circle class="b" cx="3027.52" cy="825" r="15"/><rect class="b" x="3042.52" y="700" width="110" height="110"/><rect class="b" x="2622.52" y="840" width="110" height="110"/><rect class="b" x="2762.52" y="840" width="110" height="110"/><rect class="b" x="2902.52" y="840" width="110" height="110"/><rect class="b" x="3042.52" y="840" width="110" height="110"/><circle class="b" cx="2047.52" cy="265" r="15"/><rect class="b" x="2062.52" y="140" width="110" height="110"/><circle class="b" cx="2187.52" cy="265" r="15"/><rect class="b" x="2202.52" y="140" width="110" height="110"/><circle class="b" cx="2327.52" cy="265" r="15"/><rect class="b" x="2342.52" y="140" width="110" height="110"/><circle class="b" cx="2467.52" cy="265" r="15"/><rect class="b" x="2482.52" y="140" width="110" height="110"/><circle class="b" cx="2047.52" cy="125" r="15"/><rect class="b" x="2062.52" width="110" height="110"/><circle class="b" cx="2187.52" cy="125" r="15"/><rect class="b" x="2202.52" width="110" height="110"/><circle class="b" cx="2327.52" cy="125" r="15"/><rect class="b" x="2342.52" width="110" height="110"/><circle class="b" cx="2467.52" cy="125" r="15"/><rect class="b" x="2482.52" width="110" height="110"/><circle class="b" cx="2047.52" cy="405" r="15"/><rect class="b" x="2062.52" y="280" width="110" height="110"/><circle class="b" cx="2187.52" cy="405" r="15"/><rect class="b" x="2202.52" y="280" width="110" height="110"/><circle class="b" cx="2327.52" cy="405" r="15"/><rect class="b" x="2342.52" y="280" width="110" height="110"/><circle class="b" cx="2467.52" cy="405" r="15"/><rect class="b" x="2482.52" y="280" width="110" height="110"/><circle class="b" cx="2047.52" cy="545" r="15"/><rect class="b" x="2062.52" y="420" width="110" height="110"/><circle class="b" cx="2187.52" cy="545" r="15"/><rect class="b" x="2202.52" y="420" width="110" height="110"/><circle class="b" cx="2327.52" cy="545" r="15"/><rect class="b" x="2342.52" y="420" width="110" height="110"/><circle class="b" cx="2467.52" cy="545" r="15"/><rect class="b" x="2482.52" y="420" width="110" height="110"/><circle class="b" cx="2047.52" cy="685" r="15"/><rect class="b" x="2062.52" y="560" width="110" height="110"/><circle class="b" cx="2187.52" cy="685" r="15"/><rect class="b" x="2202.52" y="560" width="110" height="110"/><circle class="b" cx="2327.52" cy="685" r="15"/><rect class="b" x="2342.52" y="560" width="110" height="110"/><circle class="b" cx="2467.52" cy="685" r="15"/><rect class="b" x="2482.52" y="560" width="110" height="110"/><circle class="b" cx="2047.52" cy="825" r="15"/><rect class="b" x="2062.52" y="700" width="110" height="110"/><circle class="b" cx="2187.52" cy="825" r="15"/><rect class="b" x="2202.52" y="700" width="110" height="110"/><circle class="b" cx="2327.52" cy="825" r="15"/><rect class="b" x="2342.52" y="700" width="110" height="110"/><circle class="b" cx="2467.52" cy="825" r="15"/><rect class="b" x="2482.52" y="700" width="110" height="110"/><rect class="b" x="2062.52" y="840" width="110" height="110"/><rect class="b" x="2202.52" y="840" width="110" height="110"/><rect class="b" x="2342.52" y="840" width="110" height="110"/><rect class="b" x="2482.52" y="840" width="110" height="110"/><circle class="b" cx="1627.52" cy="265" r="15"/><rect class="b" x="1642.52" y="140" width="110" height="110"/><circle class="b" cx="1767.52" cy="265" r="15"/><rect class="b" x="1782.52" y="140" width="110" height="110"/><circle class="b" cx="1907.52" cy="265" r="15"/><rect class="b" x="1922.52" y="140" width="110" height="110"/><circle class="b" cx="1627.52" cy="125" r="15"/><rect class="b" x="1642.52" width="110" height="110"/><circle class="b" cx="1767.52" cy="125" r="15"/><rect class="b" x="1782.52" width="110" height="110"/><circle class="b" cx="1907.52" cy="125" r="15"/><rect class="b" x="1922.52" width="110" height="110"/><circle class="b" cx="1627.52" cy="405" r="15"/><rect class="b" x="1642.52" y="280" width="110" height="110"/><circle class="b" cx="1767.52" cy="405" r="15"/><rect class="b" x="1782.52" y="280" width="110" height="110"/><circle class="b" cx="1907.52" cy="405" r="15"/><rect class="b" x="1922.52" y="280" width="110" height="110"/><circle class="b" cx="1627.52" cy="545" r="15"/><rect class="b" x="1642.52" y="420" width="110" height="110"/><circle class="b" cx="1767.52" cy="545" r="15"/><rect class="b" x="1782.52" y="420" width="110" height="110"/><circle class="b" cx="1907.52" cy="545" r="15"/><rect class="b" x="1922.52" y="420" width="110" height="110"/><circle class="b" cx="1627.52" cy="685" r="15"/><rect class="b" x="1642.52" y="560" width="110" height="110"/><circle class="b" cx="1767.52" cy="685" r="15"/><rect class="b" x="1782.52" y="560" width="110" height="110"/><circle class="b" cx="1907.52" cy="685" r="15"/><rect class="b" x="1922.52" y="560" width="110" height="110"/><circle class="b" cx="1627.52" cy="825" r="15"/><rect class="b" x="1642.52" y="700" width="110" height="110"/><circle class="b" cx="1767.52" cy="825" r="15"/><rect class="b" x="1782.52" y="700" width="110" height="110"/><circle class="b" cx="1907.52" cy="825" r="15"/><rect class="b" x="1922.52" y="700" width="110" height="110"/><rect class="b" x="1642.52" y="840" width="110" height="110"/><rect class="b" x="1782.52" y="840" width="110" height="110"/><rect class="b" x="1922.52" y="840" width="110" height="110"/><circle class="b" cx="437.52" cy="475" r="475"/><path class="c" d="M2080.47,140.09a25.77,25.77,0,0,0-25.77,25.77V303.29a25.77,25.77,0,1,0,51.54,0V165.86A25.77,25.77,0,0,0,2080.47,140.09Z"/><path class="c" d="M2209.31,264.64a47.24,47.24,0,0,0-47.24-47.24h-64.42a17.18,17.18,0,1,0,0,34.35h47.24a12.89,12.89,0,1,1,0,25.77h-64.42a25.77,25.77,0,1,0,0,51.54h64.42a64.42,64.42,0,0,0,64.42-64.42"/><path class="c" d="M2132,251.75a17.18,17.18,0,1,1,0-34.35h4.29a12.89,12.89,0,1,0,0-25.77h-55.83a25.77,25.77,0,1,1,0-51.54h55.83a55.83,55.83,0,0,1,0,111.66H2132"/><path class="c" d="M1530.72,329A25.76,25.76,0,0,1,1505,303.21V165.78a25.77,25.77,0,1,1,51.53,0V303.21A25.77,25.77,0,0,1,1530.72,329Z"/><path class="c" d="M1109.82,329a25.79,25.79,0,0,1-24.12-34.82l51.54-137.44a25.77,25.77,0,1,1,48.25,18.1L1134,312.26A25.79,25.79,0,0,1,1109.82,329Z"/><path class="c" d="M1316,329a25.77,25.77,0,0,1-24.13-16.73l-51.54-137.43a25.77,25.77,0,1,1,48.26-18.1l51.54,137.44A25.79,25.79,0,0,1,1316,329Z"/><path class="c" d="M1212.9,329a25.79,25.79,0,0,1-24.12-34.82l51.53-137.44a25.77,25.77,0,0,1,48.26,18.1L1237,312.26A25.79,25.79,0,0,1,1212.9,329Z"/><path class="c" d="M1212.91,329a25.76,25.76,0,0,1-24.13-16.73l-51.54-137.43a25.77,25.77,0,1,1,48.25-18.1L1237,294.17A25.79,25.79,0,0,1,1212.91,329Z"/><path class="c" d="M1401.88,329a25.77,25.77,0,0,1-25.77-25.77v-60a25.82,25.82,0,0,1,5.42-15.82L1441.66,150a25.77,25.77,0,0,1,40.7,31.62L1427.65,252v51.21A25.77,25.77,0,0,1,1401.88,329Z"/><path class="c" d="M1538.27,287.16a25.77,25.77,0,0,1-18.22-44l95.53-95.61A25.77,25.77,0,0,1,1652,184l-95.53,95.61A25.68,25.68,0,0,1,1538.27,287.16Z"/><path class="c" d="M1633.83,329a25.76,25.76,0,0,1-22.12-12.52l-41.19-68.64a25.77,25.77,0,1,1,44.19-26.52L1655.9,290a25.78,25.78,0,0,1-22.07,39Z"/><path class="c" d="M1702.52,329a25.77,25.77,0,0,1-25.77-25.77V165.78a25.77,25.77,0,1,1,51.54,0V303.21A25.77,25.77,0,0,1,1702.52,329Z"/><path class="c" d="M1943,328.94a94.45,94.45,0,0,1-66.82-161.26,25.77,25.77,0,0,1,36.45,36.45,42.95,42.95,0,1,0,60.74,60.73,25.77,25.77,0,0,1,36.44,36.45A94.2,94.2,0,0,1,1943,328.94Z"/><path class="c" d="M1991.58,308.85a25.77,25.77,0,0,1-18.22-44,42.95,42.95,0,0,0-60.74-60.73,25.77,25.77,0,0,1-36.45-36.45A94.49,94.49,0,1,1,2009.8,301.31,25.69,25.69,0,0,1,1991.58,308.85Z"/><path class="c" d="M2355.34,191.63H2252.26a25.77,25.77,0,0,1,0-51.54h103.08a25.77,25.77,0,0,1,0,51.54Z"/><path class="c" d="M2355.34,329.06H2252.26a25.77,25.77,0,0,1,0-51.54h103.08a25.77,25.77,0,0,1,0,51.54Z"/><path class="c" d="M2252.26,329a25.77,25.77,0,0,1-25.77-25.77V165.78a25.77,25.77,0,1,1,51.54,0V303.21A25.77,25.77,0,0,1,2252.26,329Z"/><path class="c" d="M1762.65,277.44h-34.36a25.77,25.77,0,1,1,0-51.53h34.36a17.18,17.18,0,0,0,0-34.36h-60.13a25.77,25.77,0,1,1,0-51.54h60.13a68.72,68.72,0,1,1,0,137.43Z"/><path class="c" d="M1805.62,329a25.77,25.77,0,0,1-22.12-12.52l-23.42-39a25.77,25.77,0,0,1,44.2-26.51l23.41,39a25.78,25.78,0,0,1-22.07,39Z"/><path class="c" d="M1401.9,268.94a25.75,25.75,0,0,1-20.37-10l-60.13-77.39A25.77,25.77,0,0,1,1362.1,150l60.13,77.38a25.78,25.78,0,0,1-20.33,41.59Z"/><path class="c" d="M2321,260.26H2278a25.77,25.77,0,1,1,0-51.53H2321a25.77,25.77,0,1,1,0,51.53Z"/><text class="d" transform="translate(1032.52 810)">P<tspan class="e" x="380.73" y="0">R</tspan><tspan class="f" x="766.63" y="0">E</tspan><tspan class="g" x="1109.03" y="0">D</tspan><tspan class="h" x="1504.58" y="0">I</tspan><tspan class="i" x="1639.22" y="0">C</tspan><tspan class="j" x="2037.99" y="0">T</tspan><tspan class="g" x="2358.81" y="0">O</tspan><tspan class="k" x="2802.68" y="0">R</tspan></text><circle class="l" cx="437.52" cy="195" r="195"/><circle class="m" cx="437.52" cy="755" r="195"/><circle class="m" cx="195.03" cy="335" r="195" transform="translate(-179.76 236.03) rotate(-45)"/><circle class="l" cx="680.01" cy="615" r="195" transform="translate(-235.7 660.97) rotate(-45)"/><circle class="l" cx="195.03" cy="615" r="195" transform="translate(-377.75 318.04) rotate(-45)"/><circle class="m" cx="680.01" cy="335" r="195" transform="translate(-37.71 578.96) rotate(-45)"/></g></svg>