<svg xmlns="http://www.w3.org/2000/svg" viewBox="0 0 2911.54 950"><defs><style>.a{isolation:isolate;}.b{fill:#0d561e;}.c{fill:#0d7da0;}.d{fill:#ffab2e;stroke-miterlimit:10;}.d,.f{stroke:#ffab2e;}.e,.f{fill:none;stroke-linecap:round;stroke-linejoin:round;stroke-width:200px;mix-blend-mode:multiply;}.e{stroke:#0d7da0;}</style></defs><title>predictor-tb-logo</title><g class="a"><path class="b" d="M1649.76,140.05a15,15,0,0,0-15,15v80a15,15,0,0,0,30,0v-80A15,15,0,0,0,1649.76,140.05Z"/><path class="b" d="M1724.76,212.55a27.5,27.5,0,0,0-27.5-27.5h-37.5a10,10,0,0,0,0,20h27.5a7.5,7.5,0,0,1,0,15h-37.5a15,15,0,0,0,0,30h37.5a37.5,37.5,0,0,0,37.5-37.5"/><path class="b" d="M1679.76,205.05a10,10,0,0,1,0-20h2.5a7.5,7.5,0,0,0,0-15h-32.5a15,15,0,0,1,0-30h32.5a32.5,32.5,0,0,1,0,65h-2.5"/><path class="b" d="M1329.76,250a15,15,0,0,1-15-15V155a15,15,0,0,1,30,0v80A15,15,0,0,1,1329.76,250Z"/><path class="b" d="M1084.75,250a15,15,0,0,1-14-20.27l30-80a15,15,0,1,1,28.09,10.53l-30,80A15,15,0,0,1,1084.75,250Z"/><path class="b" d="M1204.76,250a15,15,0,0,1-14-9.74l-30-80a15,15,0,1,1,28.09-10.53l30,80a15,15,0,0,1-14,20.27Z"/><path class="b" d="M1144.75,250a15,15,0,0,1-14-20.27l30-80a15,15,0,1,1,28.09,10.53l-30,80A15,15,0,0,1,1144.75,250Z"/><path class="b" d="M1144.76,250a15,15,0,0,1-14-9.74l-30-80a15,15,0,1,1,28.09-10.53l30,80a15,15,0,0,1-14,20.27Z"/><path class="b" d="M1254.76,250a15,15,0,0,1-15-15V200.05a15,15,0,0,1,3.15-9.2l35-45a15,15,0,1,1,23.69,18.41l-31.84,41V235A15,15,0,0,1,1254.76,250Z"/><path class="b" d="M1334.15,225.66a15,15,0,0,1-10.61-25.61l55.61-55.65a15,15,0,1,1,21.21,21.21l-55.6,55.65A15,15,0,0,1,1334.15,225.66Z"/><path class="b" d="M1389.77,250a15,15,0,0,1-12.88-7.29l-24-40a15,15,0,1,1,25.72-15.43l24,40A15,15,0,0,1,1389.77,250Z"/><path class="b" d="M1429.76,250a15,15,0,0,1-15-15V155a15,15,0,0,1,30,0v80A15,15,0,0,1,1429.76,250Z"/><path class="b" d="M1569.73,250a55,55,0,0,1-38.89-93.87,15,15,0,0,1,21.21,21.22,25,25,0,0,0,35.36,35.35,15,15,0,0,1,21.21,21.21A54.8,54.8,0,0,1,1569.73,250Z"/><path class="b" d="M1598,238.29a15,15,0,0,1-10.6-25.61,25,25,0,1,0-35.36-35.35,15,15,0,1,1-21.21-21.22,55,55,0,1,1,77.78,77.78A15,15,0,0,1,1598,238.29Z"/><path class="b" d="M1809.76,170.05h-60a15,15,0,0,1,0-30h60a15,15,0,0,1,0,30Z"/><path class="b" d="M1809.76,250.05h-60a15,15,0,0,1,0-30h60a15,15,0,0,1,0,30Z"/><path class="b" d="M1749.76,250a15,15,0,0,1-15-15V155a15,15,0,0,1,30,0v80A15,15,0,0,1,1749.76,250Z"/><path class="b" d="M1464.76,220h-20a15,15,0,0,1,0-30h20a10,10,0,0,0,0-20h-35a15,15,0,0,1,0-30h35a40,40,0,0,1,0,80Z"/><path class="b" d="M1489.77,250a15,15,0,0,1-12.88-7.29L1463.26,220A15,15,0,1,1,1489,204.57l13.63,22.72A15,15,0,0,1,1489.77,250Z"/><path class="b" d="M1254.77,215.05a15,15,0,0,1-11.86-5.8l-35-45a15,15,0,0,1,23.69-18.41l35,45a15,15,0,0,1-11.83,24.2Z"/><path class="b" d="M1789.76,210h-25a15,15,0,0,1,0-30h25a15,15,0,0,1,0,30Z"/><path class="c" d="M1187.13,433.25h-71.62v76.87a22.88,22.88,0,1,1-45.75,0v-207a22.73,22.73,0,0,1,22.87-22.87h94.5c62.25,0,88.88,34.5,88.88,76.87S1249.38,433.25,1187.13,433.25Zm6.38-111h-78v68.63h78c25.12,0,36.37-16.88,36.37-33.76C1229.88,340.62,1218.63,322.25,1193.51,322.25Z"/><path class="c" d="M1499.5,510.12A22.71,22.71,0,0,1,1476.63,533c-10.13,0-16.5-4.5-20.25-12.38l-43.88-90.37h-75.37v79.87a22.88,22.88,0,1,1-45.75,0v-207a22.73,22.73,0,0,1,22.87-22.87h96.38c62.25,0,88.87,30.75,88.87,75,0,29.25-12.75,54.37-41.25,66.75l38.63,78.38A22.24,22.24,0,0,1,1499.5,510.12ZM1417,322.25h-79.87v68.63H1417c25.13,0,36.38-18.38,36.38-35.26C1453.38,339.12,1442.13,322.25,1417,322.25Z"/><path class="c" d="M1679.88,530H1539.25A23,23,0,0,1,1516,507.12v-204a23,23,0,0,1,23.25-22.87h135c12,0,21.75,9,21.75,21a21.44,21.44,0,0,1-21.75,21.37h-112.5v59.63h61.88A21.36,21.36,0,0,1,1645,403.62a21,21,0,0,1-21.37,21h-61.88v63h118.13A21.45,21.45,0,0,1,1701.63,509C1701.63,521,1691.88,530,1679.88,530Z"/><path class="c" d="M1807.19,530h-68.63a23.37,23.37,0,0,1-23.25-23.25V303.12a23,23,0,0,1,23.25-22.87h68.63c76.12,0,124.5,55.13,124.5,124.87S1883.31,530,1807.19,530Zm-2.25-207.38h-43.88v165h43.88c51.75,0,81-34.12,81-82.5S1856.69,322.62,1804.94,322.62Z"/><path class="c" d="M1970.68,533a23.37,23.37,0,0,1-23.25-23.25V300.5a23.37,23.37,0,0,1,23.25-23.25c12.75,0,22.5,10.5,22.5,23.25V509.75C1993.18,522.5,1983.43,533,1970.68,533Z"/><path class="c" d="M2191.55,471.5c4.88-3.38,9.75-5.25,15-5.25,12.75,0,20.63,9.75,20.63,21,0,6-2.63,10.87-7.13,15.37-21.37,22.13-54.37,31.88-83.62,31.88-73.5,0-127.5-51-127.5-129.38s54-129.37,127.5-129.37c29.25,0,62.25,9.75,83.62,31.87,4.5,4.5,7.13,9.38,7.13,15.38,0,11.25-7.88,21-20.63,21-5.25,0-10.12-1.88-15-5.25-14.25-10.87-29.62-20.63-55.12-20.63-49.13,0-81.38,37.13-81.38,87s32.25,87,81.38,87C2161.93,492.12,2177.3,482.38,2191.55,471.5Z"/><path class="c" d="M2429.68,323.38h-64.13V509.75A23.37,23.37,0,0,1,2342.3,533c-12.75,0-22.5-10.5-22.5-23.25V323.38h-64.5a21.57,21.57,0,1,1,0-43.13h174.38A21.77,21.77,0,0,1,2451.43,302,21.46,21.46,0,0,1,2429.68,323.38Z"/><path class="c" d="M2557.92,534.5c-73.5,0-128.25-57-128.25-129.38s54.75-129.37,128.25-129.37,128.25,57,128.25,129.37S2631.42,534.5,2557.92,534.5Zm0-217.5c-51,0-82.12,40.5-82.12,88.12s31.12,88.13,82.12,88.13,82.13-40.5,82.13-88.13S2608.92,317,2557.92,317Z"/><path class="c" d="M2909.29,510.12A22.71,22.71,0,0,1,2886.42,533c-10.13,0-16.5-4.5-20.25-12.38l-43.88-90.37h-75.37v79.87a22.88,22.88,0,1,1-45.75,0v-207A22.73,22.73,0,0,1,2724,280.25h96.38c62.25,0,88.87,30.75,88.87,75,0,29.25-12.75,54.37-41.25,66.75l38.63,78.38A22.24,22.24,0,0,1,2909.29,510.12Zm-82.5-187.87h-79.87v68.63h79.87c25.13,0,36.38-18.38,36.38-35.26C2863.17,339.12,2851.92,322.25,2826.79,322.25Z"/><path class="d" d="M1265.88,603.38h-64.12V789.75A23.37,23.37,0,0,1,1178.51,813c-12.75,0-22.5-10.5-22.5-23.25V603.38h-64.5a21.57,21.57,0,1,1,0-43.13h174.37A21.77,21.77,0,0,1,1287.63,582,21.45,21.45,0,0,1,1265.88,603.38Z"/><path class="d" d="M1410.55,810h-90.37a23.05,23.05,0,0,1-22.88-23.25V583.12a22.73,22.73,0,0,1,22.88-22.87h86.62c49.88,0,78.75,25.87,78.75,61.87,0,25.13-15.75,42.76-39.75,53.63,32.63,7.5,53.25,31.13,53.25,62.63C1499.05,775.5,1468.68,810,1410.55,810Zm-1.87-208.88h-65.63v56.63h65.63c21,0,30.75-14.25,30.75-28.87C1439.43,612.38,1428.18,601.12,1408.68,601.12Zm5.25,97.5h-70.88v70.5h71.25c23.63,0,39-13.87,39-36C1453.3,714.38,1439.05,698.62,1413.93,698.62Z"/><line class="e" x1="749.51" y1="662.5" x2="424.76" y2="850"/><line class="f" x1="749.51" y1="287.5" x2="749.51" y2="662.5"/><line class="e" x1="424.76" y1="100" x2="749.51" y2="287.5"/><line class="f" x1="100" y1="287.5" x2="424.76" y2="100"/><line class="e" x1="100" y1="662.5" x2="100" y2="287.5"/><line class="f" x1="424.76" y1="850" x2="100" y2="662.5"/></g></svg>