<svg xmlns="http://www.w3.org/2000/svg" viewBox="0 0 2962.02 950"><defs><style>.a{isolation:isolate;}.b,.o{fill:none;}.b{stroke:#71c7e6;stroke-linecap:square;stroke-miterlimit:10;stroke-width:0.25px;}.c{fill:#622268;}.d{font-size:375px;font-family:BryantPro-Bold, Bryant Pro;font-weight:700;letter-spacing:-0.06em;}.d,.p{fill:#7759b5;}.e{letter-spacing:-0.09em;}.f{letter-spacing:-0.07em;}.g{letter-spacing:-0.09em;}.h{letter-spacing:-0.08em;}.i{letter-spacing:-0.05em;}.j{letter-spacing:-0.12em;}.k{letter-spacing:-0.05em;}.l{font-size:376.69px;fill:#d16293;letter-spacing:-0.06em;}.m{letter-spacing:-0.09em;}.n{letter-spacing:-0.05em;}.o{stroke:#d16293;stroke-linecap:round;stroke-linejoin:round;stroke-width:250px;}.o,.p{mix-blend-mode:multiply;}</style></defs><title>predictor-gram-negative-logo</title><g class="a"><circle class="b" cx="475.24" cy="475" r="225"/><circle class="b" cx="475.24" cy="475" r="85"/><circle class="b" cx="1105.24" cy="265" r="15"/><rect class="b" x="1120.24" y="140" width="110" height="110"/><circle class="b" cx="1245.24" cy="265" r="15"/><rect class="b" x="1260.24" y="140" width="110" height="110"/><circle class="b" cx="1385.24" cy="265" r="15"/><rect class="b" x="1400.24" y="140" width="110" height="110"/><circle class="b" cx="1525.24" cy="265" r="15"/><rect class="b" x="1540.24" y="140" width="110" height="110"/><circle class="b" cx="1105.24" cy="125" r="15"/><rect class="b" x="1120.24" width="110" height="110"/><circle class="b" cx="1245.24" cy="125" r="15"/><rect class="b" x="1260.24" width="110" height="110"/><circle class="b" cx="1385.24" cy="125" r="15"/><rect class="b" x="1400.24" width="110" height="110"/><circle class="b" cx="1525.24" cy="125" r="15"/><rect class="b" x="1540.24" width="110" height="110"/><circle class="b" cx="1105.24" cy="405" r="15"/><rect class="b" x="1120.24" y="280" width="110" height="110"/><circle class="b" cx="1245.24" cy="405" r="15"/><rect class="b" x="1260.24" y="280" width="110" height="110"/><circle class="b" cx="1385.24" cy="405" r="15"/><rect class="b" x="1400.24" y="280" width="110" height="110"/><circle class="b" cx="1525.24" cy="405" r="15"/><rect class="b" x="1540.24" y="280" width="110" height="110"/><circle class="b" cx="1105.24" cy="545" r="15"/><rect class="b" x="1120.24" y="420" width="110" height="110"/><circle class="b" cx="1245.24" cy="545" r="15"/><rect class="b" x="1260.24" y="420" width="110" height="110"/><circle class="b" cx="1385.24" cy="545" r="15"/><rect class="b" x="1400.24" y="420" width="110" height="110"/><circle class="b" cx="1525.24" cy="545" r="15"/><rect class="b" x="1540.24" y="420" width="110" height="110"/><circle class="b" cx="1105.24" cy="685" r="15"/><rect class="b" x="1120.24" y="560" width="110" height="110"/><circle class="b" cx="1245.24" cy="685" r="15"/><rect class="b" x="1260.24" y="560" width="110" height="110"/><circle class="b" cx="1385.24" cy="685" r="15"/><rect class="b" x="1400.24" y="560" width="110" height="110"/><circle class="b" cx="1525.24" cy="685" r="15"/><rect class="b" x="1540.24" y="560" width="110" height="110"/><circle class="b" cx="1105.24" cy="825" r="15"/><rect class="b" x="1120.24" y="700" width="110" height="110"/><circle class="b" cx="1245.24" cy="825" r="15"/><rect class="b" x="1260.24" y="700" width="110" height="110"/><circle class="b" cx="1385.24" cy="825" r="15"/><rect class="b" x="1400.24" y="700" width="110" height="110"/><circle class="b" cx="1525.24" cy="825" r="15"/><rect class="b" x="1540.24" y="700" width="110" height="110"/><rect class="b" x="1120.24" y="840" width="110" height="110"/><rect class="b" x="1260.24" y="840" width="110" height="110"/><rect class="b" x="1400.24" y="840" width="110" height="110"/><rect class="b" x="1540.24" y="840" width="110" height="110"/><circle class="b" cx="545.24" cy="265" r="15"/><rect class="b" x="560.24" y="140" width="110" height="110"/><circle class="b" cx="685.24" cy="265" r="15"/><rect class="b" x="700.24" y="140" width="110" height="110"/><circle class="b" cx="825.24" cy="265" r="15"/><rect class="b" x="840.24" y="140" width="110" height="110"/><circle class="b" cx="965.24" cy="265" r="15"/><rect class="b" x="980.24" y="140" width="110" height="110"/><circle class="b" cx="545.24" cy="125" r="15"/><rect class="b" x="560.24" width="110" height="110"/><circle class="b" cx="685.24" cy="125" r="15"/><rect class="b" x="700.24" width="110" height="110"/><circle class="b" cx="825.24" cy="125" r="15"/><rect class="b" x="840.24" width="110" height="110"/><circle class="b" cx="965.24" cy="125" r="15"/><rect class="b" x="980.24" width="110" height="110"/><circle class="b" cx="545.24" cy="405" r="15"/><rect class="b" x="560.24" y="280" width="110" height="110"/><circle class="b" cx="685.24" cy="405" r="15"/><rect class="b" x="700.24" y="280" width="110" height="110"/><circle class="b" cx="825.24" cy="405" r="15"/><rect class="b" x="840.24" y="280" width="110" height="110"/><circle class="b" cx="965.24" cy="405" r="15"/><rect class="b" x="980.24" y="280" width="110" height="110"/><circle class="b" cx="545.24" cy="545" r="15"/><rect class="b" x="560.24" y="420" width="110" height="110"/><circle class="b" cx="685.24" cy="545" r="15"/><rect class="b" x="700.24" y="420" width="110" height="110"/><circle class="b" cx="825.24" cy="545" r="15"/><rect class="b" x="840.24" y="420" width="110" height="110"/><circle class="b" cx="965.24" cy="545" r="15"/><rect class="b" x="980.24" y="420" width="110" height="110"/><circle class="b" cx="545.24" cy="685" r="15"/><rect class="b" x="560.24" y="560" width="110" height="110"/><circle class="b" cx="685.24" cy="685" r="15"/><rect class="b" x="700.24" y="560" width="110" height="110"/><circle class="b" cx="825.24" cy="685" r="15"/><rect class="b" x="840.24" y="560" width="110" height="110"/><circle class="b" cx="965.24" cy="685" r="15"/><rect class="b" x="980.24" y="560" width="110" height="110"/><circle class="b" cx="545.24" cy="825" r="15"/><rect class="b" x="560.24" y="700" width="110" height="110"/><circle class="b" cx="685.24" cy="825" r="15"/><rect class="b" x="700.24" y="700" width="110" height="110"/><circle class="b" cx="825.24" cy="825" r="15"/><rect class="b" x="840.24" y="700" width="110" height="110"/><circle class="b" cx="965.24" cy="825" r="15"/><rect class="b" x="980.24" y="700" width="110" height="110"/><rect class="b" x="560.24" y="840" width="110" height="110"/><rect class="b" x="700.24" y="840" width="110" height="110"/><rect class="b" x="840.24" y="840" width="110" height="110"/><rect class="b" x="980.24" y="840" width="110" height="110"/><rect class="b" x="0.24" y="140" width="110" height="110"/><circle class="b" cx="125.24" cy="265" r="15"/><rect class="b" x="140.24" y="140" width="110" height="110"/><circle class="b" cx="265.24" cy="265" r="15"/><rect class="b" x="280.24" y="140" width="110" height="110"/><circle class="b" cx="405.24" cy="265" r="15"/><rect class="b" x="420.24" y="140" width="110" height="110"/><rect class="b" x="0.24" width="110" height="110"/><circle class="b" cx="125.24" cy="125" r="15"/><rect class="b" x="140.24" width="110" height="110"/><circle class="b" cx="265.24" cy="125" r="15"/><rect class="b" x="280.24" width="110" height="110"/><circle class="b" cx="405.24" cy="125" r="15"/><rect class="b" x="420.24" width="110" height="110"/><rect class="b" x="0.24" y="280" width="110" height="110"/><circle class="b" cx="125.24" cy="405" r="15"/><rect class="b" x="140.24" y="280" width="110" height="110"/><circle class="b" cx="265.24" cy="405" r="15"/><rect class="b" x="280.24" y="280" width="110" height="110"/><circle class="b" cx="405.24" cy="405" r="15"/><rect class="b" x="420.24" y="280" width="110" height="110"/><rect class="b" x="0.24" y="420" width="110" height="110"/><circle class="b" cx="125.24" cy="545" r="15"/><rect class="b" x="140.24" y="420" width="110" height="110"/><circle class="b" cx="265.24" cy="545" r="15"/><rect class="b" x="280.24" y="420" width="110" height="110"/><circle class="b" cx="405.24" cy="545" r="15"/><rect class="b" x="420.24" y="420" width="110" height="110"/><rect class="b" x="0.24" y="560" width="110" height="110"/><circle class="b" cx="125.24" cy="685" r="15"/><rect class="b" x="140.24" y="560" width="110" height="110"/><circle class="b" cx="265.24" cy="685" r="15"/><rect class="b" x="280.24" y="560" width="110" height="110"/><circle class="b" cx="405.24" cy="685" r="15"/><rect class="b" x="420.24" y="560" width="110" height="110"/><rect class="b" x="0.24" y="700" width="110" height="110"/><circle class="b" cx="125.24" cy="825" r="15"/><rect class="b" x="140.24" y="700" width="110" height="110"/><circle class="b" cx="265.24" cy="825" r="15"/><rect class="b" x="280.24" y="700" width="110" height="110"/><circle class="b" cx="405.24" cy="825" r="15"/><rect class="b" x="420.24" y="700" width="110" height="110"/><rect class="b" x="0.24" y="840" width="110" height="110"/><rect class="b" x="140.24" y="840" width="110" height="110"/><rect class="b" x="280.24" y="840" width="110" height="110"/><rect class="b" x="420.24" y="840" width="110" height="110"/><circle class="b" cx="2645.24" cy="265" r="15"/><rect class="b" x="2660.24" y="140" width="110" height="110"/><circle class="b" cx="2785.24" cy="265" r="15"/><rect class="b" x="2800.24" y="140" width="110" height="110"/><circle class="b" cx="2925.24" cy="265" r="15"/><rect class="b" x="2940.24" y="140" width="110" height="110"/><circle class="b" cx="2645.24" cy="125" r="15"/><rect class="b" x="2660.24" width="110" height="110"/><circle class="b" cx="2785.24" cy="125" r="15"/><rect class="b" x="2800.24" width="110" height="110"/><circle class="b" cx="2925.24" cy="125" r="15"/><rect class="b" x="2940.24" width="110" height="110"/><circle class="b" cx="2645.24" cy="405" r="15"/><rect class="b" x="2660.24" y="280" width="110" height="110"/><circle class="b" cx="2785.24" cy="405" r="15"/><rect class="b" x="2800.24" y="280" width="110" height="110"/><circle class="b" cx="2925.24" cy="405" r="15"/><rect class="b" x="2940.24" y="280" width="110" height="110"/><circle class="b" cx="2645.24" cy="545" r="15"/><rect class="b" x="2660.24" y="420" width="110" height="110"/><circle class="b" cx="2785.24" cy="545" r="15"/><rect class="b" x="2800.24" y="420" width="110" height="110"/><circle class="b" cx="2925.24" cy="545" r="15"/><rect class="b" x="2940.24" y="420" width="110" height="110"/><circle class="b" cx="2645.24" cy="685" r="15"/><rect class="b" x="2660.24" y="560" width="110" height="110"/><circle class="b" cx="2785.24" cy="685" r="15"/><rect class="b" x="2800.24" y="560" width="110" height="110"/><circle class="b" cx="2925.24" cy="685" r="15"/><rect class="b" x="2940.24" y="560" width="110" height="110"/><circle class="b" cx="2645.24" cy="825" r="15"/><rect class="b" x="2660.24" y="700" width="110" height="110"/><circle class="b" cx="2785.24" cy="825" r="15"/><rect class="b" x="2800.24" y="700" width="110" height="110"/><circle class="b" cx="2925.24" cy="825" r="15"/><rect class="b" x="2940.24" y="700" width="110" height="110"/><rect class="b" x="2660.24" y="840" width="110" height="110"/><rect class="b" x="2800.24" y="840" width="110" height="110"/><rect class="b" x="2940.24" y="840" width="110" height="110"/><circle class="b" cx="2085.24" cy="265" r="15"/><rect class="b" x="2100.24" y="140" width="110" height="110"/><circle class="b" cx="2225.24" cy="265" r="15"/><rect class="b" x="2240.24" y="140" width="110" height="110"/><circle class="b" cx="2365.24" cy="265" r="15"/><rect class="b" x="2380.24" y="140" width="110" height="110"/><circle class="b" cx="2505.24" cy="265" r="15"/><rect class="b" x="2520.24" y="140" width="110" height="110"/><circle class="b" cx="2085.24" cy="125" r="15"/><rect class="b" x="2100.24" width="110" height="110"/><circle class="b" cx="2225.24" cy="125" r="15"/><rect class="b" x="2240.24" width="110" height="110"/><circle class="b" cx="2365.24" cy="125" r="15"/><rect class="b" x="2380.24" width="110" height="110"/><circle class="b" cx="2505.24" cy="125" r="15"/><rect class="b" x="2520.24" width="110" height="110"/><circle class="b" cx="2085.24" cy="405" r="15"/><rect class="b" x="2100.24" y="280" width="110" height="110"/><circle class="b" cx="2225.24" cy="405" r="15"/><rect class="b" x="2240.24" y="280" width="110" height="110"/><circle class="b" cx="2365.24" cy="405" r="15"/><rect class="b" x="2380.24" y="280" width="110" height="110"/><circle class="b" cx="2505.24" cy="405" r="15"/><rect class="b" x="2520.24" y="280" width="110" height="110"/><circle class="b" cx="2085.24" cy="545" r="15"/><rect class="b" x="2100.24" y="420" width="110" height="110"/><circle class="b" cx="2225.24" cy="545" r="15"/><rect class="b" x="2240.24" y="420" width="110" height="110"/><circle class="b" cx="2365.24" cy="545" r="15"/><rect class="b" x="2380.24" y="420" width="110" height="110"/><circle class="b" cx="2505.24" cy="545" r="15"/><rect class="b" x="2520.24" y="420" width="110" height="110"/><circle class="b" cx="2085.24" cy="685" r="15"/><rect class="b" x="2100.24" y="560" width="110" height="110"/><circle class="b" cx="2225.24" cy="685" r="15"/><rect class="b" x="2240.24" y="560" width="110" height="110"/><circle class="b" cx="2365.24" cy="685" r="15"/><rect class="b" x="2380.24" y="560" width="110" height="110"/><circle class="b" cx="2505.24" cy="685" r="15"/><rect class="b" x="2520.24" y="560" width="110" height="110"/><circle class="b" cx="2085.24" cy="825" r="15"/><rect class="b" x="2100.24" y="700" width="110" height="110"/><circle class="b" cx="2225.24" cy="825" r="15"/><rect class="b" x="2240.24" y="700" width="110" height="110"/><circle class="b" cx="2365.24" cy="825" r="15"/><rect class="b" x="2380.24" y="700" width="110" height="110"/><circle class="b" cx="2505.24" cy="825" r="15"/><rect class="b" x="2520.24" y="700" width="110" height="110"/><rect class="b" x="2100.24" y="840" width="110" height="110"/><rect class="b" x="2240.24" y="840" width="110" height="110"/><rect class="b" x="2380.24" y="840" width="110" height="110"/><rect class="b" x="2520.24" y="840" width="110" height="110"/><circle class="b" cx="1665.24" cy="265" r="15"/><rect class="b" x="1680.24" y="140" width="110" height="110"/><circle class="b" cx="1805.24" cy="265" r="15"/><rect class="b" x="1820.24" y="140" width="110" height="110"/><circle class="b" cx="1945.24" cy="265" r="15"/><rect class="b" x="1960.24" y="140" width="110" height="110"/><circle class="b" cx="1665.24" cy="125" r="15"/><rect class="b" x="1680.24" width="110" height="110"/><circle class="b" cx="1805.24" cy="125" r="15"/><rect class="b" x="1820.24" width="110" height="110"/><circle class="b" cx="1945.24" cy="125" r="15"/><rect class="b" x="1960.24" width="110" height="110"/><circle class="b" cx="1665.24" cy="405" r="15"/><rect class="b" x="1680.24" y="280" width="110" height="110"/><circle class="b" cx="1805.24" cy="405" r="15"/><rect class="b" x="1820.24" y="280" width="110" height="110"/><circle class="b" cx="1945.24" cy="405" r="15"/><rect class="b" x="1960.24" y="280" width="110" height="110"/><circle class="b" cx="1665.24" cy="545" r="15"/><rect class="b" x="1680.24" y="420" width="110" height="110"/><circle class="b" cx="1805.24" cy="545" r="15"/><rect class="b" x="1820.24" y="420" width="110" height="110"/><circle class="b" cx="1945.24" cy="545" r="15"/><rect class="b" x="1960.24" y="420" width="110" height="110"/><circle class="b" cx="1665.24" cy="685" r="15"/><rect class="b" x="1680.24" y="560" width="110" height="110"/><circle class="b" cx="1805.24" cy="685" r="15"/><rect class="b" x="1820.24" y="560" width="110" height="110"/><circle class="b" cx="1945.24" cy="685" r="15"/><rect class="b" x="1960.24" y="560" width="110" height="110"/><circle class="b" cx="1665.24" cy="825" r="15"/><rect class="b" x="1680.24" y="700" width="110" height="110"/><circle class="b" cx="1805.24" cy="825" r="15"/><rect class="b" x="1820.24" y="700" width="110" height="110"/><circle class="b" cx="1945.24" cy="825" r="15"/><rect class="b" x="1960.24" y="700" width="110" height="110"/><rect class="b" x="1680.24" y="840" width="110" height="110"/><rect class="b" x="1820.24" y="840" width="110" height="110"/><rect class="b" x="1960.24" y="840" width="110" height="110"/><circle class="b" cx="475.24" cy="475" r="475"/><path class="c" d="M1700.24,140.05a15,15,0,0,0-15,15v80a15,15,0,0,0,30,0v-80A15,15,0,0,0,1700.24,140.05Z"/><path class="c" d="M1775.24,212.55a27.5,27.5,0,0,0-27.5-27.5h-37.5a10,10,0,0,0,0,20h27.5a7.5,7.5,0,0,1,0,15h-37.5a15,15,0,0,0,0,30h37.5a37.5,37.5,0,0,0,37.5-37.5"/><path class="c" d="M1730.24,205.05a10,10,0,0,1,0-20h2.5a7.5,7.5,0,0,0,0-15h-32.5a15,15,0,0,1,0-30h32.5a32.5,32.5,0,0,1,0,65h-2.5"/><path class="c" d="M1380.24,250a15,15,0,0,1-15-15V155a15,15,0,0,1,30,0v80A15,15,0,0,1,1380.24,250Z"/><path class="c" d="M1135.23,250a15,15,0,0,1-14-20.27l30-80a15,15,0,1,1,28.09,10.53l-30,80A15,15,0,0,1,1135.23,250Z"/><path class="c" d="M1255.24,250a15,15,0,0,1-14-9.74l-30-80a15,15,0,1,1,28.09-10.53l30,80a15,15,0,0,1-14,20.27Z"/><path class="c" d="M1195.24,250a15,15,0,0,1-14-20.27l30-80a15,15,0,1,1,28.09,10.53l-30,80A15,15,0,0,1,1195.24,250Z"/><path class="c" d="M1195.24,250a15,15,0,0,1-14-9.74l-30-80a15,15,0,1,1,28.09-10.53l30,80a15,15,0,0,1-14,20.27Z"/><path class="c" d="M1305.24,250a15,15,0,0,1-15-15V200.05a15,15,0,0,1,3.15-9.2l35-45a15,15,0,1,1,23.69,18.41l-31.84,41V235A15,15,0,0,1,1305.24,250Z"/><path class="c" d="M1384.63,225.66A15,15,0,0,1,1374,200.05l55.61-55.65a15,15,0,1,1,21.21,21.21l-55.6,55.65A15,15,0,0,1,1384.63,225.66Z"/><path class="c" d="M1440.25,250a15,15,0,0,1-12.88-7.29l-24-40a15,15,0,1,1,25.72-15.43l24,40A15,15,0,0,1,1440.25,250Z"/><path class="c" d="M1480.24,250a15,15,0,0,1-15-15V155a15,15,0,0,1,30,0v80A15,15,0,0,1,1480.24,250Z"/><path class="c" d="M1620.21,250a55,55,0,0,1-38.89-93.87,15,15,0,0,1,21.21,21.22,25,25,0,0,0,35.36,35.35,15,15,0,0,1,21.21,21.21A54.8,54.8,0,0,1,1620.21,250Z"/><path class="c" d="M1648.5,238.29a15,15,0,0,1-10.61-25.61,25,25,0,1,0-35.36-35.35,15,15,0,1,1-21.21-21.22,55,55,0,1,1,77.78,77.78A15,15,0,0,1,1648.5,238.29Z"/><path class="c" d="M1860.24,170.05h-60a15,15,0,0,1,0-30h60a15,15,0,0,1,0,30Z"/><path class="c" d="M1860.24,250.05h-60a15,15,0,0,1,0-30h60a15,15,0,0,1,0,30Z"/><path class="c" d="M1800.24,250a15,15,0,0,1-15-15V155a15,15,0,0,1,30,0v80A15,15,0,0,1,1800.24,250Z"/><path class="c" d="M1515.24,220h-20a15,15,0,0,1,0-30h20a10,10,0,0,0,0-20h-35a15,15,0,0,1,0-30h35a40,40,0,0,1,0,80Z"/><path class="c" d="M1540.25,250a15,15,0,0,1-12.88-7.29L1513.75,220a15,15,0,1,1,25.72-15.43l13.63,22.72A15,15,0,0,1,1540.25,250Z"/><path class="c" d="M1305.25,215.05a15,15,0,0,1-11.86-5.8l-35-45a15,15,0,0,1,23.69-18.41l35,45a15,15,0,0,1-11.83,24.2Z"/><path class="c" d="M1840.24,210h-25a15,15,0,0,1,0-30h25a15,15,0,0,1,0,30Z"/><text class="d" transform="translate(1090.24 530)">P<tspan class="e" x="221.62" y="0">R</tspan><tspan class="f" x="446.25" y="0">E</tspan><tspan class="g" x="645.56" y="0">D</tspan><tspan class="h" x="875.8" y="0">I</tspan><tspan class="i" x="954.17" y="0">C</tspan><tspan class="j" x="1186.3" y="0">T</tspan><tspan class="g" x="1373.04" y="0">O</tspan><tspan class="k" x="1631.41" y="0">R</tspan><tspan class="l"><tspan x="0" y="292.98">G</tspan><tspan class="m" x="248.13" y="292.98">R</tspan><tspan class="n" x="473.35" y="268.98">—</tspan></tspan></text><line class="o" x1="125" y1="475" x2="825" y2="475"/><circle class="p" cx="475.24" cy="195" r="195"/><circle class="p" cx="475.24" cy="755" r="195"/></g></svg>