<svg xmlns="http://www.w3.org/2000/svg" viewBox="0 0 4248.14 971.06"><defs><style>.a{isolation:isolate;}.b{fill:#3b9da7;}.c,.e,.f{mix-blend-mode:multiply;}.d,.e{fill:#71c7e6;}.f{fill:#86c9b9;}</style></defs><title>predictor-logo</title><g class="a"><path class="b" d="M2080.47,140.09a25.77,25.77,0,0,0-25.77,25.77V303.29a25.77,25.77,0,1,0,51.54,0V165.86A25.77,25.77,0,0,0,2080.47,140.09Z"/><path class="b" d="M2209.31,264.64a47.24,47.24,0,0,0-47.24-47.24h-64.42a17.18,17.18,0,1,0,0,34.35h47.24a12.89,12.89,0,1,1,0,25.77h-64.42a25.77,25.77,0,1,0,0,51.54h64.42a64.42,64.42,0,0,0,64.42-64.42"/><path class="b" d="M2132,251.75a17.18,17.18,0,1,1,0-34.35h4.29a12.89,12.89,0,1,0,0-25.77h-55.83a25.77,25.77,0,1,1,0-51.54h55.83a55.83,55.83,0,0,1,0,111.66H2132"/><path class="b" d="M1530.72,329A25.76,25.76,0,0,1,1505,303.21V165.78a25.77,25.77,0,1,1,51.53,0V303.21A25.77,25.77,0,0,1,1530.72,329Z"/><path class="b" d="M1109.82,329a25.79,25.79,0,0,1-24.12-34.82l51.54-137.44a25.77,25.77,0,1,1,48.25,18.1L1134,312.26A25.79,25.79,0,0,1,1109.82,329Z"/><path class="b" d="M1316,329a25.77,25.77,0,0,1-24.13-16.73l-51.54-137.43a25.77,25.77,0,1,1,48.26-18.1l51.54,137.44A25.79,25.79,0,0,1,1316,329Z"/><path class="b" d="M1212.9,329a25.79,25.79,0,0,1-24.12-34.82l51.53-137.44a25.77,25.77,0,0,1,48.26,18.1L1237,312.26A25.79,25.79,0,0,1,1212.9,329Z"/><path class="b" d="M1212.91,329a25.76,25.76,0,0,1-24.13-16.73l-51.54-137.43a25.77,25.77,0,1,1,48.25-18.1L1237,294.17A25.79,25.79,0,0,1,1212.91,329Z"/><path class="b" d="M1401.88,329a25.77,25.77,0,0,1-25.77-25.77v-60a25.82,25.82,0,0,1,5.42-15.82L1441.66,150a25.77,25.77,0,0,1,40.7,31.62L1427.65,252v51.21A25.77,25.77,0,0,1,1401.88,329Z"/><path class="b" d="M1538.27,287.16a25.77,25.77,0,0,1-18.22-44l95.53-95.61A25.77,25.77,0,0,1,1652,184l-95.53,95.61A25.68,25.68,0,0,1,1538.27,287.16Z"/><path class="b" d="M1633.83,329a25.76,25.76,0,0,1-22.12-12.52l-41.19-68.64a25.77,25.77,0,1,1,44.19-26.52L1655.9,290a25.78,25.78,0,0,1-22.07,39Z"/><path class="b" d="M1702.52,329a25.77,25.77,0,0,1-25.77-25.77V165.78a25.77,25.77,0,1,1,51.54,0V303.21A25.77,25.77,0,0,1,1702.52,329Z"/><path class="b" d="M1943,328.94a94.45,94.45,0,0,1-66.82-161.26,25.77,25.77,0,0,1,36.45,36.45,42.95,42.95,0,1,0,60.74,60.73,25.77,25.77,0,0,1,36.44,36.45A94.2,94.2,0,0,1,1943,328.94Z"/><path class="b" d="M1991.58,308.85a25.77,25.77,0,0,1-18.22-44,42.95,42.95,0,0,0-60.74-60.73,25.77,25.77,0,0,1-36.45-36.45A94.49,94.49,0,1,1,2009.8,301.31,25.69,25.69,0,0,1,1991.58,308.85Z"/><path class="b" d="M2355.34,191.63H2252.26a25.77,25.77,0,0,1,0-51.54h103.08a25.77,25.77,0,0,1,0,51.54Z"/><path class="b" d="M2355.34,329.06H2252.26a25.77,25.77,0,0,1,0-51.54h103.08a25.77,25.77,0,0,1,0,51.54Z"/><path class="b" d="M2252.26,329a25.77,25.77,0,0,1-25.77-25.77V165.78a25.77,25.77,0,1,1,51.54,0V303.21A25.77,25.77,0,0,1,2252.26,329Z"/><path class="b" d="M1762.65,277.44h-34.36a25.77,25.77,0,1,1,0-51.53h34.36a17.18,17.18,0,0,0,0-34.36h-60.13a25.77,25.77,0,1,1,0-51.54h60.13a68.72,68.72,0,1,1,0,137.43Z"/><path class="b" d="M1805.62,329a25.77,25.77,0,0,1-22.12-12.52l-23.42-39a25.77,25.77,0,0,1,44.2-26.51l23.41,39a25.78,25.78,0,0,1-22.07,39Z"/><path class="b" d="M1401.9,268.94a25.75,25.75,0,0,1-20.37-10l-60.13-77.39A25.77,25.77,0,0,1,1362.1,150l60.13,77.38a25.78,25.78,0,0,1-20.33,41.59Z"/><path class="b" d="M2321,260.26H2278a25.77,25.77,0,1,1,0-51.53H2321a25.77,25.77,0,1,1,0,51.53Z"/><g class="c"><path class="d" d="M1285.7,643.79h-123V775.86a39.3,39.3,0,0,1-78.59,0V420.24a39,39,0,0,1,39.3-39.29H1285.7c106.94,0,152.68,59.26,152.68,132.06S1392.64,643.79,1285.7,643.79Zm11-190.69h-134V571h134c43.17,0,62.49-29,62.49-58C1359.14,484.67,1339.82,453.1,1296.65,453.1Z"/><path class="d" d="M1822.34,775.86c0,20-15.46,39.29-39.3,39.29-17.39,0-28.35-7.73-34.79-21.26l-75.37-155.25H1543.39V775.86a39.3,39.3,0,0,1-78.6,0V420.24a39,39,0,0,1,39.3-39.29h165.57c106.94,0,152.68,52.82,152.68,128.84,0,50.25-21.91,93.41-70.87,114.67l66.36,134.65C1820.4,764.26,1822.34,770.06,1822.34,775.86ZM1680.61,453.1H1543.39V571h137.22c43.16,0,62.49-31.57,62.49-60.56C1743.1,482.09,1723.77,453.1,1680.61,453.1Z"/><path class="d" d="M2132.21,810H1890.63c-21.91,0-40-17.39-40-39.3V420.24c0-21.9,18-39.29,40-39.29h231.92c20.61,0,37.36,15.46,37.36,36.07s-16.75,36.72-37.36,36.72H1929.28V556.17h106.3a36.71,36.71,0,0,1,36.72,36.73c0,20.61-16.75,36.07-36.72,36.07h-106.3V737.2h202.93c20.61,0,37.36,16.11,37.36,36.72S2152.82,810,2132.21,810Z"/><path class="d" d="M2350.92,810H2233a40.14,40.14,0,0,1-39.94-39.94V420.24c0-21.9,18-39.29,39.94-39.29h117.89c130.78,0,213.89,94.7,213.89,214.52S2481.7,810,2350.92,810Zm-3.86-356.26h-75.38V737.2h75.38c88.9,0,139.15-58.62,139.15-141.73S2436,453.74,2347.06,453.74Z"/><path class="d" d="M2631.8,815.15a40.14,40.14,0,0,1-39.94-39.94V415.73a40.14,40.14,0,0,1,39.94-39.94c21.91,0,38.66,18,38.66,39.94V775.21C2670.46,797.12,2653.71,815.15,2631.8,815.15Z"/><path class="d" d="M3011.25,709.5c8.37-5.8,16.75-9,25.77-9,21.9,0,35.43,16.75,35.43,36.08,0,10.31-4.51,18.68-12.24,26.41-36.72,38-93.41,54.76-143.66,54.76-126.27,0-219-87.61-219-222.26s92.77-222.26,219-222.26c50.25,0,106.94,16.75,143.66,54.76,7.73,7.74,12.24,16.11,12.24,26.42,0,19.32-13.53,36.07-35.43,36.07-9,0-17.4-3.22-25.77-9-24.48-18.68-50.9-35.43-94.7-35.43-84.4,0-139.8,63.78-139.8,149.46s55.4,149.46,139.8,149.46C2960.35,744.93,2986.77,728.18,3011.25,709.5Z"/><path class="d" d="M3420.33,455H3310.17V775.21a40.14,40.14,0,0,1-40,39.94c-21.9,0-38.65-18-38.65-39.94V455H3120.76c-20.61,0-37.36-16.75-37.36-36.72A37,37,0,0,1,3120.76,381h299.57a37.39,37.39,0,0,1,37.36,37.36C3457.69,438.28,3441.59,455,3420.33,455Z"/><path class="d" d="M3640.65,817.73c-126.27,0-220.33-97.92-220.33-222.26s94.06-222.26,220.33-222.26S3861,471.14,3861,595.47,3766.91,817.73,3640.65,817.73Zm0-373.65c-87.62,0-141.09,69.58-141.09,151.39s53.47,151.4,141.09,151.4,141.08-69.58,141.08-151.4S3728.26,444.08,3640.65,444.08Z"/><path class="d" d="M4244.28,775.86c0,20-15.46,39.29-39.3,39.29-17.39,0-28.34-7.73-34.79-21.26l-75.37-155.25H3965.33V775.86a39.3,39.3,0,0,1-78.6,0V420.24A39,39,0,0,1,3926,381H4091.6c106.94,0,152.68,52.82,152.68,128.84,0,50.25-21.9,93.41-70.86,114.67l66.35,134.65C4242.35,764.26,4244.28,770.06,4244.28,775.86ZM4102.55,453.1H3965.33V571h137.22c43.16,0,62.49-31.57,62.49-60.56C4165,482.09,4145.71,453.1,4102.55,453.1Z"/></g><circle class="e" cx="437.52" cy="195" r="195"/><circle class="f" cx="437.52" cy="755" r="195"/><circle class="f" cx="195.03" cy="335" r="195" transform="translate(-179.76 236.03) rotate(-45)"/><circle class="e" cx="680.01" cy="615" r="195" transform="translate(-235.7 660.97) rotate(-45)"/><circle class="e" cx="195.03" cy="615" r="195" transform="translate(-377.75 318.04) rotate(-45)"/><circle class="f" cx="680.01" cy="335" r="195" transform="translate(-37.71 578.96) rotate(-45)"/></g></svg>