<svg xmlns="http://www.w3.org/2000/svg" viewBox="0 0 2962.02 950"><defs><style>.a{isolation:isolate;}.b{fill:#622268;}.c,.f{fill:#7759b5;}.d{fill:#d16293;}.e{fill:none;stroke:#d16293;stroke-linecap:round;stroke-linejoin:round;stroke-width:250px;}.e,.f{mix-blend-mode:multiply;}</style></defs><title>predictor-gram-negative-logo</title><g class="a"><path class="b" d="M1700.24,140.05a15,15,0,0,0-15,15v80a15,15,0,0,0,30,0v-80A15,15,0,0,0,1700.24,140.05Z"/><path class="b" d="M1775.24,212.55a27.5,27.5,0,0,0-27.5-27.5h-37.5a10,10,0,0,0,0,20h27.5a7.5,7.5,0,0,1,0,15h-37.5a15,15,0,0,0,0,30h37.5a37.5,37.5,0,0,0,37.5-37.5"/><path class="b" d="M1730.24,205.05a10,10,0,0,1,0-20h2.5a7.5,7.5,0,0,0,0-15h-32.5a15,15,0,0,1,0-30h32.5a32.5,32.5,0,0,1,0,65h-2.5"/><path class="b" d="M1380.24,250a15,15,0,0,1-15-15V155a15,15,0,0,1,30,0v80A15,15,0,0,1,1380.24,250Z"/><path class="b" d="M1135.23,250a15,15,0,0,1-14-20.27l30-80a15,15,0,1,1,28.09,10.53l-30,80A15,15,0,0,1,1135.23,250Z"/><path class="b" d="M1255.24,250a15,15,0,0,1-14-9.74l-30-80a15,15,0,1,1,28.09-10.53l30,80a15,15,0,0,1-14,20.27Z"/><path class="b" d="M1195.24,250a15,15,0,0,1-14-20.27l30-80a15,15,0,1,1,28.09,10.53l-30,80A15,15,0,0,1,1195.24,250Z"/><path class="b" d="M1195.24,250a15,15,0,0,1-14-9.74l-30-80a15,15,0,1,1,28.09-10.53l30,80a15,15,0,0,1-14,20.27Z"/><path class="b" d="M1305.24,250a15,15,0,0,1-15-15V200.05a15,15,0,0,1,3.15-9.2l35-45a15,15,0,1,1,23.69,18.41l-31.84,41V235A15,15,0,0,1,1305.24,250Z"/><path class="b" d="M1384.63,225.66A15,15,0,0,1,1374,200.05l55.61-55.65a15,15,0,1,1,21.21,21.21l-55.6,55.65A15,15,0,0,1,1384.63,225.66Z"/><path class="b" d="M1440.25,250a15,15,0,0,1-12.88-7.29l-24-40a15,15,0,1,1,25.72-15.43l24,40A15,15,0,0,1,1440.25,250Z"/><path class="b" d="M1480.24,250a15,15,0,0,1-15-15V155a15,15,0,0,1,30,0v80A15,15,0,0,1,1480.24,250Z"/><path class="b" d="M1620.21,250a55,55,0,0,1-38.89-93.87,15,15,0,0,1,21.21,21.22,25,25,0,0,0,35.36,35.35,15,15,0,0,1,21.21,21.21A54.8,54.8,0,0,1,1620.21,250Z"/><path class="b" d="M1648.5,238.29a15,15,0,0,1-10.61-25.61,25,25,0,1,0-35.36-35.35,15,15,0,1,1-21.21-21.22,55,55,0,1,1,77.78,77.78A15,15,0,0,1,1648.5,238.29Z"/><path class="b" d="M1860.24,170.05h-60a15,15,0,0,1,0-30h60a15,15,0,0,1,0,30Z"/><path class="b" d="M1860.24,250.05h-60a15,15,0,0,1,0-30h60a15,15,0,0,1,0,30Z"/><path class="b" d="M1800.24,250a15,15,0,0,1-15-15V155a15,15,0,0,1,30,0v80A15,15,0,0,1,1800.24,250Z"/><path class="b" d="M1515.24,220h-20a15,15,0,0,1,0-30h20a10,10,0,0,0,0-20h-35a15,15,0,0,1,0-30h35a40,40,0,0,1,0,80Z"/><path class="b" d="M1540.25,250a15,15,0,0,1-12.88-7.29L1513.75,220a15,15,0,1,1,25.72-15.43l13.63,22.72A15,15,0,0,1,1540.25,250Z"/><path class="b" d="M1305.25,215.05a15,15,0,0,1-11.86-5.8l-35-45a15,15,0,0,1,23.69-18.41l35,45a15,15,0,0,1-11.83,24.2Z"/><path class="b" d="M1840.24,210h-25a15,15,0,0,1,0-30h25a15,15,0,0,1,0,30Z"/><path class="c" d="M1237.61,433.25H1166v76.87a22.88,22.88,0,1,1-45.75,0v-207a22.73,22.73,0,0,1,22.87-22.87h94.5c62.25,0,88.88,34.5,88.88,76.87S1299.86,433.25,1237.61,433.25Zm6.38-111h-78v68.63h78c25.12,0,36.37-16.88,36.37-33.76C1280.36,340.62,1269.11,322.25,1244,322.25Z"/><path class="c" d="M1550,510.12A22.71,22.71,0,0,1,1527.11,533c-10.13,0-16.5-4.5-20.25-12.38L1463,430.25h-75.37v79.87a22.88,22.88,0,1,1-45.75,0v-207a22.73,22.73,0,0,1,22.87-22.87h96.38c62.25,0,88.87,30.75,88.87,75,0,29.25-12.75,54.37-41.25,66.75l38.63,78.38A22.24,22.24,0,0,1,1550,510.12Zm-82.5-187.87h-79.87v68.63h79.87c25.13,0,36.38-18.38,36.38-35.26C1503.86,339.12,1492.61,322.25,1467.48,322.25Z"/><path class="c" d="M1730.36,530H1589.73a23,23,0,0,1-23.25-22.88v-204a23,23,0,0,1,23.25-22.87h135c12,0,21.75,9,21.75,21a21.44,21.44,0,0,1-21.75,21.37h-112.5v59.63h61.88a21.36,21.36,0,0,1,21.37,21.37,21,21,0,0,1-21.37,21h-61.88v63h118.13A21.45,21.45,0,0,1,1752.11,509C1752.11,521,1742.36,530,1730.36,530Z"/><path class="c" d="M1857.67,530H1789a23.37,23.37,0,0,1-23.25-23.25V303.12A23,23,0,0,1,1789,280.25h68.63c76.12,0,124.5,55.13,124.5,124.87S1933.79,530,1857.67,530Zm-2.25-207.38h-43.88v165h43.88c51.75,0,81-34.12,81-82.5S1907.17,322.62,1855.42,322.62Z"/><path class="c" d="M2021.16,533a23.37,23.37,0,0,1-23.25-23.25V300.5a23.37,23.37,0,0,1,23.25-23.25c12.75,0,22.5,10.5,22.5,23.25V509.75C2043.66,522.5,2033.91,533,2021.16,533Z"/><path class="c" d="M2242,471.5c4.87-3.38,9.75-5.25,15-5.25,12.75,0,20.62,9.75,20.62,21,0,6-2.62,10.87-7.12,15.37-21.38,22.13-54.38,31.88-83.63,31.88-73.5,0-127.5-51-127.5-129.38s54-129.37,127.5-129.37c29.25,0,62.25,9.75,83.63,31.87,4.5,4.5,7.12,9.38,7.12,15.38,0,11.25-7.87,21-20.62,21-5.25,0-10.13-1.88-15-5.25-14.25-10.87-29.63-20.63-55.13-20.63-49.12,0-81.37,37.13-81.37,87s32.25,87,81.37,87C2212.41,492.12,2227.79,482.38,2242,471.5Z"/><path class="c" d="M2480.16,323.38H2416V509.75A23.37,23.37,0,0,1,2392.78,533c-12.75,0-22.5-10.5-22.5-23.25V323.38h-64.5a21.57,21.57,0,1,1,0-43.13h174.38A21.77,21.77,0,0,1,2501.91,302,21.46,21.46,0,0,1,2480.16,323.38Z"/><path class="c" d="M2608.4,534.5c-73.5,0-128.25-57-128.25-129.38s54.75-129.37,128.25-129.37,128.25,57,128.25,129.37S2681.9,534.5,2608.4,534.5Zm0-217.5c-51,0-82.12,40.5-82.12,88.12s31.12,88.13,82.12,88.13,82.13-40.5,82.13-88.13S2659.4,317,2608.4,317Z"/><path class="c" d="M2959.77,510.12A22.71,22.71,0,0,1,2936.9,533c-10.13,0-16.5-4.5-20.25-12.38l-43.88-90.37H2797.4v79.87a22.88,22.88,0,1,1-45.75,0v-207a22.73,22.73,0,0,1,22.87-22.87h96.38c62.25,0,88.87,30.75,88.87,75,0,29.25-12.75,54.37-41.25,66.75l38.63,78.38A22.24,22.24,0,0,1,2959.77,510.12Zm-82.5-187.87H2797.4v68.63h79.87c25.13,0,36.38-18.38,36.38-35.26C2913.65,339.12,2902.4,322.25,2877.27,322.25Z"/><path class="d" d="M1337,782.3c-24.48,30.51-65.17,45.2-102.84,45.2-80.23,0-128.82-58.76-128.82-130,0-76.09,55-130,128.07-130,29.38,0,62.53,9.8,84,32,4.52,4.52,7.16,9.42,7.16,15.45,0,11.3-7.91,21.09-20.72,21.09-5.27,0-10.17-1.88-15.07-5.27-14.31-10.93-29.75-20.72-55.37-20.72-49.35,0-81.74,37.29-81.74,87.39,0,51.23,30.13,89.66,82.49,89.66,25.62,0,48.22-9,62.91-22.61V725.8h-49c-11.3,0-21.09-9-21.09-20.72,0-12.06,9.79-20.72,21.09-20.72h70.82a23.24,23.24,0,0,1,23.36,23.35v59.9C1342.25,774,1340.74,777.4,1337,782.3Z"/><path class="d" d="M1577.56,803a22.81,22.81,0,0,1-23,23c-10.17,0-16.57-4.52-20.34-12.43l-44.07-90.79h-75.72V803a23,23,0,1,1-46,0V595.08a22.84,22.84,0,0,1,23-23h96.81c62.53,0,89.27,30.89,89.27,75.34,0,29.39-12.81,54.62-41.43,67.06l38.8,78.72A22.51,22.51,0,0,1,1577.56,803Zm-82.87-188.73h-80.24v68.94h80.24c25.24,0,36.54-18.46,36.54-35.41C1531.23,631.25,1519.93,614.29,1494.69,614.29Z"/><path class="d" d="M1848.36,724.77H1605.77c-10.54,0-19.58-8.66-19.58-19.21A19.7,19.7,0,0,1,1605.77,686h242.59A19.7,19.7,0,0,1,1868,705.56C1868,716.11,1858.91,724.77,1848.36,724.77Z"/><line class="e" x1="125" y1="475" x2="825" y2="475"/><circle class="f" cx="475.24" cy="195" r="195"/><circle class="f" cx="475.24" cy="755" r="195"/></g></svg>