<svg xmlns="http://www.w3.org/2000/svg" viewBox="0 0 2962.03 950"><defs><style>.a{isolation:isolate;}.b{fill:#622268;}.c{font-size:375px;fill:#7759b5;font-family:BryantPro-Bold, Bryant Pro;font-weight:700;letter-spacing:-0.06em;}.d{letter-spacing:-0.09em;}.e{letter-spacing:-0.07em;}.f{letter-spacing:-0.09em;}.g{letter-spacing:-0.08em;}.h{letter-spacing:-0.05em;}.i{letter-spacing:-0.12em;}.j{letter-spacing:-0.05em;}.k{font-size:376.69px;fill:#d16293;letter-spacing:-0.07em;}.l{letter-spacing:-0.07em;}.m{letter-spacing:-0.07em;}.n{letter-spacing:-0.07em;}.o{letter-spacing:-0.08em;}.p{letter-spacing:-0.08em;}.q{letter-spacing:-0.05em;}.r,.s{fill:none;stroke-linecap:round;stroke-linejoin:round;stroke-width:200px;mix-blend-mode:multiply;}.r{stroke:#d16293;}.s{stroke:#7759b5;}</style></defs><title>predictor-enterics-logo</title><g class="a"><path class="b" d="M1700.24,140.05a15,15,0,0,0-15,15v80a15,15,0,0,0,30,0v-80A15,15,0,0,0,1700.24,140.05Z"/><path class="b" d="M1775.24,212.55a27.5,27.5,0,0,0-27.5-27.5h-37.5a10,10,0,0,0,0,20h27.5a7.5,7.5,0,0,1,0,15h-37.5a15,15,0,0,0,0,30h37.5a37.5,37.5,0,0,0,37.5-37.5"/><path class="b" d="M1730.24,205.05a10,10,0,0,1,0-20h2.5a7.5,7.5,0,0,0,0-15h-32.5a15,15,0,0,1,0-30h32.5a32.5,32.5,0,0,1,0,65h-2.5"/><path class="b" d="M1380.24,250a15,15,0,0,1-15-15V155a15,15,0,0,1,30,0v80A15,15,0,0,1,1380.24,250Z"/><path class="b" d="M1135.24,250a15,15,0,0,1-14-20.27l30-80a15,15,0,1,1,28.09,10.53l-30,80A15,15,0,0,1,1135.24,250Z"/><path class="b" d="M1255.24,250a15,15,0,0,1-14-9.74l-30-80a15,15,0,1,1,28.09-10.53l30,80a15,15,0,0,1-14,20.27Z"/><path class="b" d="M1195.24,250a15,15,0,0,1-14-20.27l30-80a15,15,0,1,1,28.09,10.53l-30,80A15,15,0,0,1,1195.24,250Z"/><path class="b" d="M1195.24,250a15,15,0,0,1-14-9.74l-30-80a15,15,0,1,1,28.09-10.53l30,80a15,15,0,0,1-14,20.27Z"/><path class="b" d="M1305.24,250a15,15,0,0,1-15-15V200.05a15,15,0,0,1,3.16-9.2l35-45a15,15,0,1,1,23.69,18.41l-31.85,41V235A15,15,0,0,1,1305.24,250Z"/><path class="b" d="M1384.64,225.66A15,15,0,0,1,1374,200.05l55.61-55.65a15,15,0,0,1,21.21,21.21l-55.61,55.65A15,15,0,0,1,1384.64,225.66Z"/><path class="b" d="M1440.26,250a15,15,0,0,1-12.88-7.29l-24-40a15,15,0,1,1,25.72-15.43l24,40A15,15,0,0,1,1440.26,250Z"/><path class="b" d="M1480.24,250a15,15,0,0,1-15-15V155a15,15,0,0,1,30,0v80A15,15,0,0,1,1480.24,250Z"/><path class="b" d="M1620.22,250a55,55,0,0,1-38.89-93.87,15,15,0,0,1,21.21,21.22,25,25,0,0,0,35.35,35.35,15,15,0,0,1,21.22,21.21A54.82,54.82,0,0,1,1620.22,250Z"/><path class="b" d="M1648.5,238.29a15,15,0,0,1-10.61-25.61,25,25,0,1,0-35.35-35.35,15,15,0,1,1-21.21-21.22,55,55,0,0,1,77.78,77.78A15,15,0,0,1,1648.5,238.29Z"/><path class="b" d="M1860.24,170.05h-60a15,15,0,0,1,0-30h60a15,15,0,0,1,0,30Z"/><path class="b" d="M1860.24,250.05h-60a15,15,0,0,1,0-30h60a15,15,0,0,1,0,30Z"/><path class="b" d="M1800.24,250a15,15,0,0,1-15-15V155a15,15,0,0,1,30,0v80A15,15,0,0,1,1800.24,250Z"/><path class="b" d="M1515.24,220h-20a15,15,0,0,1,0-30h20a10,10,0,0,0,0-20h-35a15,15,0,0,1,0-30h35a40,40,0,0,1,0,80Z"/><path class="b" d="M1540.26,250a15,15,0,0,1-12.88-7.29L1513.75,220a15,15,0,1,1,25.72-15.43l13.63,22.72A15,15,0,0,1,1540.26,250Z"/><path class="b" d="M1305.25,215.05a15,15,0,0,1-11.85-5.8l-35-45a15,15,0,0,1,23.69-18.41l35,45a15,15,0,0,1-11.84,24.2Z"/><path class="b" d="M1840.24,210h-25a15,15,0,0,1,0-30h25a15,15,0,0,1,0,30Z"/><text class="c" transform="translate(1090.24 530)">P<tspan class="d" x="221.62" y="0">R</tspan><tspan class="e" x="446.25" y="0">E</tspan><tspan class="f" x="645.56" y="0">D</tspan><tspan class="g" x="875.8" y="0">I</tspan><tspan class="h" x="954.17" y="0">C</tspan><tspan class="i" x="1186.3" y="0">T</tspan><tspan class="f" x="1373.04" y="0">O</tspan><tspan class="j" x="1631.41" y="0">R</tspan><tspan class="k"><tspan x="0" y="292.98">E</tspan><tspan class="l" x="201.3" y="292.98">N</tspan><tspan class="m" x="445.39" y="292.98">T</tspan><tspan class="n" x="651.36" y="292.98">E</tspan><tspan class="o" x="851.57" y="292.98">R</tspan><tspan class="p" x="1079.85" y="292.98">I</tspan><tspan class="m" x="1158.57" y="292.98">C</tspan><tspan class="q" x="1381.87" y="292.98">S</tspan></tspan></text><line class="r" x1="100" y1="474.99" x2="850" y2="474.99"/><line class="s" x1="287.51" y1="799.76" x2="662.49" y2="150.24"/><line class="s" x1="662.51" y1="799.75" x2="287.48" y2="150.24"/></g></svg>