<?xml version="1.0" encoding="utf-8"?>
<!-- Generator: Adobe Illustrator 16.0.4, SVG Export Plug-In . SVG Version: 6.00 Build 0)  -->
<!DOCTYPE svg PUBLIC "-//W3C//DTD SVG 1.1//EN" "http://www.w3.org/Graphics/SVG/1.1/DTD/svg11.dtd">
<svg version="1.1" id="Layer_1" xmlns="http://www.w3.org/2000/svg" xmlns:xlink="http://www.w3.org/1999/xlink" x="0px" y="0px"
	 width="211px" height="60px" viewBox="0 0 211 60" enable-background="new 0 0 211 60" xml:space="preserve">
<path fill="#D16293" d="M60.031,37.063H7.062C3.162,37.063,0,33.901,0,30s3.162-7.062,7.062-7.062h52.969
	c3.9,0,7.062,3.162,7.062,7.062S63.932,37.063,60.031,37.063z"/>
<path fill="#7759B5" d="M20.299,60c-1.198,0-2.412-0.306-3.524-0.948c-3.378-1.95-4.536-6.27-2.586-9.647L40.672,3.533
	c1.95-3.378,6.27-4.536,9.647-2.585s4.536,6.27,2.586,9.647L26.422,56.467C25.113,58.733,22.739,60,20.299,60z"/>
<path fill="#7759B5" d="M46.797,60c-2.44,0-4.814-1.267-6.122-3.532L14.188,10.596c-1.95-3.378-0.793-7.697,2.585-9.648
	c3.378-1.95,7.697-0.793,9.647,2.585l26.486,45.872c1.951,3.378,0.794,7.697-2.584,9.647C49.21,59.695,47.995,60,46.797,60z"/>
<polygon fill="#622268" points="21.313,37 37.624,37 45.779,23 29.469,23 "/>
<polygon fill="#622268" points="29.47,37 45.78,37 37.624,23 21.313,23 "/>
<polygon fill="#382480" points="25.392,30 33.548,44.125 41.702,30 33.546,15.875 "/>
<polygon fill="#2F134A" points="25.392,30 29.47,37 37.625,37 41.702,30 37.624,23 29.469,23 "/>
<path fill="#622268" d="M121.854,4.57c-0.585,0-1.06,0.475-1.06,1.06v5.65c0,0.585,0.475,1.06,1.06,1.06s1.06-0.474,1.06-1.06v-5.65
	C122.914,5.044,122.439,4.57,121.854,4.57z"/>
<path fill="#622268" d="M127.151,9.69c0-1.073-0.87-1.942-1.942-1.942h-0.177h-2.472c-0.39,0-0.706,0.316-0.706,0.707
	c0,0.39,0.316,0.706,0.706,0.706h1.942c0.293,0,0.529,0.237,0.529,0.53s-0.236,0.53-0.529,0.53h-2.648
	c-0.585,0-1.06,0.474-1.06,1.059c0,0.585,0.475,1.06,1.06,1.06h2.648C125.966,12.339,127.151,11.153,127.151,9.69"/>
<path fill="#622268" d="M123.974,9.161c-0.391,0-0.707-0.316-0.707-0.706c0-0.39,0.316-0.707,0.707-0.707h0.176
	c0.292,0,0.53-0.237,0.53-0.53c0-0.292-0.238-0.529-0.53-0.529h-2.295c-0.585,0-1.06-0.475-1.06-1.06s0.475-1.06,1.06-1.06h2.119
	h0.176c1.268,0,2.296,1.028,2.296,2.295s-1.028,2.295-2.296,2.295H123.974L123.974,9.161"/>
<path fill="#622268" d="M99.254,12.335c-0.585,0-1.06-0.474-1.06-1.06v-5.65c0-0.585,0.475-1.059,1.06-1.059s1.06,0.474,1.06,1.059
	v5.65C100.313,11.861,99.839,12.335,99.254,12.335z"/>
<path fill="#622268" d="M81.951,12.336c-0.124,0-0.25-0.022-0.372-0.068c-0.548-0.206-0.825-0.816-0.62-1.364l2.119-5.65
	c0.205-0.548,0.815-0.825,1.363-0.62c0.548,0.205,0.825,0.816,0.62,1.364l-2.119,5.65C82.783,12.073,82.38,12.336,81.951,12.336z"/>
<path fill="#622268" d="M90.426,12.336c-0.429,0-0.832-0.263-0.992-0.688l-2.118-5.65c-0.206-0.548,0.072-1.159,0.62-1.364
	c0.547-0.206,1.158,0.072,1.363,0.62l2.119,5.65c0.205,0.548-0.072,1.158-0.62,1.364C90.676,12.314,90.55,12.336,90.426,12.336z"/>
<path fill="#622268" d="M86.188,12.336c-0.124,0-0.249-0.022-0.372-0.068c-0.548-0.206-0.825-0.816-0.62-1.364l2.119-5.65
	c0.205-0.548,0.815-0.825,1.363-0.62c0.548,0.205,0.826,0.816,0.62,1.364l-2.118,5.65C87.021,12.073,86.617,12.336,86.188,12.336z"
	/>
<path fill="#622268" d="M86.188,12.336c-0.429,0-0.832-0.263-0.992-0.688l-2.118-5.65c-0.206-0.548,0.071-1.159,0.619-1.364
	c0.549-0.206,1.159,0.072,1.364,0.62l2.119,5.65c0.205,0.548-0.072,1.158-0.62,1.364C86.438,12.314,86.312,12.336,86.188,12.336z"/>
<path fill="#622268" d="M93.957,12.335c-0.585,0-1.06-0.474-1.06-1.06V8.808c0-0.235,0.079-0.464,0.224-0.65l2.472-3.182
	c0.359-0.462,1.024-0.545,1.486-0.187s0.546,1.024,0.187,1.486l-2.249,2.895v2.105C95.017,11.861,94.542,12.335,93.957,12.335z"/>
<path fill="#622268" d="M99.564,10.616c-0.271,0-0.542-0.104-0.749-0.311c-0.414-0.414-0.414-1.084,0-1.498l3.927-3.931
	c0.414-0.414,1.085-0.414,1.499,0c0.413,0.414,0.413,1.084,0,1.498l-3.928,3.931C100.106,10.513,99.836,10.616,99.564,10.616z"/>
<path fill="#622268" d="M103.493,12.335c-0.36,0-0.711-0.183-0.91-0.514l-1.693-2.822c-0.301-0.501-0.138-1.152,0.364-1.453
	c0.501-0.301,1.152-0.139,1.453,0.363l1.693,2.822c0.301,0.502,0.138,1.152-0.363,1.454
	C103.866,12.287,103.678,12.335,103.493,12.335z"/>
<path fill="#622268" d="M106.316,12.335c-0.585,0-1.059-0.474-1.059-1.06v-5.65c0-0.585,0.474-1.059,1.059-1.059
	s1.06,0.474,1.06,1.059v5.65C107.376,11.861,106.901,12.335,106.316,12.335z"/>
<path fill="#622268" d="M116.202,12.333c-0.994,0-1.989-0.378-2.746-1.136c-1.515-1.515-1.515-3.979,0-5.493
	c0.413-0.414,1.084-0.414,1.498,0c0.414,0.414,0.414,1.084,0,1.498c-0.688,0.688-0.688,1.809,0,2.497s1.809,0.688,2.497,0
	c0.413-0.414,1.084-0.414,1.498,0s0.414,1.084,0,1.498C118.192,11.955,117.197,12.333,116.202,12.333z"/>
<path fill="#622268" d="M118.2,11.508c-0.271,0-0.542-0.104-0.749-0.311c-0.414-0.414-0.414-1.084,0-1.498
	c0.688-0.688,0.688-1.809,0-2.497s-1.809-0.688-2.497,0c-0.414,0.414-1.085,0.414-1.498,0c-0.414-0.414-0.414-1.084,0-1.498
	c1.515-1.515,3.979-1.515,5.493,0c1.515,1.514,1.515,3.979,0,5.493C118.742,11.405,118.471,11.508,118.2,11.508z"/>
<path fill="#622268" d="M133.154,6.689h-4.237c-0.585,0-1.06-0.475-1.06-1.06s0.475-1.06,1.06-1.06h4.237
	c0.585,0,1.06,0.475,1.06,1.06S133.739,6.689,133.154,6.689z"/>
<path fill="#622268" d="M133.154,12.339h-4.237c-0.585,0-1.06-0.474-1.06-1.06c0-0.585,0.475-1.059,1.06-1.059h4.237
	c0.585,0,1.06,0.474,1.06,1.059C134.214,11.865,133.739,12.339,133.154,12.339z"/>
<path fill="#622268" d="M128.917,12.335c-0.585,0-1.06-0.474-1.06-1.06v-5.65c0-0.585,0.475-1.059,1.06-1.059s1.06,0.474,1.06,1.059
	v5.65C129.977,11.861,129.502,12.335,128.917,12.335z"/>
<path fill="#622268" d="M108.789,10.217h-1.413c-0.585,0-1.06-0.475-1.06-1.06s0.475-1.059,1.06-1.059h1.413
	c0.389,0,0.706-0.317,0.706-0.707c0-0.389-0.317-0.706-0.706-0.706h-2.473c-0.585,0-1.059-0.475-1.059-1.06s0.474-1.059,1.059-1.059
	h2.473c1.558,0,2.824,1.267,2.824,2.825S110.347,10.217,108.789,10.217z"/>
<path fill="#622268" d="M110.556,12.335c-0.36,0-0.711-0.183-0.91-0.514l-0.962-1.604c-0.302-0.502-0.139-1.152,0.363-1.454
	c0.501-0.301,1.152-0.138,1.453,0.364l0.963,1.604c0.301,0.502,0.138,1.152-0.363,1.454
	C110.929,12.287,110.741,12.335,110.556,12.335z"/>
<path fill="#622268" d="M109.247,9.098"/>
<path fill="#622268" d="M93.958,9.867c-0.316,0-0.629-0.141-0.837-0.41l-2.473-3.182c-0.358-0.462-0.275-1.127,0.187-1.486
	c0.463-0.359,1.128-0.275,1.487,0.187l2.472,3.182c0.358,0.462,0.275,1.127-0.187,1.486C94.414,9.794,94.186,9.867,93.958,9.867z"/>
<path fill="#622268" d="M131.742,9.51h-1.766c-0.585,0-1.06-0.474-1.06-1.059s0.475-1.06,1.06-1.06h1.766
	c0.585,0,1.06,0.475,1.06,1.06S132.327,9.51,131.742,9.51z"/>
<g>
	<g>
		<path fill="#7759B5" d="M89.182,25.278h-5.059v5.429c0,0.9-0.716,1.616-1.616,1.616s-1.615-0.716-1.615-1.616V16.087
			c0-0.9,0.715-1.616,1.615-1.616h6.675c4.396,0,6.276,2.438,6.276,5.43C95.458,22.894,93.578,25.278,89.182,25.278z M89.632,17.438
			h-5.509v4.847h5.509c1.774,0,2.568-1.191,2.568-2.384C92.2,18.736,91.406,17.438,89.632,17.438z"/>
		<path fill="#7759B5" d="M111.243,30.707c0,0.821-0.636,1.616-1.616,1.616c-0.715,0-1.165-0.318-1.43-0.874l-3.099-6.383h-5.324
			v5.641c0,0.9-0.715,1.616-1.615,1.616s-1.615-0.716-1.615-1.616V16.087c0-0.9,0.715-1.616,1.615-1.616h6.807
			c4.396,0,6.277,2.172,6.277,5.298c0,2.065-0.901,3.84-2.914,4.714l2.729,5.535C111.163,30.23,111.243,30.468,111.243,30.707z
			 M105.416,17.438h-5.642v4.847h5.642c1.774,0,2.569-1.298,2.569-2.489C107.985,18.629,107.19,17.438,105.416,17.438z"/>
		<path fill="#7759B5" d="M123.981,32.111h-9.932c-0.9,0-1.642-0.716-1.642-1.616V16.087c0-0.9,0.741-1.616,1.642-1.616h9.534
			c0.848,0,1.536,0.636,1.536,1.483s-0.688,1.51-1.536,1.51h-7.945v4.211h4.37c0.821,0,1.51,0.662,1.51,1.51
			s-0.688,1.483-1.51,1.483h-4.37v4.449h8.343c0.848,0,1.536,0.662,1.536,1.51S124.829,32.111,123.981,32.111z"/>
		<path fill="#7759B5" d="M132.973,32.111h-4.847c-0.9,0-1.642-0.742-1.642-1.643V16.087c0-0.9,0.741-1.616,1.642-1.616h4.847
			c5.377,0,8.793,3.894,8.793,8.82C141.766,28.217,138.35,32.111,132.973,32.111z M132.814,17.464h-3.099v11.653h3.099
			c3.654,0,5.721-2.41,5.721-5.826C138.535,19.875,136.469,17.464,132.814,17.464z"/>
		<path fill="#7759B5" d="M144.521,32.323c-0.901,0-1.643-0.742-1.643-1.643V15.902c0-0.9,0.741-1.642,1.643-1.642
			c0.9,0,1.589,0.741,1.589,1.642V30.68C146.109,31.581,145.421,32.323,144.521,32.323z"/>
		<path fill="#7759B5" d="M160.119,27.979c0.345-0.238,0.688-0.371,1.06-0.371c0.9,0,1.457,0.688,1.457,1.483
			c0,0.424-0.186,0.768-0.504,1.086c-1.51,1.562-3.84,2.251-5.906,2.251c-5.19,0-9.004-3.602-9.004-9.137
			c0-5.536,3.813-9.138,9.004-9.138c2.066,0,4.396,0.688,5.906,2.251c0.318,0.318,0.504,0.662,0.504,1.086
			c0,0.795-0.557,1.483-1.457,1.483c-0.371,0-0.715-0.133-1.06-0.371c-1.006-0.768-2.092-1.456-3.894-1.456
			c-3.469,0-5.747,2.622-5.747,6.145s2.278,6.144,5.747,6.144C158.027,29.435,159.113,28.747,160.119,27.979z"/>
		<path fill="#7759B5" d="M176.937,17.517h-4.528V30.68c0,0.9-0.742,1.643-1.643,1.643s-1.589-0.742-1.589-1.643V17.517h-4.556
			c-0.847,0-1.536-0.688-1.536-1.51c0-0.847,0.662-1.536,1.536-1.536h12.315c0.848,0,1.536,0.689,1.536,1.536
			C178.473,16.829,177.811,17.517,176.937,17.517z"/>
		<path fill="#7759B5" d="M185.994,32.428c-5.191,0-9.058-4.025-9.058-9.137c0-5.112,3.866-9.138,9.058-9.138
			s9.058,4.025,9.058,9.138C195.052,28.403,191.186,32.428,185.994,32.428z M185.994,17.067c-3.602,0-5.8,2.86-5.8,6.225
			c0,3.363,2.198,6.224,5.8,6.224s5.8-2.86,5.8-6.224C191.794,19.927,189.596,17.067,185.994,17.067z"/>
		<path fill="#7759B5" d="M210.81,30.707c0,0.821-0.636,1.616-1.615,1.616c-0.715,0-1.165-0.318-1.43-0.874l-3.1-6.383h-5.323v5.641
			c0,0.9-0.715,1.616-1.615,1.616s-1.615-0.716-1.615-1.616V16.087c0-0.9,0.715-1.616,1.615-1.616h6.807
			c4.396,0,6.276,2.172,6.276,5.298c0,2.065-0.9,3.84-2.913,4.714l2.729,5.535C210.73,30.23,210.81,30.468,210.81,30.707z
			 M204.983,17.438h-5.642v4.847h5.642c1.774,0,2.569-1.298,2.569-2.489C207.553,18.629,206.758,17.438,204.983,17.438z"/>
		<path fill="#D16293" d="M92.527,52.802h-9.977c-0.904,0-1.649-0.718-1.649-1.623V36.707c0-0.904,0.745-1.622,1.649-1.622h9.577
			c0.852,0,1.543,0.638,1.543,1.489s-0.691,1.517-1.543,1.517h-7.981v4.23h4.39c0.825,0,1.517,0.665,1.517,1.516
			c0,0.852-0.691,1.49-1.517,1.49h-4.39v4.47h8.381c0.852,0,1.543,0.665,1.543,1.517C94.07,52.164,93.379,52.802,92.527,52.802z"/>
		<path fill="#D16293" d="M108.526,53.015c-0.505,0-0.878-0.187-1.17-0.559l-9.179-11.6v10.642c0,0.852-0.691,1.517-1.543,1.517
			c-0.825,0-1.517-0.691-1.517-1.517V36.415c0-0.825,0.612-1.543,1.597-1.543c0.426,0,0.878,0.239,1.117,0.559l9.179,11.6V36.415
			c0-0.825,0.611-1.543,1.516-1.543c0.905,0,1.543,0.718,1.543,1.543v15.084C110.069,52.324,109.432,53.015,108.526,53.015z"/>
		<path fill="#D16293" d="M124.67,38.143h-4.55v13.223c0,0.904-0.744,1.649-1.649,1.649c-0.904,0-1.596-0.745-1.596-1.649V38.143
			h-4.576c-0.852,0-1.543-0.691-1.543-1.516c0-0.852,0.665-1.543,1.543-1.543h12.371c0.852,0,1.543,0.691,1.543,1.543
			C126.213,37.452,125.548,38.143,124.67,38.143z"/>
		<path fill="#D16293" d="M138.524,52.802h-9.977c-0.904,0-1.649-0.718-1.649-1.623V36.707c0-0.904,0.745-1.622,1.649-1.622h9.578
			c0.851,0,1.543,0.638,1.543,1.489s-0.692,1.517-1.543,1.517h-7.981v4.23h4.39c0.824,0,1.517,0.665,1.517,1.516
			c0,0.852-0.692,1.49-1.517,1.49h-4.39v4.47h8.38c0.852,0,1.543,0.665,1.543,1.517C140.067,52.164,139.376,52.802,138.524,52.802z"
			/>
		<path fill="#D16293" d="M155.804,51.392c0,0.825-0.638,1.623-1.622,1.623c-0.719,0-1.171-0.319-1.438-0.878l-3.112-6.411h-5.348
			v5.666c0,0.905-0.718,1.623-1.622,1.623c-0.905,0-1.623-0.718-1.623-1.623V36.707c0-0.904,0.718-1.622,1.623-1.622h6.837
			c4.416,0,6.305,2.181,6.305,5.32c0,2.075-0.904,3.857-2.926,4.735l2.74,5.561C155.725,50.914,155.804,51.153,155.804,51.392z
			 M149.951,38.064h-5.667v4.868h5.667c1.782,0,2.581-1.304,2.581-2.501C152.532,39.261,151.733,38.064,149.951,38.064z"/>
		<path fill="#D16293" d="M159.486,53.015c-0.905,0-1.649-0.745-1.649-1.649V36.521c0-0.905,0.744-1.649,1.649-1.649
			c0.904,0,1.596,0.744,1.596,1.649v14.845C161.082,52.27,160.391,53.015,159.486,53.015z"/>
		<path fill="#D16293" d="M175.683,48.652c0.346-0.239,0.691-0.372,1.063-0.372c0.905,0,1.464,0.691,1.464,1.49
			c0,0.425-0.187,0.771-0.506,1.09c-1.517,1.57-3.857,2.262-5.933,2.262c-5.215,0-9.046-3.618-9.046-9.179
			c0-5.56,3.831-9.178,9.046-9.178c2.075,0,4.416,0.691,5.933,2.261c0.319,0.319,0.506,0.665,0.506,1.091
			c0,0.799-0.559,1.49-1.464,1.49c-0.372,0-0.718-0.133-1.063-0.373c-1.012-0.771-2.102-1.463-3.911-1.463
			c-3.485,0-5.773,2.634-5.773,6.172c0,3.539,2.288,6.173,5.773,6.173C173.581,50.116,174.671,49.423,175.683,48.652z"/>
		<path fill="#D16293" d="M185.946,53.122c-2.155,0-4.603-0.665-6.146-1.862c-0.532-0.426-0.905-0.958-0.905-1.543
			c0-0.824,0.532-1.384,1.357-1.384c0.292,0,0.559,0.08,0.824,0.24c1.437,0.904,2.421,1.702,4.922,1.702
			c2.554,0,3.565-1.037,3.565-2.234c0-1.304-1.038-1.969-4.23-2.82c-4.815-1.277-6.252-2.82-6.252-5.48
			c0-3.246,2.794-4.975,7.023-4.975c0.958,0,2.262,0.159,3.405,0.479c1.224,0.346,2.767,1.117,2.767,2.182
			c0,0.718-0.425,1.463-1.33,1.463c-0.213,0-0.426-0.026-0.639-0.133c-1.224-0.559-2.5-1.117-4.177-1.117
			c-2.367,0-3.804,0.639-3.804,2.021c0,1.304,1.063,1.756,4.257,2.688c3.645,1.064,6.225,2.102,6.225,5.507
			C192.81,50.94,190.469,53.122,185.946,53.122z"/>
	</g>
</g>
<path fill="none" stroke="#7759B5" stroke-width="14.1251" stroke-linecap="round" stroke-linejoin="round" stroke-miterlimit="10" d="
	M33.547,3.516"/>
</svg>
