<svg xmlns="http://www.w3.org/2000/svg" viewBox="0 0 2911.78 950"><defs><style>.a{isolation:isolate;}.b,.r,.s{fill:none;}.b{stroke:#71c7e6;stroke-linecap:square;stroke-miterlimit:10;stroke-width:0.25px;}.c{fill:#750019;}.d{font-size:375px;fill:#8f0030;font-family:BryantPro-Bold, Bryant Pro;font-weight:700;letter-spacing:-0.06em;}.e{letter-spacing:-0.09em;}.f{letter-spacing:-0.07em;}.g{letter-spacing:-0.09em;}.h{letter-spacing:-0.08em;}.i{letter-spacing:-0.05em;}.j{letter-spacing:-0.12em;}.k{letter-spacing:-0.05em;}.l{font-size:376.69px;fill:#d16293;letter-spacing:-0.06em;}.m{letter-spacing:-0.14em;}.n{letter-spacing:-0.1em;}.o{letter-spacing:-0.08em;}.p{letter-spacing:-0.07em;}.q{letter-spacing:-0.05em;}.r{stroke:#8f0030;}.r,.s{stroke-linecap:round;stroke-linejoin:round;stroke-width:200px;mix-blend-mode:multiply;}.s{stroke:#d16293;}</style></defs><title>predictor-ecoli-logo</title><g class="a"><circle class="b" cx="425" cy="475" r="225"/><circle class="b" cx="425" cy="475" r="85"/><circle class="b" cx="1055" cy="265" r="15"/><rect class="b" x="1070" y="140" width="110" height="110"/><circle class="b" cx="1195" cy="265" r="15"/><rect class="b" x="1210" y="140" width="110" height="110"/><circle class="b" cx="1335" cy="265" r="15"/><rect class="b" x="1350" y="140" width="110" height="110"/><circle class="b" cx="1475" cy="265" r="15"/><rect class="b" x="1490" y="140" width="110" height="110"/><circle class="b" cx="1055" cy="125" r="15"/><rect class="b" x="1070" width="110" height="110"/><circle class="b" cx="1195" cy="125" r="15"/><rect class="b" x="1210" width="110" height="110"/><circle class="b" cx="1335" cy="125" r="15"/><rect class="b" x="1350" width="110" height="110"/><circle class="b" cx="1475" cy="125" r="15"/><rect class="b" x="1490" width="110" height="110"/><circle class="b" cx="1055" cy="405" r="15"/><rect class="b" x="1070" y="280" width="110" height="110"/><circle class="b" cx="1195" cy="405" r="15"/><rect class="b" x="1210" y="280" width="110" height="110"/><circle class="b" cx="1335" cy="405" r="15"/><rect class="b" x="1350" y="280" width="110" height="110"/><circle class="b" cx="1475" cy="405" r="15"/><rect class="b" x="1490" y="280" width="110" height="110"/><circle class="b" cx="1055" cy="545" r="15"/><rect class="b" x="1070" y="420" width="110" height="110"/><circle class="b" cx="1195" cy="545" r="15"/><rect class="b" x="1210" y="420" width="110" height="110"/><circle class="b" cx="1335" cy="545" r="15"/><rect class="b" x="1350" y="420" width="110" height="110"/><circle class="b" cx="1475" cy="545" r="15"/><rect class="b" x="1490" y="420" width="110" height="110"/><circle class="b" cx="1055" cy="685" r="15"/><rect class="b" x="1070" y="560" width="110" height="110"/><circle class="b" cx="1195" cy="685" r="15"/><rect class="b" x="1210" y="560" width="110" height="110"/><circle class="b" cx="1335" cy="685" r="15"/><rect class="b" x="1350" y="560" width="110" height="110"/><circle class="b" cx="1475" cy="685" r="15"/><rect class="b" x="1490" y="560" width="110" height="110"/><circle class="b" cx="1055" cy="825" r="15"/><rect class="b" x="1070" y="700" width="110" height="110"/><circle class="b" cx="1195" cy="825" r="15"/><rect class="b" x="1210" y="700" width="110" height="110"/><circle class="b" cx="1335" cy="825" r="15"/><rect class="b" x="1350" y="700" width="110" height="110"/><circle class="b" cx="1475" cy="825" r="15"/><rect class="b" x="1490" y="700" width="110" height="110"/><rect class="b" x="1070" y="840" width="110" height="110"/><rect class="b" x="1210" y="840" width="110" height="110"/><rect class="b" x="1350" y="840" width="110" height="110"/><rect class="b" x="1490" y="840" width="110" height="110"/><circle class="b" cx="495" cy="265" r="15"/><rect class="b" x="510" y="140" width="110" height="110"/><circle class="b" cx="635" cy="265" r="15"/><rect class="b" x="650" y="140" width="110" height="110"/><circle class="b" cx="775" cy="265" r="15"/><rect class="b" x="790" y="140" width="110" height="110"/><circle class="b" cx="915" cy="265" r="15"/><rect class="b" x="930" y="140" width="110" height="110"/><circle class="b" cx="495" cy="125" r="15"/><rect class="b" x="510" width="110" height="110"/><circle class="b" cx="635" cy="125" r="15"/><rect class="b" x="650" width="110" height="110"/><circle class="b" cx="775" cy="125" r="15"/><rect class="b" x="790" width="110" height="110"/><circle class="b" cx="915" cy="125" r="15"/><rect class="b" x="930" width="110" height="110"/><circle class="b" cx="495" cy="405" r="15"/><rect class="b" x="510" y="280" width="110" height="110"/><circle class="b" cx="635" cy="405" r="15"/><rect class="b" x="650" y="280" width="110" height="110"/><circle class="b" cx="775" cy="405" r="15"/><rect class="b" x="790" y="280" width="110" height="110"/><circle class="b" cx="915" cy="405" r="15"/><rect class="b" x="930" y="280" width="110" height="110"/><circle class="b" cx="495" cy="545" r="15"/><rect class="b" x="510" y="420" width="110" height="110"/><circle class="b" cx="635" cy="545" r="15"/><rect class="b" x="650" y="420" width="110" height="110"/><circle class="b" cx="775" cy="545" r="15"/><rect class="b" x="790" y="420" width="110" height="110"/><circle class="b" cx="915" cy="545" r="15"/><rect class="b" x="930" y="420" width="110" height="110"/><circle class="b" cx="495" cy="685" r="15"/><rect class="b" x="510" y="560" width="110" height="110"/><circle class="b" cx="635" cy="685" r="15"/><rect class="b" x="650" y="560" width="110" height="110"/><circle class="b" cx="775" cy="685" r="15"/><rect class="b" x="790" y="560" width="110" height="110"/><circle class="b" cx="915" cy="685" r="15"/><rect class="b" x="930" y="560" width="110" height="110"/><circle class="b" cx="495" cy="825" r="15"/><rect class="b" x="510" y="700" width="110" height="110"/><circle class="b" cx="635" cy="825" r="15"/><rect class="b" x="650" y="700" width="110" height="110"/><circle class="b" cx="775" cy="825" r="15"/><rect class="b" x="790" y="700" width="110" height="110"/><circle class="b" cx="915" cy="825" r="15"/><rect class="b" x="930" y="700" width="110" height="110"/><rect class="b" x="510" y="840" width="110" height="110"/><rect class="b" x="650" y="840" width="110" height="110"/><rect class="b" x="790" y="840" width="110" height="110"/><rect class="b" x="930" y="840" width="110" height="110"/><rect class="b" x="-50" y="140" width="110" height="110"/><circle class="b" cx="75" cy="265" r="15"/><rect class="b" x="90" y="140" width="110" height="110"/><circle class="b" cx="215" cy="265" r="15"/><rect class="b" x="230" y="140" width="110" height="110"/><circle class="b" cx="355" cy="265" r="15"/><rect class="b" x="370" y="140" width="110" height="110"/><rect class="b" x="-50" width="110" height="110"/><circle class="b" cx="75" cy="125" r="15"/><rect class="b" x="90" width="110" height="110"/><circle class="b" cx="215" cy="125" r="15"/><rect class="b" x="230" width="110" height="110"/><circle class="b" cx="355" cy="125" r="15"/><rect class="b" x="370" width="110" height="110"/><rect class="b" x="-50" y="280" width="110" height="110"/><circle class="b" cx="75" cy="405" r="15"/><rect class="b" x="90" y="280" width="110" height="110"/><circle class="b" cx="215" cy="405" r="15"/><rect class="b" x="230" y="280" width="110" height="110"/><circle class="b" cx="355" cy="405" r="15"/><rect class="b" x="370" y="280" width="110" height="110"/><rect class="b" x="-50" y="420" width="110" height="110"/><circle class="b" cx="75" cy="545" r="15"/><rect class="b" x="90" y="420" width="110" height="110"/><circle class="b" cx="215" cy="545" r="15"/><rect class="b" x="230" y="420" width="110" height="110"/><circle class="b" cx="355" cy="545" r="15"/><rect class="b" x="370" y="420" width="110" height="110"/><rect class="b" x="-50" y="560" width="110" height="110"/><circle class="b" cx="75" cy="685" r="15"/><rect class="b" x="90" y="560" width="110" height="110"/><circle class="b" cx="215" cy="685" r="15"/><rect class="b" x="230" y="560" width="110" height="110"/><circle class="b" cx="355" cy="685" r="15"/><rect class="b" x="370" y="560" width="110" height="110"/><rect class="b" x="-50" y="700" width="110" height="110"/><circle class="b" cx="75" cy="825" r="15"/><rect class="b" x="90" y="700" width="110" height="110"/><circle class="b" cx="215" cy="825" r="15"/><rect class="b" x="230" y="700" width="110" height="110"/><circle class="b" cx="355" cy="825" r="15"/><rect class="b" x="370" y="700" width="110" height="110"/><rect class="b" x="-50" y="840" width="110" height="110"/><rect class="b" x="90" y="840" width="110" height="110"/><rect class="b" x="230" y="840" width="110" height="110"/><rect class="b" x="370" y="840" width="110" height="110"/><circle class="b" cx="2595" cy="265" r="15"/><rect class="b" x="2610" y="140" width="110" height="110"/><circle class="b" cx="2735" cy="265" r="15"/><rect class="b" x="2750" y="140" width="110" height="110"/><circle class="b" cx="2875" cy="265" r="15"/><rect class="b" x="2890" y="140" width="110" height="110"/><circle class="b" cx="2595" cy="125" r="15"/><rect class="b" x="2610" width="110" height="110"/><circle class="b" cx="2735" cy="125" r="15"/><rect class="b" x="2750" width="110" height="110"/><circle class="b" cx="2875" cy="125" r="15"/><rect class="b" x="2890" width="110" height="110"/><circle class="b" cx="2595" cy="405" r="15"/><rect class="b" x="2610" y="280" width="110" height="110"/><circle class="b" cx="2735" cy="405" r="15"/><rect class="b" x="2750" y="280" width="110" height="110"/><circle class="b" cx="2875" cy="405" r="15"/><rect class="b" x="2890" y="280" width="110" height="110"/><circle class="b" cx="2595" cy="545" r="15"/><rect class="b" x="2610" y="420" width="110" height="110"/><circle class="b" cx="2735" cy="545" r="15"/><rect class="b" x="2750" y="420" width="110" height="110"/><circle class="b" cx="2875" cy="545" r="15"/><rect class="b" x="2890" y="420" width="110" height="110"/><circle class="b" cx="2595" cy="685" r="15"/><rect class="b" x="2610" y="560" width="110" height="110"/><circle class="b" cx="2735" cy="685" r="15"/><rect class="b" x="2750" y="560" width="110" height="110"/><circle class="b" cx="2875" cy="685" r="15"/><rect class="b" x="2890" y="560" width="110" height="110"/><circle class="b" cx="2595" cy="825" r="15"/><rect class="b" x="2610" y="700" width="110" height="110"/><circle class="b" cx="2735" cy="825" r="15"/><rect class="b" x="2750" y="700" width="110" height="110"/><circle class="b" cx="2875" cy="825" r="15"/><rect class="b" x="2890" y="700" width="110" height="110"/><rect class="b" x="2610" y="840" width="110" height="110"/><rect class="b" x="2750" y="840" width="110" height="110"/><rect class="b" x="2890" y="840" width="110" height="110"/><circle class="b" cx="2035" cy="265" r="15"/><rect class="b" x="2050" y="140" width="110" height="110"/><circle class="b" cx="2175" cy="265" r="15"/><rect class="b" x="2190" y="140" width="110" height="110"/><circle class="b" cx="2315" cy="265" r="15"/><rect class="b" x="2330" y="140" width="110" height="110"/><circle class="b" cx="2455" cy="265" r="15"/><rect class="b" x="2470" y="140" width="110" height="110"/><circle class="b" cx="2035" cy="125" r="15"/><rect class="b" x="2050" width="110" height="110"/><circle class="b" cx="2175" cy="125" r="15"/><rect class="b" x="2190" width="110" height="110"/><circle class="b" cx="2315" cy="125" r="15"/><rect class="b" x="2330" width="110" height="110"/><circle class="b" cx="2455" cy="125" r="15"/><rect class="b" x="2470" width="110" height="110"/><circle class="b" cx="2035" cy="405" r="15"/><rect class="b" x="2050" y="280" width="110" height="110"/><circle class="b" cx="2175" cy="405" r="15"/><rect class="b" x="2190" y="280" width="110" height="110"/><circle class="b" cx="2315" cy="405" r="15"/><rect class="b" x="2330" y="280" width="110" height="110"/><circle class="b" cx="2455" cy="405" r="15"/><rect class="b" x="2470" y="280" width="110" height="110"/><circle class="b" cx="2035" cy="545" r="15"/><rect class="b" x="2050" y="420" width="110" height="110"/><circle class="b" cx="2175" cy="545" r="15"/><rect class="b" x="2190" y="420" width="110" height="110"/><circle class="b" cx="2315" cy="545" r="15"/><rect class="b" x="2330" y="420" width="110" height="110"/><circle class="b" cx="2455" cy="545" r="15"/><rect class="b" x="2470" y="420" width="110" height="110"/><circle class="b" cx="2035" cy="685" r="15"/><rect class="b" x="2050" y="560" width="110" height="110"/><circle class="b" cx="2175" cy="685" r="15"/><rect class="b" x="2190" y="560" width="110" height="110"/><circle class="b" cx="2315" cy="685" r="15"/><rect class="b" x="2330" y="560" width="110" height="110"/><circle class="b" cx="2455" cy="685" r="15"/><rect class="b" x="2470" y="560" width="110" height="110"/><circle class="b" cx="2035" cy="825" r="15"/><rect class="b" x="2050" y="700" width="110" height="110"/><circle class="b" cx="2175" cy="825" r="15"/><rect class="b" x="2190" y="700" width="110" height="110"/><circle class="b" cx="2315" cy="825" r="15"/><rect class="b" x="2330" y="700" width="110" height="110"/><circle class="b" cx="2455" cy="825" r="15"/><rect class="b" x="2470" y="700" width="110" height="110"/><rect class="b" x="2050" y="840" width="110" height="110"/><rect class="b" x="2190" y="840" width="110" height="110"/><rect class="b" x="2330" y="840" width="110" height="110"/><rect class="b" x="2470" y="840" width="110" height="110"/><circle class="b" cx="1615" cy="265" r="15"/><rect class="b" x="1630" y="140" width="110" height="110"/><circle class="b" cx="1755" cy="265" r="15"/><rect class="b" x="1770" y="140" width="110" height="110"/><circle class="b" cx="1895" cy="265" r="15"/><rect class="b" x="1910" y="140" width="110" height="110"/><circle class="b" cx="1615" cy="125" r="15"/><rect class="b" x="1630" width="110" height="110"/><circle class="b" cx="1755" cy="125" r="15"/><rect class="b" x="1770" width="110" height="110"/><circle class="b" cx="1895" cy="125" r="15"/><rect class="b" x="1910" width="110" height="110"/><circle class="b" cx="1615" cy="405" r="15"/><rect class="b" x="1630" y="280" width="110" height="110"/><circle class="b" cx="1755" cy="405" r="15"/><rect class="b" x="1770" y="280" width="110" height="110"/><circle class="b" cx="1895" cy="405" r="15"/><rect class="b" x="1910" y="280" width="110" height="110"/><circle class="b" cx="1615" cy="545" r="15"/><rect class="b" x="1630" y="420" width="110" height="110"/><circle class="b" cx="1755" cy="545" r="15"/><rect class="b" x="1770" y="420" width="110" height="110"/><circle class="b" cx="1895" cy="545" r="15"/><rect class="b" x="1910" y="420" width="110" height="110"/><circle class="b" cx="1615" cy="685" r="15"/><rect class="b" x="1630" y="560" width="110" height="110"/><circle class="b" cx="1755" cy="685" r="15"/><rect class="b" x="1770" y="560" width="110" height="110"/><circle class="b" cx="1895" cy="685" r="15"/><rect class="b" x="1910" y="560" width="110" height="110"/><circle class="b" cx="1615" cy="825" r="15"/><rect class="b" x="1630" y="700" width="110" height="110"/><circle class="b" cx="1755" cy="825" r="15"/><rect class="b" x="1770" y="700" width="110" height="110"/><circle class="b" cx="1895" cy="825" r="15"/><rect class="b" x="1910" y="700" width="110" height="110"/><rect class="b" x="1630" y="840" width="110" height="110"/><rect class="b" x="1770" y="840" width="110" height="110"/><rect class="b" x="1910" y="840" width="110" height="110"/><circle class="b" cx="425" cy="475" r="475"/><path class="c" d="M1650,140.05a15,15,0,0,0-15,15v80a15,15,0,0,0,30,0v-80A15,15,0,0,0,1650,140.05Z"/><path class="c" d="M1725,212.55a27.5,27.5,0,0,0-27.5-27.5H1660a10,10,0,0,0,0,20h27.5a7.5,7.5,0,0,1,0,15H1650a15,15,0,0,0,0,30h37.5a37.5,37.5,0,0,0,37.5-37.5"/><path class="c" d="M1680,205.05a10,10,0,0,1,0-20h2.5a7.5,7.5,0,0,0,0-15H1650a15,15,0,0,1,0-30h32.5a32.5,32.5,0,0,1,0,65H1680"/><path class="c" d="M1330,250a15,15,0,0,1-15-15V155a15,15,0,0,1,30,0v80A15,15,0,0,1,1330,250Z"/><path class="c" d="M1085,250a15,15,0,0,1-14-20.27l30-80A15,15,0,1,1,1129,160.27l-30,80A15,15,0,0,1,1085,250Z"/><path class="c" d="M1205,250a15,15,0,0,1-14-9.74l-30-80A15,15,0,1,1,1189,149.74l30,80A15,15,0,0,1,1205,250Z"/><path class="c" d="M1145,250a15,15,0,0,1-14-20.27l30-80A15,15,0,1,1,1189,160.27l-30,80A15,15,0,0,1,1145,250Z"/><path class="c" d="M1145,250a15,15,0,0,1-14-9.74l-30-80A15,15,0,1,1,1129,149.74l30,80A15,15,0,0,1,1145,250Z"/><path class="c" d="M1255,250a15,15,0,0,1-15-15V200.05a15,15,0,0,1,3.16-9.2l35-45a15,15,0,1,1,23.68,18.41l-31.84,41V235A15,15,0,0,1,1255,250Z"/><path class="c" d="M1334.39,225.66a15,15,0,0,1-10.6-25.61l55.6-55.65a15,15,0,1,1,21.22,21.21L1345,221.26A15,15,0,0,1,1334.39,225.66Z"/><path class="c" d="M1390,250a15,15,0,0,1-12.87-7.29l-24-40a15,15,0,0,1,25.73-15.43l24,40A15,15,0,0,1,1390,250Z"/><path class="c" d="M1430,250a15,15,0,0,1-15-15V155a15,15,0,0,1,30,0v80A15,15,0,0,1,1430,250Z"/><path class="c" d="M1570,250a55,55,0,0,1-38.89-93.87,15,15,0,1,1,21.22,21.22,25,25,0,1,0,35.35,35.35,15,15,0,1,1,21.21,21.21A54.79,54.79,0,0,1,1570,250Z"/><path class="c" d="M1598.26,238.29a15,15,0,0,1-10.61-25.61,25,25,0,0,0-35.35-35.35,15,15,0,0,1-21.22-21.22,55,55,0,0,1,77.78,77.78A14.92,14.92,0,0,1,1598.26,238.29Z"/><path class="c" d="M1810,170.05h-60a15,15,0,0,1,0-30h60a15,15,0,0,1,0,30Z"/><path class="c" d="M1810,250.05h-60a15,15,0,0,1,0-30h60a15,15,0,0,1,0,30Z"/><path class="c" d="M1750,250a15,15,0,0,1-15-15V155a15,15,0,0,1,30,0v80A15,15,0,0,1,1750,250Z"/><path class="c" d="M1465,220h-20a15,15,0,0,1,0-30h20a10,10,0,0,0,0-20h-35a15,15,0,0,1,0-30h35a40,40,0,0,1,0,80Z"/><path class="c" d="M1490,250a15,15,0,0,1-12.87-7.29L1463.51,220a15,15,0,1,1,25.72-15.43l13.63,22.72A15,15,0,0,1,1490,250Z"/><path class="c" d="M1255,215.05a15,15,0,0,1-11.85-5.8l-35-45a15,15,0,1,1,23.68-18.41l35,45a15,15,0,0,1-11.83,24.2Z"/><path class="c" d="M1790,210h-25a15,15,0,0,1,0-30h25a15,15,0,0,1,0,30Z"/><text class="d" transform="translate(1040 530)">P<tspan class="e" x="221.62" y="0">R</tspan><tspan class="f" x="446.25" y="0">E</tspan><tspan class="g" x="645.56" y="0">D</tspan><tspan class="h" x="875.8" y="0">I</tspan><tspan class="i" x="954.17" y="0">C</tspan><tspan class="j" x="1186.3" y="0">T</tspan><tspan class="g" x="1373.04" y="0">O</tspan><tspan class="k" x="1631.41" y="0">R</tspan><tspan class="l"><tspan x="0" y="292.98">E</tspan><tspan class="m" x="206.43" y="292.98">.</tspan><tspan class="n" x="249.36" y="292.98">C</tspan><tspan class="o" x="462.19" y="292.98">O</tspan><tspan class="p" x="721.73" y="292.98">L</tspan><tspan class="q" x="911.95" y="292.98">I</tspan></tspan></text><line class="r" x1="424.76" y1="100" x2="424.76" y2="850"/><line class="s" x1="100" y1="287.51" x2="749.52" y2="662.49"/><line class="s" x1="100.01" y1="662.51" x2="749.52" y2="287.48"/></g></svg>