<svg xmlns="http://www.w3.org/2000/svg" viewBox="0 0 2924.3 950"><defs><style>.a{isolation:isolate;}.b{fill:#483963;}.c{font-size:375px;font-family:BryantPro-Bold, Bryant Pro;font-weight:700;letter-spacing:-0.06em;}.c,.r{fill:#7759b5;}.d{letter-spacing:-0.09em;}.e{letter-spacing:-0.07em;}.f{letter-spacing:-0.09em;}.g{letter-spacing:-0.08em;}.h{letter-spacing:-0.05em;}.i{letter-spacing:-0.12em;}.j{letter-spacing:-0.05em;}.k,.q{fill:#9ba38b;}.k{letter-spacing:-0.1em;}.l{letter-spacing:-0.06em;}.m{letter-spacing:-0.12em;}.n{letter-spacing:-0.11em;}.o{letter-spacing:-0.08em;}.p{letter-spacing:-0.09em;}.q,.r{mix-blend-mode:multiply;}</style></defs><title>predictor-s-aureus-logo</title><g class="a"><path class="b" d="M1662.52,140.05a15,15,0,0,0-15,15v80a15,15,0,0,0,30,0v-80A15,15,0,0,0,1662.52,140.05Z"/><path class="b" d="M1737.52,212.55a27.5,27.5,0,0,0-27.5-27.5h-37.5a10,10,0,0,0,0,20H1700a7.5,7.5,0,0,1,0,15h-37.5a15,15,0,0,0,0,30H1700a37.5,37.5,0,0,0,37.5-37.5"/><path class="b" d="M1692.52,205.05a10,10,0,0,1,0-20h2.5a7.5,7.5,0,0,0,0-15h-32.5a15,15,0,0,1,0-30H1695a32.5,32.5,0,0,1,0,65h-2.5"/><path class="b" d="M1342.52,250a15,15,0,0,1-15-15V155a15,15,0,0,1,30,0v80A15,15,0,0,1,1342.52,250Z"/><path class="b" d="M1097.52,250a15,15,0,0,1-14-20.27l30-80a15,15,0,1,1,28.09,10.53l-30,80A15,15,0,0,1,1097.52,250Z"/><path class="b" d="M1217.52,250a15,15,0,0,1-14-9.74l-30-80a15,15,0,1,1,28.09-10.53l30,80a15,15,0,0,1-14,20.27Z"/><path class="b" d="M1157.52,250a15,15,0,0,1-14-20.27l30-80a15,15,0,1,1,28.09,10.53l-30,80A15,15,0,0,1,1157.52,250Z"/><path class="b" d="M1157.52,250a15,15,0,0,1-14-9.74l-30-80a15,15,0,1,1,28.09-10.53l30,80a15,15,0,0,1-14,20.27Z"/><path class="b" d="M1267.52,250a15,15,0,0,1-15-15V200.05a15,15,0,0,1,3.16-9.2l35-45a15,15,0,1,1,23.68,18.41l-31.84,41V235A15,15,0,0,1,1267.52,250Z"/><path class="b" d="M1346.91,225.66a15,15,0,0,1-10.6-25.61l55.6-55.65a15,15,0,0,1,21.22,21.21l-55.61,55.65A15,15,0,0,1,1346.91,225.66Z"/><path class="b" d="M1402.53,250a15,15,0,0,1-12.87-7.29l-24-40a15,15,0,0,1,25.73-15.43l24,40A15,15,0,0,1,1402.53,250Z"/><path class="b" d="M1442.52,250a15,15,0,0,1-15-15V155a15,15,0,0,1,30,0v80A15,15,0,0,1,1442.52,250Z"/><path class="b" d="M1582.49,250a55,55,0,0,1-38.89-93.87,15,15,0,1,1,21.22,21.22,25,25,0,1,0,35.35,35.35,15,15,0,0,1,21.21,21.21A54.79,54.79,0,0,1,1582.49,250Z"/><path class="b" d="M1610.78,238.29a15,15,0,0,1-10.61-25.61,25,25,0,0,0-35.35-35.35,15,15,0,0,1-21.22-21.22,55,55,0,1,1,77.78,77.78A14.92,14.92,0,0,1,1610.78,238.29Z"/><path class="b" d="M1822.52,170.05h-60a15,15,0,0,1,0-30h60a15,15,0,0,1,0,30Z"/><path class="b" d="M1822.52,250.05h-60a15,15,0,0,1,0-30h60a15,15,0,0,1,0,30Z"/><path class="b" d="M1762.52,250a15,15,0,0,1-15-15V155a15,15,0,0,1,30,0v80A15,15,0,0,1,1762.52,250Z"/><path class="b" d="M1477.52,220h-20a15,15,0,0,1,0-30h20a10,10,0,0,0,0-20h-35a15,15,0,0,1,0-30h35a40,40,0,0,1,0,80Z"/><path class="b" d="M1502.53,250a15,15,0,0,1-12.87-7.29L1476,220a15,15,0,1,1,25.72-15.43l13.63,22.72A15,15,0,0,1,1502.53,250Z"/><path class="b" d="M1267.53,215.05a15,15,0,0,1-11.85-5.8l-35-45a15,15,0,1,1,23.68-18.41l35,45a15,15,0,0,1-11.83,24.2Z"/><path class="b" d="M1802.52,210h-25a15,15,0,0,1,0-30h25a15,15,0,0,1,0,30Z"/><text class="c" transform="translate(1052.52 530)">P<tspan class="d" x="221.62" y="0">R</tspan><tspan class="e" x="446.25" y="0">E</tspan><tspan class="f" x="645.56" y="0">D</tspan><tspan class="g" x="875.8" y="0">I</tspan><tspan class="h" x="954.17" y="0">C</tspan><tspan class="i" x="1186.3" y="0">T</tspan><tspan class="f" x="1373.04" y="0">O</tspan><tspan class="j" x="1631.41" y="0">R</tspan><tspan class="k"><tspan x="0" y="280">S</tspan><tspan class="l" x="196.5" y="280">.</tspan><tspan class="m" x="271.87" y="280">A</tspan><tspan class="n" x="485.61" y="280">U</tspan><tspan class="d" x="714.36" y="280">R</tspan><tspan class="o" x="938.98" y="280">E</tspan><tspan class="p" x="1134.35" y="280">U</tspan><tspan class="j" x="1369.85" y="280">S</tspan></tspan></text><circle class="q" cx="437.52" cy="195" r="195"/><circle class="r" cx="437.52" cy="755" r="195"/><circle class="r" cx="195.03" cy="335" r="195" transform="translate(-179.76 236.03) rotate(-45)"/><circle class="q" cx="680.01" cy="615" r="195" transform="translate(-235.7 660.97) rotate(-45)"/><circle class="q" cx="195.03" cy="615" r="195" transform="translate(-377.75 318.04) rotate(-45)"/><circle class="r" cx="680.01" cy="335" r="195" transform="translate(-37.71 578.96) rotate(-45)"/></g></svg>