<svg xmlns="http://www.w3.org/2000/svg" viewBox="0 0 2911.78 950"><defs><style>.a{isolation:isolate;}.b{fill:#750019;}.c{fill:#8f0030;}.d{fill:#d16293;}.e,.f{fill:none;stroke-linecap:round;stroke-linejoin:round;stroke-width:200px;mix-blend-mode:multiply;}.e{stroke:#8f0030;}.f{stroke:#d16293;}</style></defs><title>predictor-ecoli-logo</title><g class="a"><path class="b" d="M1650,140.05a15,15,0,0,0-15,15v80a15,15,0,0,0,30,0v-80A15,15,0,0,0,1650,140.05Z"/><path class="b" d="M1725,212.55a27.5,27.5,0,0,0-27.5-27.5H1660a10,10,0,0,0,0,20h27.5a7.5,7.5,0,0,1,0,15H1650a15,15,0,0,0,0,30h37.5a37.5,37.5,0,0,0,37.5-37.5"/><path class="b" d="M1680,205.05a10,10,0,0,1,0-20h2.5a7.5,7.5,0,0,0,0-15H1650a15,15,0,0,1,0-30h32.5a32.5,32.5,0,0,1,0,65H1680"/><path class="b" d="M1330,250a15,15,0,0,1-15-15V155a15,15,0,0,1,30,0v80A15,15,0,0,1,1330,250Z"/><path class="b" d="M1085,250a15,15,0,0,1-14-20.27l30-80A15,15,0,1,1,1129,160.27l-30,80A15,15,0,0,1,1085,250Z"/><path class="b" d="M1205,250a15,15,0,0,1-14-9.74l-30-80A15,15,0,1,1,1189,149.74l30,80A15,15,0,0,1,1205,250Z"/><path class="b" d="M1145,250a15,15,0,0,1-14-20.27l30-80A15,15,0,1,1,1189,160.27l-30,80A15,15,0,0,1,1145,250Z"/><path class="b" d="M1145,250a15,15,0,0,1-14-9.74l-30-80A15,15,0,1,1,1129,149.74l30,80A15,15,0,0,1,1145,250Z"/><path class="b" d="M1255,250a15,15,0,0,1-15-15V200.05a15,15,0,0,1,3.16-9.2l35-45a15,15,0,1,1,23.68,18.41l-31.84,41V235A15,15,0,0,1,1255,250Z"/><path class="b" d="M1334.39,225.66a15,15,0,0,1-10.6-25.61l55.6-55.65a15,15,0,1,1,21.22,21.21L1345,221.26A15,15,0,0,1,1334.39,225.66Z"/><path class="b" d="M1390,250a15,15,0,0,1-12.87-7.29l-24-40a15,15,0,0,1,25.73-15.43l24,40A15,15,0,0,1,1390,250Z"/><path class="b" d="M1430,250a15,15,0,0,1-15-15V155a15,15,0,0,1,30,0v80A15,15,0,0,1,1430,250Z"/><path class="b" d="M1570,250a55,55,0,0,1-38.89-93.87,15,15,0,1,1,21.22,21.22,25,25,0,1,0,35.35,35.35,15,15,0,1,1,21.21,21.21A54.79,54.79,0,0,1,1570,250Z"/><path class="b" d="M1598.26,238.29a15,15,0,0,1-10.61-25.61,25,25,0,0,0-35.35-35.35,15,15,0,0,1-21.22-21.22,55,55,0,0,1,77.78,77.78A14.92,14.92,0,0,1,1598.26,238.29Z"/><path class="b" d="M1810,170.05h-60a15,15,0,0,1,0-30h60a15,15,0,0,1,0,30Z"/><path class="b" d="M1810,250.05h-60a15,15,0,0,1,0-30h60a15,15,0,0,1,0,30Z"/><path class="b" d="M1750,250a15,15,0,0,1-15-15V155a15,15,0,0,1,30,0v80A15,15,0,0,1,1750,250Z"/><path class="b" d="M1465,220h-20a15,15,0,0,1,0-30h20a10,10,0,0,0,0-20h-35a15,15,0,0,1,0-30h35a40,40,0,0,1,0,80Z"/><path class="b" d="M1490,250a15,15,0,0,1-12.87-7.29L1463.51,220a15,15,0,1,1,25.72-15.43l13.63,22.72A15,15,0,0,1,1490,250Z"/><path class="b" d="M1255,215.05a15,15,0,0,1-11.85-5.8l-35-45a15,15,0,1,1,23.68-18.41l35,45a15,15,0,0,1-11.83,24.2Z"/><path class="b" d="M1790,210h-25a15,15,0,0,1,0-30h25a15,15,0,0,1,0,30Z"/><path class="c" d="M1187.38,433.25h-71.63v76.87a22.88,22.88,0,1,1-45.75,0v-207a22.73,22.73,0,0,1,22.88-22.87h94.5c62.24,0,88.87,34.5,88.87,76.87S1249.62,433.25,1187.38,433.25Zm6.37-111h-78v68.63h78c25.13,0,36.37-16.88,36.37-33.76C1230.12,340.62,1218.88,322.25,1193.75,322.25Z"/><path class="c" d="M1499.75,510.12A22.71,22.71,0,0,1,1476.87,533c-10.12,0-16.5-4.5-20.25-12.38l-43.87-90.37h-75.38v79.87a22.88,22.88,0,1,1-45.75,0v-207a22.73,22.73,0,0,1,22.88-22.87h96.37c62.25,0,88.88,30.75,88.88,75,0,29.25-12.75,54.37-41.25,66.75l38.62,78.38A22.26,22.26,0,0,1,1499.75,510.12Zm-82.5-187.87h-79.88v68.63h79.88c25.12,0,36.37-18.38,36.37-35.26C1453.62,339.12,1442.37,322.25,1417.25,322.25Z"/><path class="c" d="M1680.12,530H1539.5a23,23,0,0,1-23.25-22.88v-204a23,23,0,0,1,23.25-22.87h135c12,0,21.75,9,21.75,21a21.44,21.44,0,0,1-21.75,21.37H1562v59.63h61.87a21.36,21.36,0,0,1,21.38,21.37,21,21,0,0,1-21.38,21H1562v63h118.12A21.45,21.45,0,0,1,1701.87,509C1701.87,521,1692.12,530,1680.12,530Z"/><path class="c" d="M1807.43,530h-68.62a23.37,23.37,0,0,1-23.25-23.25V303.12a23,23,0,0,1,23.25-22.87h68.62c76.13,0,124.5,55.13,124.5,124.87S1883.56,530,1807.43,530Zm-2.25-207.38h-43.87v165h43.87c51.75,0,81-34.12,81-82.5S1856.93,322.62,1805.18,322.62Z"/><path class="c" d="M1970.93,533a23.37,23.37,0,0,1-23.25-23.25V300.5a23.37,23.37,0,0,1,23.25-23.25c12.75,0,22.5,10.5,22.5,23.25V509.75C1993.43,522.5,1983.68,533,1970.93,533Z"/><path class="c" d="M2191.8,471.5c4.87-3.38,9.75-5.25,15-5.25,12.75,0,20.62,9.75,20.62,21,0,6-2.62,10.87-7.12,15.37-21.38,22.13-54.38,31.88-83.63,31.88-73.5,0-127.5-51-127.5-129.38s54-129.37,127.5-129.37c29.25,0,62.25,9.75,83.63,31.87,4.5,4.5,7.12,9.38,7.12,15.38,0,11.25-7.87,21-20.62,21-5.25,0-10.13-1.88-15-5.25-14.25-10.87-29.63-20.63-55.13-20.63-49.12,0-81.37,37.13-81.37,87s32.25,87,81.37,87C2162.17,492.12,2177.55,482.38,2191.8,471.5Z"/><path class="c" d="M2429.92,323.38H2365.8V509.75A23.37,23.37,0,0,1,2342.55,533c-12.75,0-22.5-10.5-22.5-23.25V323.38h-64.5a21.57,21.57,0,1,1,0-43.13h174.37A21.77,21.77,0,0,1,2451.67,302,21.45,21.45,0,0,1,2429.92,323.38Z"/><path class="c" d="M2558.17,534.5c-73.5,0-128.25-57-128.25-129.38s54.75-129.37,128.25-129.37,128.25,57,128.25,129.37S2631.67,534.5,2558.17,534.5Zm0-217.5c-51,0-82.13,40.5-82.13,88.12s31.13,88.13,82.13,88.13,82.12-40.5,82.12-88.13S2609.17,317,2558.17,317Z"/><path class="c" d="M2909.54,510.12A22.71,22.71,0,0,1,2886.66,533c-10.12,0-16.5-4.5-20.25-12.38l-43.87-90.37h-75.38v79.87a22.88,22.88,0,1,1-45.75,0v-207a22.73,22.73,0,0,1,22.88-22.87h96.37c62.25,0,88.88,30.75,88.88,75,0,29.25-12.75,54.37-41.25,66.75l38.62,78.38A22.26,22.26,0,0,1,2909.54,510.12ZM2827,322.25h-79.88v68.63H2827c25.12,0,36.37-18.38,36.37-35.26C2863.41,339.12,2852.16,322.25,2827,322.25Z"/><path class="d" d="M1234.75,823H1093.49a23.15,23.15,0,0,1-23.35-23V595.08a23.15,23.15,0,0,1,23.35-23H1229.1c12.05,0,21.85,9,21.85,21.1a21.55,21.55,0,0,1-21.85,21.47h-113v59.9h62.16A21.46,21.46,0,0,1,1199.72,696a21.14,21.14,0,0,1-21.47,21.09h-62.16v63.29h118.66a21.54,21.54,0,0,1,21.85,21.47C1256.6,813.94,1246.8,823,1234.75,823Z"/><path class="d" d="M1294.64,825.62a25.72,25.72,0,0,1-25.61-26A25.4,25.4,0,0,1,1294.64,774a25.72,25.72,0,0,1,26,25.62A26,26,0,0,1,1294.64,825.62Z"/><path class="d" d="M1487.88,764.22c4.9-3.39,9.8-5.28,15.07-5.28,12.81,0,20.72,9.8,20.72,21.1,0,6-2.64,10.92-7.16,15.44-21.47,22.23-54.62,32-84,32-73.83,0-128.08-51.23-128.08-130s54.25-130,128.08-130c29.38,0,62.53,9.8,84,32,4.52,4.52,7.16,9.42,7.16,15.45,0,11.3-7.91,21.09-20.72,21.09-5.27,0-10.17-1.88-15.07-5.27-14.31-10.93-29.76-20.72-55.37-20.72-49.35,0-81.74,37.29-81.74,87.39s32.39,87.4,81.74,87.4C1458.12,784.94,1473.57,775.14,1487.88,764.22Z"/><path class="d" d="M1648,827.5c-73.83,0-128.83-57.25-128.83-130s55-130,128.83-130,128.83,57.26,128.83,130S1721.8,827.5,1648,827.5ZM1648,609c-51.23,0-82.49,40.68-82.49,88.52s31.26,88.53,82.49,88.53,82.5-40.69,82.5-88.53S1699.2,609,1648,609Z"/><path class="d" d="M1815.22,823a23.48,23.48,0,0,1-23.36-23.35V592.45a23.48,23.48,0,0,1,23.36-23.36c12.81,0,22.6,10.55,22.6,23.36V779.66h110a21.47,21.47,0,0,1,21.47,21.47A22,22,0,0,1,1947.82,823Z"/><path class="d" d="M2007.33,826A23.48,23.48,0,0,1,1984,802.64V592.45a23.48,23.48,0,0,1,23.36-23.36c12.81,0,22.6,10.55,22.6,23.36V802.64C2029.93,815.45,2020.14,826,2007.33,826Z"/><line class="e" x1="424.76" y1="100" x2="424.76" y2="850"/><line class="f" x1="100" y1="287.51" x2="749.52" y2="662.49"/><line class="f" x1="100.01" y1="662.51" x2="749.52" y2="287.48"/></g></svg>